<svg id="SvgjsSvg1001" width="288" height="288" xmlns="http://www.w3.org/2000/svg" version="1.1" xmlns:xlink="http://www.w3.org/1999/xlink" xmlns:svgjs="http://svgjs.com/svgjs"><defs id="SvgjsDefs1002"></defs><g id="SvgjsG1008" transform="matrix(0.9167,0,0,0.9167,11.995200000000011,11.995200000000011)"><svg xmlns="http://www.w3.org/2000/svg" width="288" height="288" viewBox="0 0 512 512"><path d="m472 16h-432a24.0275 24.0275 0 0 0 -24 24v432a24.0275 24.0275 0 0 0 24 24h432a24.0275 24.0275 0 0 0 24-24v-432a24.0275 24.0275 0 0 0 -24-24zm8 456a8.00917 8.00917 0 0 1 -8 8h-432a8.00917 8.00917 0 0 1 -8-8v-432a8.00917 8.00917 0 0 1 8-8h432a8.00917 8.00917 0 0 1 8 8z" fill="#16a441" class="color000 svgShape"></path><circle cx="56" cy="56" r="8" fill="#16a441" class="color000 svgShape"></circle><circle cx="80" cy="56" r="8" fill="#16a441" class="color000 svgShape"></circle><circle cx="104" cy="56" r="8" fill="#16a441" class="color000 svgShape"></circle><path d="M248 216h-32a7.99977 7.99977 0 00-8 8v32a7.99977 7.99977 0 008 8h32a7.99977 7.99977 0 008-8v-32a7.99977 7.99977 0 00-8-8zm-8 32h-16v-16h16zM280 232h24v16h-24zM320 232h112v16h-112zM248 280h-32a7.99977 7.99977 0 00-8 8v32a7.99977 7.99977 0 008 8h32a7.99977 7.99977 0 008-8v-32a7.99977 7.99977 0 00-8-8zm-8 32h-16v-16h16zM280 296h24v16h-24zM320 296h112v16h-112zM248 344h-32a7.99977 7.99977 0 00-8 8v32a7.99977 7.99977 0 008 8h32a7.99977 7.99977 0 008-8v-32a7.99977 7.99977 0 00-8-8zm-8 32h-16v-16h16zM280 360h24v16h-24zM320 360h112v16h-112zM248 408h-32a7.99977 7.99977 0 00-8 8v32a7.99977 7.99977 0 008 8h32a7.99977 7.99977 0 008-8v-32a7.99977 7.99977 0 00-8-8zm-8 32h-16v-16h16zM280 424h24v16h-24zM320 424h112v16h-112z" fill="#16a441" class="color000 svgShape"></path><path d="m448 96h-384a7.99977 7.99977 0 0 0 -8 8v344a7.99977 7.99977 0 0 0 8 8h112a7.99977 7.99977 0 0 0 8-8v-256h264a7.99977 7.99977 0 0 0 8-8v-80a7.99977 7.99977 0 0 0 -8-8zm-280 344h-96v-248h96zm272-264h-368v-64h368z" fill="#16a441" class="color000 svgShape"></path></svg></g></svg>