<svg id="SvgjsSvg1020" width="288" height="288" xmlns="http://www.w3.org/2000/svg" version="1.1" xmlns:xlink="http://www.w3.org/1999/xlink" xmlns:svgjs="http://svgjs.com/svgjs"><defs id="SvgjsDefs1021"></defs><g id="SvgjsG1022"><svg xmlns="http://www.w3.org/2000/svg" width="288" height="288" enable-background="new 0 0 512.309 512.309" viewBox="0 0 512.309 512.309"><path d="M504.809 317.057c-4.143 0-7.5 3.358-7.5 7.5v152.417c0 11.086-9.02 20.105-20.105 20.105h-442.1c-11.085 0-20.104-9.019-20.104-20.105v-33.963c0-4.142-3.357-7.5-7.5-7.5s-7.5 3.358-7.5 7.5v33.963c0 19.357 15.748 35.105 35.104 35.105h442.099c19.357 0 35.105-15.748 35.105-35.105v-152.417c.001-4.142-3.357-7.5-7.499-7.5zM7.5 418.549c4.143 0 7.5-3.358 7.5-7.5v-221.992h152.685c4.143 0 7.5-3.358 7.5-7.5s-3.357-7.5-7.5-7.5h-152.685v-17.205c0-11.086 9.019-20.105 20.104-20.105h132.58c4.143 0 7.5-3.358 7.5-7.5s-3.357-7.5-7.5-7.5h-132.58c-19.356.001-35.104 15.749-35.104 35.106v254.196c0 4.142 3.357 7.5 7.5 7.5zM432.28 226.467c-27.031 27.031-71.016 27.031-98.047 0l-.295-.295c-2.93-2.929-7.678-2.929-10.607 0s-2.929 7.678 0 10.606l.295.295c16.44 16.44 38.036 24.66 59.631 24.66s43.19-8.22 59.631-24.66l15.198-15.199c4.333-4.333 6.719-10.093 6.719-16.22s-2.386-11.887-6.718-16.219l-34.671-34.671c-6.628-6.628-17.41-6.626-24.036 0l-7.378 7.378c-3.195 3.196-4.964 7.445-4.978 11.961l-.005 1.391c-.006 1.791-.737 3.442-2.062 4.649s-3.043 1.78-4.818 1.625c-1.475-.132-2.862-.78-3.908-1.826l-46.811-46.811c-1.047-1.046-1.695-2.434-1.826-3.907-.159-1.785.418-3.496 1.625-4.82s2.858-2.056 4.649-2.062l1.389-.004c4.52-.015 8.769-1.783 11.964-4.978l7.378-7.378c6.626-6.626 6.626-17.408 0-24.035l-34.672-34.672c-8.943-8.942-23.494-8.942-32.439 0l-15.198 15.201c-15.928 15.928-24.7 37.105-24.7 59.63s8.772 43.703 24.7 59.63l28.426 28.426c2.929 2.929 7.677 2.929 10.607 0 2.929-2.929 2.929-7.678 0-10.606l-28.427-28.426c-13.095-13.095-20.307-30.505-20.307-49.024s7.212-35.929 20.308-49.024l15.197-15.199c3.094-3.094 8.131-3.095 11.227 0l34.671 34.671c.778.778.778 2.044 0 2.823l-7.378 7.378c-.375.375-.874.583-1.404.584l-1.389.004c-5.955.019-11.672 2.554-15.685 6.954s-6.012 10.326-5.483 16.259c.444 4.972 2.632 9.653 6.16 13.182l46.812 46.811c3.529 3.529 8.21 5.716 13.182 6.16 5.943.533 11.859-1.469 16.259-5.482s6.936-9.73 6.954-15.683l.005-1.391c.002-.53.209-1.029.585-1.404l7.378-7.378c.776-.778 2.043-.778 2.821 0l34.672 34.672c1.499 1.499 2.324 3.492 2.324 5.612s-.825 4.113-2.325 5.613z" fill="#097d2b" class="color000 svgShape"></path><path d="M49.547 250.425h118.138c4.143 0 7.5-3.358 7.5-7.5s-3.357-7.5-7.5-7.5h-118.138c-4.143 0-7.5 3.358-7.5 7.5s3.357 7.5 7.5 7.5zM49.547 311.793h118.138c4.143 0 7.5-3.358 7.5-7.5s-3.357-7.5-7.5-7.5h-118.138c-4.143 0-7.5 3.358-7.5 7.5s3.357 7.5 7.5 7.5zM457.305 358.162h-340.813c-4.143 0-7.5 3.358-7.5 7.5s3.357 7.5 7.5 7.5h340.813c4.143 0 7.5-3.358 7.5-7.5s-3.358-7.5-7.5-7.5zM49.547 434.53h407.758c4.143 0 7.5-3.358 7.5-7.5s-3.357-7.5-7.5-7.5h-407.758c-4.143 0-7.5 3.358-7.5 7.5s3.357 7.5 7.5 7.5zM49.547 373.162h31.003c4.143 0 7.5-3.358 7.5-7.5s-3.357-7.5-7.5-7.5h-31.003c-4.143 0-7.5 3.358-7.5 7.5s3.357 7.5 7.5 7.5zM462.037.229h-21.977c-4.143 0-7.5 3.358-7.5 7.5s3.357 7.5 7.5 7.5h21.978c19.449 0 35.271 15.823 35.271 35.272v215.232c0 19.449-15.822 35.272-35.271 35.272h-221.582c-19.449 0-35.271-15.823-35.271-35.272v-215.232c0-19.449 15.822-35.272 35.271-35.272h167.642c4.143 0 7.5-3.358 7.5-7.5s-3.357-7.5-7.5-7.5h-167.642c-27.72 0-50.271 22.552-50.271 50.272v215.232c0 27.72 22.552 50.272 50.271 50.272h221.581c27.72 0 50.271-22.552 50.271-50.272v-215.232c.001-27.72-22.551-50.272-50.271-50.272z" fill="#097d2b" class="color000 svgShape"></path></svg></g></svg>