<svg id="SvgjsSvg1039" width="288" height="288" xmlns="http://www.w3.org/2000/svg" version="1.1" xmlns:xlink="http://www.w3.org/1999/xlink" xmlns:svgjs="http://svgjs.com/svgjs"><defs id="SvgjsDefs1040"></defs><g id="SvgjsG1041"><svg xmlns="http://www.w3.org/2000/svg" width="288" height="288" version="1.0" viewBox="0 0 900 900"><g transform="matrix(.1 0 0 -.1 0 900)" fill="#ffffff" class="color000 svgShape"><path d="M2825 8749 c-5 -29 -13 -43 -26 -46 -22 -6 -34 -42 -25 -78 5 -18 13-25 31 -25 21 0 25 -5 25 -30 0 -25 4 -30 25 -30 20 0 25 -5 25 -25 0 -18 5
-25 19 -25 24 0 45 -25 37 -45 -3 -10 3 -17 19 -21 15 -4 25 -13 25 -23 0 -10
12 -24 26 -31 17 -9 24 -20 21 -32 -4 -12 0 -18 13 -18 19 0 34 -25 24 -41 -3
-5 6 -9 21 -9 20 0 27 -6 31 -29 4 -21 13 -31 28 -33 13 -2 22 -11 24 -25 3
-17 10 -23 28 -23 22 0 24 -3 24 -54 0 -49 -2 -55 -22 -58 -14 -2 -24 -12 -28
-28 -4 -16 -14 -26 -28 -28 -14 -2 -22 -10 -22 -23 0 -13 -10 -24 -29 -30 -19
-7 -31 -19 -33 -32 -2 -15 -11 -23 -29 -25 -21 -2 -26 -7 -22 -23 4 -15 -2
-22 -25 -30 -20 -7 -32 -18 -34 -32 -2 -16 -11 -23 -31 -25 -16 -2 -26 -8 -24
-15 8 -22 -13 -47 -39 -47 -14 0 -23 -4 -20 -9 12 -19 -7 -41 -36 -41 -17 0
-27 -4 -23 -10 14 -23 -6 -50 -36 -50 -18 0 -28 -4 -24 -10 10 -16 -14 -40
-40 -40 -16 0 -21 -6 -21 -22 1 -17 -7 -24 -35 -31 -28 -6 -36 -13 -32 -26 5
-19 -20 -31 -66 -31 -19 0 -21 -3 -12 -14 14 -17 -10 -46 -38 -46 -24 0 -45
25 -38 44 4 11 -3 16 -26 18 -24 2 -33 8 -35 25 -2 14 -11 23 -25 25 -16 2
-23 11 -25 31 -3 21 -9 27 -28 27 -23 0 -26 3 -28 33 -1 6 -12 14 -26 17 -18
4 -26 13 -28 33 -3 21 -9 27 -28 27 -19 0 -24 5 -24 25 0 20 -5 25 -24 25 -25
0 -43 30 -31 50 4 6 -6 10 -23 10 -29 0 -48 22 -37 41 3 4 -7 11 -22 15 -51
11 -55 14 -50 34 5 18 0 20 -56 20 -55 0 -59 -1 -41 -14 18 -14 17 -15 -18
-30 -21 -9 -47 -16 -58 -16 -18 0 -20 -6 -20 -55 0 -30 -4 -55 -10 -55 -5 0
-11 -17 -11 -37 -1 -28 -3 -31 -6 -13 -3 14 -9 29 -14 35 -5 5 -9 -51 -9 -144
0 -105 3 -150 11 -146 25 16 38 -30 39 -135 0 -100 1 -106 21 -107 12 -1 23
-4 26 -6 2 -3 7 -39 10 -81 6 -72 7 -76 29 -76 13 0 24 -6 25 -12 0 -7 1 -31
2 -53 2 -36 5 -40 30 -43 23 -3 27 -8 27 -33 0 -24 4 -29 24 -29 19 0 25 -6
29 -32 10 -65 14 -73 38 -78 15 -4 25 -14 27 -28 2 -13 10 -22 21 -22 24 0 45
-25 37 -45 -4 -11 2 -15 24 -15 28 0 34 -8 31 -36 0 -5 18 -14 42 -20 35 -7
42 -13 41 -31 0 -20 4 -23 37 -23 36 0 57 -19 43 -41 -3 -5 6 -9 20 -9 45 0
79 -18 73 -40 -5 -18 0 -20 47 -20 53 0 78 -13 70 -35 -4 -9 16 -14 73 -17 43
-2 89 -10 102 -17 l24 -13 -24 -14 c-21 -11 13 -14 236 -16 252 -3 260 -4 260
-23 0 -13 8 -22 25 -25 18 -4 26 -13 28 -33 3 -21 9 -27 28 -27 23 0 26 -3 28
-32 1 -7 12 -15 26 -18 18 -4 26 -13 28 -33 3 -21 9 -27 28 -27 19 0 24 -5 24
-25 0 -20 5 -25 24 -25 25 0 44 -30 31 -49 -3 -5 7 -11 22 -13 22 -2 28 -8 28
-28 0 -15 6 -25 15 -25 25 -1 42 -16 37 -35 -3 -14 3 -19 25 -24 24 -5 29 -10
25 -25 -3 -13 3 -23 20 -32 13 -7 22 -20 21 -28 -2 -10 8 -20 27 -26 19 -7 29
-17 29 -28 -1 -9 5 -17 12 -17 8 0 17 -13 21 -30 4 -23 11 -30 28 -30 23 0 40
-24 29 -41 -3 -5 6 -9 20 -9 25 0 44 -30 31 -50 -4 -6 6 -10 24 -10 17 0 32
-4 33 -10 0 -5 1 -16 2 -22 1 -7 14 -19 30 -26 21 -9 27 -17 23 -32 -4 -17 0
-20 24 -20 24 0 29 -4 29 -24 0 -18 8 -27 31 -35 24 -8 30 -15 26 -30 -4 -16
1 -21 22 -23 20 -2 27 -9 29 -30 3 -22 9 -28 28 -28 19 0 24 -5 24 -24 0 -18
6 -25 23 -28 16 -2 23 -11 25 -30 3 -22 9 -28 28 -28 19 0 24 -5 24 -25 0 -18
7 -28 25 -35 14 -5 25 -17 25 -28 0 -10 11 -24 25 -30 27 -13 32 -27 13 -35
-7 -3 -3 -6 8 -6 25 -1 46 -23 42 -42 -2 -8 7 -15 20 -17 21 -3 24 -7 26 -34
1 -7 12 -15 26 -18 18 -4 26 -13 28 -33 3 -21 9 -27 28 -27 19 0 24 -5 24 -24
0 -19 6 -25 28 -28 21 -2 28 -9 30 -30 3 -22 9 -28 28 -28 19 0 24 -5 24 -24
0 -19 6 -25 28 -28 21 -2 28 -9 30 -30 2 -19 10 -28 25 -30 14 -2 23 -11 25
-25 2 -16 10 -23 27 -23 25 0 38 -21 29 -45 -5 -11 1 -15 19 -15 21 0 26 -6
29 -27 2 -20 9 -29 26 -31 21 -3 26 -12 23 -39 -1 -6 11 -13 26 -15 20 -2 28
-9 28 -23 0 -11 8 -28 19 -37 10 -10 16 -24 12 -33 -4 -11 1 -15 18 -15 26 0
51 -24 41 -40 -3 -5 2 -10 14 -10 20 0 37 -32 26 -49 -3 -5 9 -11 27 -13 27
-2 33 -7 32 -25 0 -18 5 -23 23 -23 19 0 23 -5 23 -30 0 -27 3 -30 30 -30 25
0 30 -4 30 -25 0 -20 5 -25 25 -25 21 0 25 -5 25 -29 0 -25 4 -30 28 -33 19
-2 28 -9 30 -25 3 -17 10 -23 28 -23 23 0 29 -12 25 -47 -1 -6 11 -13 26 -15
20 -2 29 -9 31 -25 2 -14 11 -23 25 -25 15 -2 23 -11 25 -30 2 -19 10 -28 25
-30 16 -2 23 -11 25 -30 3 -22 9 -28 28 -28 19 0 24 -5 24 -26 0 -18 6 -28 20
-31 13 -3 20 -12 18 -22 -2 -10 7 -21 25 -29 22 -9 28 -17 24 -31 -3 -15 1
-21 17 -23 13 -2 22 -11 24 -25 2 -14 10 -23 21 -23 24 0 45 -25 38 -44 -4
-10 2 -16 21 -18 19 -2 28 -10 30 -25 2 -15 13 -25 28 -29 17 -4 24 -13 24
-29 0 -18 6 -24 28 -27 19 -2 28 -9 30 -25 2 -15 13 -25 28 -29 17 -4 24 -13
24 -30 0 -19 5 -24 25 -24 24 0 27 -4 29 -40 1 -9 13 -16 30 -18 24 -3 27 -7
24 -27 -4 -20 0 -24 21 -27 20 -2 27 -9 29 -30 3 -22 9 -28 27 -28 18 0 24 -6
27 -27 2 -20 9 -29 24 -31 30 -4 38 -52 17 -104 l-17 -42 -12 35 c-11 29 -12
1 -12 -186 0 -121 2 -212 5 -202 7 28 37 16 44 -18 4 -17 7 -67 8 -112 1 -76
3 -83 21 -83 11 0 21 -6 22 -12 0 -7 2 -17 3 -23 2 -5 3 -29 4 -53 1 -35 4
-42 19 -40 11 2 17 -3 16 -15 -1 -9 4 -17 12 -17 10 0 14 -14 14 -52 0 -46 2
-50 13 -33 10 12 16 14 21 7 4 -7 5 -16 2 -21 -3 -5 1 -11 9 -15 8 -3 15 -17
15 -31 0 -20 5 -25 25 -25 21 0 25 -5 25 -28 0 -23 4 -28 23 -28 17 1 23 -5
25 -26 2 -18 11 -28 27 -32 15 -4 25 -15 27 -29 2 -14 11 -23 27 -25 18 -3 22
-8 18 -28 -4 -21 0 -24 23 -24 29 0 56 -23 46 -39 -4 -5 8 -11 26 -13 28 -2
34 -8 36 -30 3 -23 8 -28 30 -28 36 0 56 -14 49 -34 -5 -13 1 -16 36 -16 50 0
83 -19 74 -44 -5 -13 1 -16 44 -16 56 0 93 -15 86 -35 -4 -10 18 -14 97 -17
70 -2 109 -8 121 -18 16 -13 16 -15 -1 -27 -15 -11 11 -13 156 -13 134 0 171
3 162 12 -17 17 14 48 50 48 21 0 28 5 28 20 0 11 5 29 12 40 10 15 9 38 0
106 -7 48 -15 91 -18 96 -3 4 -16 8 -29 8 -23 0 -40 24 -29 41 3 5 -8 12 -25
15 -24 5 -31 12 -31 30 0 19 -5 24 -25 24 -24 0 -27 4 -29 40 -1 9 -13 16 -28
18 -22 3 -28 9 -28 28 0 19 -5 24 -24 24 -25 0 -39 20 -30 44 4 10 -3 16 -23
18 -20 2 -28 8 -28 23 0 13 -8 22 -25 25 -24 5 -25 8 -25 85 l0 80 30 5 c22 4
30 11 30 25 0 13 8 22 25 25 19 4 25 11 25 30 0 22 5 25 36 28 30 3 36 6 32
22 -4 14 2 20 24 24 22 5 29 12 29 29 -1 17 7 24 37 31 22 6 36 15 33 22 -7
17 14 34 42 34 17 0 22 4 18 15 -7 18 19 45 44 45 12 0 20 8 22 23 2 16 11 23
31 25 21 3 27 8 23 19 -8 20 11 43 35 43 11 0 19 9 21 22 2 16 11 24 30 26 21
3 27 9 30 30 2 19 10 28 28 32 14 3 25 11 26 18 1 6 2 17 3 22 0 6 37 10 86
10 83 0 85 0 85 -24 0 -19 6 -25 28 -28 21 -2 28 -9 30 -30 3 -22 9 -28 28
-28 19 0 24 -5 24 -25 0 -18 5 -25 20 -25 20 0 40 -27 33 -46 -2 -7 8 -15 23
-18 19 -5 25 -12 21 -25 -3 -13 3 -22 19 -30 13 -6 24 -19 24 -28 0 -10 10
-23 23 -28 13 -6 21 -17 19 -28 -2 -12 4 -17 22 -17 26 0 47 -25 39 -47 -4
-10 23 -13 114 -12 65 1 110 3 101 6 -22 5 -24 33 -3 33 13 0 15 44 15 340 0
296 -2 340 -15 340 -12 0 -15 13 -15 55 0 52 -1 55 -25 55 -20 0 -25 5 -25 24
0 58 -12 86 -36 86 -22 0 -24 4 -24 55 0 54 0 55 -30 55 -25 0 -30 4 -30 25 0
20 -5 25 -24 25 -25 0 -44 30 -31 49 3 5 -7 11 -22 13 -20 2 -29 10 -33 28 -4
16 -14 26 -28 28 -21 3 -26 12 -23 39 1 6 -13 13 -31 15 -25 2 -34 9 -38 28
-4 15 -15 27 -30 30 -18 4 -25 13 -24 28 0 19 -5 22 -41 22 -43 0 -68 17 -63
41 2 10 -10 15 -37 17 -45 4 -68 19 -61 39 4 10 -9 13 -57 13 -69 0 -83 6 -88
35 -4 18 -13 20 -104 22 -55 2 -110 5 -122 8 -25 6 -31 30 -10 38 6 3 -58 5
-143 5 -85 0 -149 -2 -142 -5 17 -7 15 -30 -4 -37 -34 -13 -54 -7 -54 18 0 18
-6 25 -22 28 -17 2 -24 11 -26 31 -3 21 -9 27 -28 27 -13 0 -25 6 -25 13 -1 6
-2 19 -3 27 0 8 -11 16 -23 18 -16 2 -23 10 -23 26 0 15 -9 27 -25 34 -27 13
-32 27 -13 35 7 3 3 6 -9 6 -28 1 -54 27 -47 46 4 10 0 15 -15 15 -20 0 -23 3
-25 33 -1 6 -12 14 -26 17 -18 4 -26 13 -28 33 -3 21 -9 27 -28 27 -19 0 -24
5 -24 24 0 19 -6 25 -27 28 -22 2 -29 9 -31 31 -3 21 -9 27 -28 27 -19 0 -24
5 -24 24 0 19 -6 25 -27 28 -23 2 -28 8 -28 31 1 23 -3 27 -27 27 -23 0 -28 4
-28 25 0 20 -5 25 -24 25 -25 0 -39 20 -30 44 4 10 -3 16 -23 18 -22 2 -28 8
-27 26 0 14 -5 22 -16 22 -23 0 -42 24 -34 43 4 11 -2 16 -23 19 -21 2 -29 9
-31 28 -2 13 -13 31 -23 38 -16 11 -17 17 -8 28 9 11 7 14 -9 14 -32 0 -52 11
-52 29 0 9 -9 22 -21 29 -14 9 -19 20 -16 33 4 15 0 19 -18 19 -25 0 -50 24
-41 39 4 5 -4 11 -16 13 -16 2 -24 11 -26 30 -3 21 -9 27 -30 30 -19 2 -28 10
-30 25 -2 14 -11 23 -25 25 -15 2 -23 11 -25 30 -3 21 -9 27 -30 30 -19 2 -28
10 -30 25 -2 14 -11 23 -25 25 -16 2 -23 11 -25 31 -3 21 -9 27 -28 27 -23 0
-26 3 -28 33 -1 6 -12 14 -26 17 -18 4 -26 13 -28 32 -2 19 -10 28 -25 30 -15
2 -23 11 -25 30 -2 19 -10 28 -25 30 -16 2 -22 10 -21 26 0 16 -6 24 -23 28
-13 4 -23 14 -23 23 0 9 -14 24 -31 34 -25 14 -29 20 -20 31 10 12 8 15 -11
18 -14 2 -24 11 -26 23 -2 13 -15 26 -34 33 -24 9 -29 16 -25 32 4 16 0 20
-18 20 -22 0 -40 24 -30 40 3 5 -8 11 -25 15 -23 5 -30 12 -30 31 0 19 -5 24
-25 24 -20 0 -27 6 -31 30 -5 23 -12 30 -30 30 -19 0 -24 5 -24 25 0 20 -5 25
-25 25 -24 0 -27 4 -29 40 -1 9 -13 16 -30 18 -24 3 -27 7 -24 27 4 20 0 24
-21 27 -20 2 -27 9 -29 31 -3 21 -9 27 -28 27 -24 0 -28 8 -25 43 2 12 -5 17
-23 17 -21 0 -26 5 -26 25 0 20 -5 25 -24 25 -23 0 -41 23 -31 40 3 5 -4 15
-15 23 -12 8 -20 20 -18 28 2 7 -6 15 -17 17 -33 7 -47 23 -34 38 9 11 7 14
-9 14 -22 0 -44 22 -40 41 2 7 -8 15 -22 19 -15 3 -26 14 -28 27 -2 14 -12 23
-25 25 -15 2 -23 11 -25 30 -3 21 -9 27 -30 30 -19 2 -28 10 -30 25 -2 14 -11
23 -25 25 -15 2 -23 11 -25 30 -3 21 -9 27 -30 30 -19 2 -28 10 -30 25 -2 14
-11 23 -25 25 -16 2 -23 11 -25 31 -3 21 -9 27 -28 27 -19 0 -24 5 -24 24 0
19 -6 25 -27 28 -22 2 -28 8 -28 28 0 17 -7 27 -20 30 -11 3 -21 15 -23 27 -2
14 -13 23 -34 27 -25 5 -30 10 -26 30 3 15 -2 27 -14 35 -11 7 -18 17 -15 24
2 7 -10 17 -27 22 -23 8 -31 16 -30 33 0 15 -5 22 -18 22 -17 0 -20 4 -22 33
-1 6 -12 14 -26 17 -18 4 -26 13 -28 33 -3 21 -9 27 -27 27 -23 0 -40 24 -29
41 3 5 -6 9 -20 9 -25 0 -26 3 -26 54 0 29 5 67 11 85 11 31 33 41 42 19 3 -7
5 46 6 117 0 124 -6 167 -22 166 -37 -4 -37 -4 -37 131 0 117 -2 130 -14 112
-14 -19 -15 -19 -21 1 -4 11 -11 28 -16 38 -5 9 -7 28 -3 41 9 38 -4 66 -32
66 -22 0 -24 3 -24 55 0 55 0 55 -31 55 -30 0 -31 1 -26 33 5 31 4 34 -19 29
-17 -3 -24 0 -24 12 0 9 -6 34 -12 56 -10 31 -18 40 -35 40 -22 0 -27 9 -24
37 1 6 -11 13 -26 15 -22 2 -29 9 -31 30 -3 21 -9 27 -30 30 -21 2 -27 8 -26
26 0 16 -5 22 -22 22 -28 0 -55 26 -48 45 5 12 -2 15 -29 15 -36 0 -64 21 -52
40 4 6 -6 10 -25 10 -45 0 -72 17 -65 40 5 17 0 19 -57 22 -58 3 -63 5 -62 26
1 21 -3 22 -63 22 -49 0 -63 3 -63 15 0 13 -37 15 -274 15 l-274 0 -7 -41z" fill="#ffffff" class="color000 svgShape"></path><path d="M2094 5268 c1 -19 -7 -25 -39 -33 -22 -5 -40 -16 -41 -22 -2 -29 -5
-33 -19 -33 -10 0 -15 -7 -13 -17 2 -12 -3 -18 -14 -17 -14 1 -18 -6 -18 -35
0 -20 -4 -41 -9 -46 -5 -6 -11 -21 -13 -34 -4 -32 -25 -38 -31 -9 -2 13 -5
-60 -5 -162 -1 -123 2 -180 8 -170 5 8 11 65 12 125 l2 110 5 -120 c4 -66 12
-130 18 -141 16 -29 8 -34 -48 -34 -39 0 -47 -3 -43 -15 11 -28 -16 -45 -68
-45 -39 0 -49 -3 -45 -14 9 -23 -15 -36 -65 -36 -38 0 -46 -3 -42 -15 10 -25
-16 -45 -58 -45 -25 0 -37 -4 -33 -10 11 -18 -16 -40 -49 -40 -28 0 -32 -3
-31 -27 0 -24 -4 -28 -32 -31 -24 -2 -33 -9 -35 -25 -3 -19 -9 -22 -48 -22
-40 0 -45 2 -44 23 0 19 -4 22 -36 22 -40 0 -66 20 -57 44 5 12 -5 16 -46 18
-47 3 -52 5 -51 26 0 19 -4 22 -42 22 -50 0 -82 23 -63 46 10 12 -8 14 -114
14 -113 0 -126 -2 -120 -16 8 -22 -22 -44 -58 -44 -21 0 -28 -5 -31 -22 -2
-16 -11 -24 -29 -26 -22 -3 -25 -7 -21 -32 4 -28 2 -30 -27 -30 -27 0 -31 -4
-32 -27 -1 -16 -1 -32 0 -37 1 -4 -1 -17 -5 -28 -4 -14 -12 -19 -29 -15 -21 4
-23 1 -18 -23 4 -25 2 -29 -26 -35 -29 -6 -31 -9 -31 -55 0 -43 -3 -49 -22
-52 -19 -2 -25 -12 -32 -55 -7 -40 -14 -53 -27 -53 -24 0 -30 -13 -31 -61 0
-32 -5 -42 -22 -49 -11 -4 -23 -6 -26 -5 -3 2 -6 -8 -5 -23 0 -19 -6 -27 -25
-32 -22 -5 -25 -12 -28 -58 -2 -37 -7 -52 -18 -52 -12 0 -14 -31 -14 -190 0
-125 4 -190 10 -190 6 0 21 -9 33 -20 18 -18 20 -22 7 -30 -11 -7 -3 -10 26
-10 42 0 71 -20 59 -39 -6 -10 15 -18 65 -23 17 -2 25 -9 25 -23 0 -16 8 -21
45 -25 37 -4 45 -9 50 -30 5 -21 13 -26 48 -30 l43 -5 2 -353 2 -352 -42 0
c-35 0 -41 -3 -36 -16 8 -22 -22 -44 -58 -44 -21 0 -28 -5 -31 -22 -3 -20 -10
-23 -50 -26 -36 -2 -46 -6 -41 -18 8 -22 -16 -44 -48 -44 -21 0 -28 -5 -31
-22 -2 -15 -11 -24 -25 -26 -17 -3 -23 -10 -23 -28 0 -15 -6 -24 -15 -24 -13
0 -15 -27 -15 -180 0 -153 2 -180 15 -180 21 0 19 -18 -2 -23 -17 -4 -17 -5 0
-6 12 -1 17 -10 17 -31 0 -27 3 -30 31 -30 30 0 31 -1 25 -35 -8 -42 7 -75 34
-75 16 0 20 -7 20 -31 0 -23 4 -30 14 -26 18 7 40 -18 33 -38 -4 -8 -2 -17 3
-20 6 -4 10 -15 10 -26 0 -14 7 -19 25 -19 24 0 25 -3 25 -54 0 -52 1 -55 27
-58 23 -2 28 -8 29 -33 2 -52 3 -55 21 -48 12 5 15 2 10 -10 -4 -11 -1 -17 8
-17 10 0 15 -10 15 -30 0 -25 4 -30 25 -30 21 0 25 -5 25 -30 0 -24 6 -33 26
-40 21 -8 24 -13 14 -25 -10 -12 -4 -14 36 -17 42 -3 49 -6 54 -28 l6 -25 134
0 c127 0 135 1 139 20 5 28 19 35 70 35 36 0 41 2 32 14 -15 18 2 31 53 40 21
4 35 10 32 13 -3 3 -1 14 5 24 7 14 21 19 53 19 38 0 42 3 42 23 -1 18 4 22
29 22 25 0 30 -4 29 -22 0 -18 5 -23 26 -23 29 0 56 -23 46 -39 -7 -11 17 -21
50 -21 19 0 24 -5 24 -25 0 -22 4 -25 39 -25 39 0 64 -17 59 -41 -2 -10 11
-16 42 -19 39 -4 45 -8 44 -27 -1 -21 4 -23 43 -23 54 0 83 -14 83 -40 0 -16
9 -19 53 -22 l52 -3 -3 -40 c-2 -22 -6 -89 -11 -150 l-7 -110 -2 113 c-1 72
-6 111 -12 107 -13 -8 -13 -305 0 -325 7 -11 10 -7 11 20 2 34 2 34 6 5 3 -16
11 -37 18 -45 8 -8 15 -38 17 -65 3 -46 5 -50 31 -53 21 -3 27 -9 27 -28 0
-19 5 -24 25 -24 16 0 25 -6 25 -15 0 -13 71 -15 575 -15 504 0 575 2 575 15
0 9 9 15 24 15 18 0 26 6 28 22 2 14 12 24 28 28 23 5 26 12 32 75 4 39 6 160
5 270 l-2 200 60 5 c50 4 60 8 64 25 5 29 19 35 80 35 44 0 51 2 42 14 -15 18
4 33 49 38 25 2 36 8 39 23 4 26 19 35 59 35 27 0 32 3 32 25 0 20 5 25 24 25
33 0 57 10 50 21 -10 17 17 39 48 39 17 0 28 5 27 12 -4 32 2 39 29 36 19 -2
27 -9 27 -23 0 -16 8 -21 45 -25 37 -4 46 -9 48 -27 3 -22 13 -27 67 -35 13
-3 20 -11 19 -26 0 -19 5 -22 40 -22 48 0 62 -8 67 -35 4 -19 12 -20 139 -20
108 0 134 3 132 14 -5 23 19 41 58 41 32 0 36 3 36 23 -1 16 5 23 22 25 17 3
22 10 22 33 0 24 4 29 25 29 21 0 25 5 25 30 0 17 5 30 10 30 6 0 10 10 10 21
0 16 5 20 20 16 17 -4 19 0 17 32 -2 32 1 36 25 39 25 3 27 7 30 55 3 45 6 52
25 55 22 3 25 11 36 92 2 8 12 15 25 14 18 0 22 5 22 28 0 17 5 28 14 28 9 0
12 7 9 20 -4 15 0 20 16 20 18 0 21 5 19 33 -3 28 0 32 24 35 25 3 27 7 30 55
3 45 6 52 28 57 l25 6 0 159 0 160 -27 3 c-23 3 -28 8 -28 32 0 22 -5 29 -22
32 -15 2 -24 11 -26 26 -3 17 -10 22 -31 22 -32 0 -56 22 -48 44 5 12 -5 16
-41 18 -40 3 -47 6 -50 26 -3 17 -10 22 -31 22 -36 0 -66 22 -58 44 5 13 -1
16 -36 16 l-42 0 2 352 2 353 43 5 c35 4 43 9 48 30 5 21 13 26 50 30 37 4 45
9 45 25 0 14 8 21 25 23 54 6 69 12 64 26 -7 18 25 36 62 36 23 0 25 2 14 16
-11 13 -10 16 8 21 15 3 22 14 24 37 2 26 8 32 31 34 l27 3 -2 162 -3 162 -27
3 c-27 3 -28 6 -28 57 0 51 -1 54 -27 57 -20 2 -29 10 -33 28 -4 16 -14 26
-27 28 -19 3 -22 11 -25 55 -3 45 -6 52 -28 57 -22 5 -25 11 -22 44 4 41 -11
66 -39 66 -16 0 -19 8 -19 43 0 28 -3 37 -9 28 -11 -17 -31 -5 -31 19 0 10 -5
22 -11 26 -6 3 -8 16 -5 29 5 19 2 22 -19 17 -16 -3 -26 0 -26 9 -1 8 -3 21
-4 29 -1 8 -3 27 -4 42 -1 21 -7 27 -28 30 -23 2 -28 8 -28 31 1 23 -3 27 -27
27 -26 0 -33 8 -29 38 1 7 -10 12 -27 12 -37 0 -67 22 -59 44 6 14 -7 16 -120
16 -114 0 -124 -1 -112 -16 19 -23 -13 -44 -69 -44 -24 0 -41 -4 -38 -9 15
-24 -7 -41 -55 -41 -39 0 -47 -3 -43 -15 10 -25 -16 -45 -56 -45 -33 0 -37 -3
-33 -20 4 -14 -1 -21 -20 -25 -42 -11 -72 -2 -75 23 -3 17 -10 22 -32 22 -29
0 -49 28 -35 50 4 6 -8 10 -28 10 -36 0 -64 21 -52 40 4 6 -8 10 -33 10 -42 0
-68 20 -59 44 5 12 -5 16 -46 18 -47 3 -52 5 -51 26 1 20 -4 22 -43 22 -57 0
-86 15 -78 41 6 17 1 19 -47 19 l-53 0 3 170 c4 162 -6 380 -15 353 -7 -20
-23 -15 -23 6 0 10 -7 21 -15 25 -8 3 -15 14 -15 24 0 15 -10 21 -40 26 -43 7
-63 32 -39 47 8 5 -214 9 -537 9 l-551 0 1 -22z m825 -1367 c8 -5 11 -16 8
-24 -5 -12 8 -16 67 -19 78 -4 115 -20 95 -44 -9 -11 2 -14 58 -16 63 -3 68
-5 67 -25 0 -18 5 -23 26 -23 35 0 65 -23 57 -43 -5 -13 2 -17 36 -19 35 -2
43 -7 45 -25 3 -18 10 -23 32 -23 29 0 49 -28 35 -49 -3 -5 7 -11 22 -13 20
-2 29 -9 31 -25 3 -17 10 -23 28 -23 23 0 29 -12 25 -47 -1 -8 9 -13 24 -13
20 0 25 -5 25 -24 0 -58 12 -86 36 -86 19 0 24 -5 24 -25 0 -18 7 -26 25 -31
23 -6 25 -11 25 -61 0 -42 3 -54 13 -50 31 12 40 -11 45 -113 3 -56 8 -96 12
-89 6 9 12 9 24 -4 14 -13 16 -49 16 -254 0 -223 -9 -313 -30 -313 -4 0 -11 6
-13 13 -3 6 -6 -19 -8 -58 -1 -38 -3 -74 -4 -80 -2 -5 -3 -16 -4 -22 0 -7 -13
-13 -27 -13 -25 0 -26 -2 -22 -52 3 -51 2 -53 -24 -56 -24 -3 -28 -8 -28 -33
0 -16 -4 -29 -8 -29 -5 0 -8 -10 -8 -22 1 -17 -4 -23 -20 -22 -18 0 -21 -5
-20 -30 1 -27 -3 -31 -27 -34 -15 -2 -27 -9 -26 -15 3 -29 -3 -37 -27 -37 -16
0 -24 -5 -21 -12 7 -20 -12 -48 -33 -48 -12 0 -20 -8 -22 -22 -2 -17 -11 -24
-31 -26 -21 -3 -27 -8 -23 -19 9 -23 -12 -43 -46 -43 -17 0 -28 -5 -27 -12 4
-31 -3 -37 -43 -40 -30 -2 -42 -7 -40 -17 5 -26 -20 -41 -68 -41 -42 0 -47 -2
-46 -22 1 -21 -4 -23 -74 -28 -59 -4 -74 -8 -72 -20 8 -36 -22 -40 -344 -40
-323 0 -340 2 -332 41 2 11 -17 15 -77 19 -72 4 -80 7 -80 25 0 17 -8 21 -50
25 -42 4 -50 8 -55 30 -5 21 -12 25 -48 28 -39 3 -47 9 -43 39 1 6 -13 13 -31
15 -27 2 -34 8 -36 30 -3 21 -9 27 -30 30 -19 2 -28 10 -30 25 -2 14 -11 23
-25 25 -16 2 -23 11 -25 31 -3 21 -9 27 -28 27 -22 0 -28 9 -25 37 1 6 -11 13
-26 15 -24 3 -28 7 -26 31 1 22 -2 27 -22 27 -21 0 -24 6 -30 55 -7 49 -10 55
-31 55 -21 0 -23 5 -26 52 -3 46 -6 53 -28 58 -23 6 -25 10 -26 71 -1 91 -2
97 -21 95 -27 -2 -31 36 -32 307 l-1 247 25 0 c22 0 25 4 26 38 4 132 7 165
20 173 8 5 20 7 27 4 9 -3 12 11 12 49 0 49 2 54 25 60 18 5 25 13 25 31 0 19
5 25 21 25 18 0 20 2 9 16 -11 13 -10 16 8 21 17 4 22 13 22 39 0 30 3 34 26
34 16 0 24 5 21 13 -7 19 12 47 33 47 12 0 20 8 22 23 2 15 11 23 30 25 19 2
25 8 21 18 -8 21 15 44 44 44 13 0 23 5 22 13 -4 32 2 37 47 37 39 0 45 2 35
14 -10 11 -7 17 11 30 12 9 35 16 50 16 20 0 27 5 30 23 3 20 9 22 64 25 56 3
61 5 57 22 -7 26 30 40 103 40 39 0 53 3 48 12 -4 6 1 17 11 25 15 10 78 13
289 13 149 0 277 -4 285 -9z" fill="#ffffff" class="color000 svgShape"></path><path d="M2453 3744 c-7 -3 -9 -12 -6 -20 8 -21 -38 -34 -121 -34 -69 0 -73
-1 -72 -22 1 -18 -5 -24 -29 -26 -58 -5 -75 -12 -75 -31 0 -21 -19 -31 -59
-31 -22 0 -27 -4 -27 -22 1 -17 -6 -24 -29 -28 -21 -4 -31 -12 -35 -30 -5 -20
-13 -26 -42 -28 -29 -2 -35 -7 -31 -21 3 -12 -2 -20 -15 -23 -13 -4 -22 -16
-24 -34 -2 -21 -9 -30 -25 -32 -15 -2 -23 -11 -25 -30 -2 -19 -10 -28 -25 -30
-15 -2 -23 -10 -23 -23 0 -11 -6 -22 -14 -25 -8 -3 -12 -13 -9 -25 4 -14 0
-19 -16 -19 -17 0 -21 -6 -21 -35 0 -19 -4 -35 -10 -35 -5 0 -10 -8 -10 -18 0
-26 -11 -34 -27 -21 -11 9 -13 1 -13 -47 0 -82 -10 -134 -25 -134 -8 0 -16 6
-18 13 -3 6 -6 -90 -6 -214 l-1 -227 25 -6 c24 -6 25 -9 25 -85 l0 -79 30 -7
c27 -6 29 -10 32 -58 3 -45 6 -52 28 -57 19 -5 25 -12 23 -32 -1 -21 2 -24 22
-20 17 3 25 -2 30 -17 3 -11 4 -25 1 -30 -3 -5 1 -14 10 -21 8 -7 13 -19 10
-27 -3 -8 2 -13 13 -13 24 0 45 -25 37 -45 -3 -10 1 -15 13 -15 32 0 51 -11
51 -29 0 -12 12 -21 38 -27 27 -7 37 -14 37 -29 0 -16 8 -21 40 -25 32 -4 41
-9 43 -27 3 -20 9 -23 46 -23 46 0 72 -19 62 -45 -4 -12 5 -15 55 -15 67 0
104 -14 95 -36 -5 -12 33 -14 249 -14 216 0 254 2 249 14 -8 22 28 36 94 36
56 0 60 1 55 21 -7 27 11 39 64 39 35 0 42 3 45 23 2 18 10 23 41 25 31 3 37
7 37 27 0 19 7 24 39 30 28 4 38 11 35 20 -6 15 25 35 55 35 14 0 19 5 15 15
-8 21 14 45 40 45 17 0 18 2 6 10 -13 9 -11 13 9 29 13 10 21 23 17 29 -12 20
6 44 30 39 21 -4 24 0 24 23 0 21 6 29 25 34 22 6 25 11 25 55 0 46 2 49 30
55 l30 6 0 75 c0 41 4 83 9 93 5 9 13 26 17 37 6 19 7 18 14 -5 4 -16 9 8 13
69 14 192 5 316 -23 324 -20 5 -30 52 -30 147 0 41 -4 60 -9 51 -10 -16 -31
-6 -31 15 0 8 -4 14 -10 14 -5 0 -10 15 -10 34 0 26 -4 33 -17 32 -14 -1 -20
10 -27 46 -8 40 -13 47 -35 50 -20 2 -27 9 -29 30 -2 19 -10 28 -25 30 -15 2
-23 11 -25 30 -2 19 -10 28 -25 30 -14 2 -22 10 -22 23 0 14 -8 21 -30 25 -21
4 -31 12 -35 30 -4 18 -14 26 -35 30 -23 4 -30 11 -29 28 0 18 -5 22 -32 22
-45 0 -64 9 -64 30 0 20 -19 30 -59 30 -35 0 -55 18 -40 37 9 11 -2 13 -63 13
-75 0 -138 14 -138 31 0 5 6 9 13 10 6 0 3 4 -8 9 -21 9 -341 12 -362 4z" fill="#ffffff" class="color000 svgShape"></path></g></svg></g></svg>