<svg id="SvgjsSvg1001" width="288" height="288" xmlns="http://www.w3.org/2000/svg" version="1.1" xmlns:xlink="http://www.w3.org/1999/xlink" xmlns:svgjs="http://svgjs.com/svgjs"><defs id="SvgjsDefs1002"></defs><g id="SvgjsG1008" transform="matrix(0.9167,0,0,0.9167,12.010719925308223,12.021855746185793)"><svg xmlns="http://www.w3.org/2000/svg" width="288" height="288" version="1.0" viewBox="0 0 900 900"><g transform="matrix(.1 0 0 -.1 0 900)" fill="#ffffff" class="color000 svgShape"><path d="M2100 8936c0-9-12-16-32-18-24-2-32-8-30-19 3-23-17-37-58-41-26-2-35-8-35-22 0-21-16-32-57-40-20-5-25-10-21-26 4-16-1-23-25-31-21-7-31-18-36-40-4-23-11-29-31-29-18 0-25-5-25-19 0-11-7-26-15-35-8-8-15-24-15-35 0-14-6-21-19-21-12 0-21-9-24-27-15-74-24-98-37-98-8 0-18-9-22-20-9-28-9-547 0-561 4-6 17-14 28-18 17-5 24-18 30-63 8-49 12-58 34-63 19-4 26-13 28-38 2-18 8-30 13-26 15 9 40-17 34-36-4-13 3-21 26-29 24-8 30-15 26-30-4-15 2-20 30-26 31-5 34-9 30-31-4-21-1-24 28-24 36 0 60-21 51-45-4-12 3-15 32-15 46 0 78-20 69-44-6-14 2-16 58-16 35 0 84-6 107-14 73-24 221-29 328-11 52 9 123 19 156 22 55 5 61 7 56 25-7 27 13 38 70 38 42 0 46 2 41 21-7 26 11 39 54 39 25 0 31 4 27 15-9 23 15 45 48 45 24 0 28 3 23 19-6 20 9 37 40 43 11 2 19 10 17 17-2 8 4 21 13 31 9 10 15 21 14 26-5 30 3 44 26 44 21 0 25 5 25 28 0 15 5 33 12 40 7 7 9 12 5 12-4 0-2 10 4 22 11 21 12 21 25 3 12-17 14-9 15 61 1 43 4 92 8 109 7 34 37 46 44 18 3-10 5 53 6 140 0 86-1 157-4 157-3 0-10-10-14-22-9-22-9-22-16-3-4 11-11 29-16 40-5 11-10 54-11 95-3 70-4 74-28 80-17 4-26 14-28 30-9 81-12 90-38 90-19 0-26 6-30 29-4 21-13 31-28 33-16 2-22 11-24 36-3 28-7 32-32 32-27 0-46 22-34 41 3 5-8 12-25 15-34 7-53 25-49 45 2 10-10 15-37 17-46 4-68 19-60 40 3 8-3 16-15 19-11 3-20 12-20 19 0 12-58 14-345 14-293 0-345-2-345-14zm545-388c15-7 24-18 23-27-3-11 8-19 36-26 29-8 42-17 46-33 3-13 16-28 30-35 14-7 25-19 25-27 0-8 5-21 12-28 7-7 10-28 7-50-2-20-2-31 2-24 3 6 12 12 19 12 15 0 28-27 19-41-3-5 0-9 5-9 12 0 15-129 5-204-6-43-9-47-30-43-23 4-24 2-24-59 0-62-1-64-26-64-16 0-24-5-21-12 8-23-13-48-39-48-16 0-24-5-21-12 11-31-13-48-65-48-42 0-49-2-39-14 10-11 7-17-11-30-18-13-51-16-168-16-154 0-190 9-177 44 5 13-1 16-37 16-46 0-72 19-63 44 4 11-3 16-26 18-28 3-32 7-35 36-2 24-8 32-23 32-18 0-23 10-20 38 1 6-3 12-10 12-8 0-9 13-5 43 3 23 2 49-4 57-6 10-10 11-10 3 0-26-19-12-25 20-4 17-12 47-18 65-9 25-8 37 1 52 7 11 12 26 12 34 0 21 21 31 31 15 6-9 9 1 10 31 2 44 4 72 7 98 1 6 11 12 21 12 13 0 21 8 23 22 2 12 12 27 24 33 11 6 19 15 17 22-5 15 36 43 64 43 15 0 23 7 25 22 4 31 31 35 235 37 113 1 181-3 198-11zM6240 8936c0-9-12-16-27-18-19-2-27-8-25-19 3-23-18-37-63-41-35-3-40-6-37-25 3-18-4-24-36-32-30-9-38-16-38-33 1-15-6-24-24-28-14-3-26-15-29-25-5-28-20-45-41-45-11 0-20-10-23-30-5-23-12-30-31-30-28 0-36-16-36-71 0-35-3-41-30-50l-30-11 0-84c0-49-4-84-10-84-5 0-10-13-10-30 0-32-9-37-28-18-9 9-12-15-12-109 0-119 0-121 24-127 19-5 24-14 30-52 3-26 6-70 6-99 0-47 2-52 23-51 19 1 23-6 31-56 8-51 12-58 32-58 23 0 34-17 34-51 0-11 7-22 15-25 9-4 14-13 13-22-2-10 7-18 22-22 18-4 26-14 28-33 3-21 9-27 26-27 28 0 50-24 42-45-4-11 2-15 27-15 43 0 61-13 54-39-5-19-1-21 43-21 50 0 77-18 66-45-4-12 6-15 58-15 35 0 83-7 107-16 61-23 303-23 374 0 28 9 81 16 119 16 62 0 67 2 55 16-11 14-10 18 6 30 10 8 36 14 58 14 32 0 38 3 33 16-10 25 12 44 50 44 29 0 33 3 31 22-1 17 5 24 31 31 18 6 32 15 31 21-3 26 2 34 27 40 14 4 23 12 21 19-7 20 12 47 33 47 15 0 20 7 20 29 0 23 5 30 22 33 19 2 24 13 33 57 7 40 16 57 32 64 31 14 35 42 35 280 1 252-8 366-26 341-11-14-15-11-29 28-9 24-17 54-17 66 0 15-4 20-15 16-9-4-17 1-21 12-3 11-12 31-20 47-8 15-12 32-9 37 3 6-5 10-19 10-26 0-47 25-39 48 3 7-7 15-26 18-29 6-46 27-35 45 3 5-8 12-25 15-34 7-53 25-49 45 2 10-10 15-37 17-45 4-66 18-63 41 2 11-6 17-24 19-16 2-28 9-28 18 0 12-51 14-340 14-289 0-340-2-340-14zm547-389c16-7 23-17 20-29-4-13 0-18 13-18 32 0 71-23 68-39-2-9 6-21 17-26 11-6 21-21 23-33 2-14 10-22 23-22 10 0 20-6 21-12 3-22 5-52 7-84 1-23 6-31 18-30 10 0 19-7 21-19 2-11 8-29 13-41 7-14 6-42-3-94-13-71-31-100-41-63-3 10-5-6-6-34 0-29-5-53-11-53-5 0-7-7-4-15 8-20-13-45-31-39-9 4-15-5-17-28-3-29-7-33-35-36-23-2-30-7-26-18 9-25-17-44-63-44-36 0-42-3-37-16 13-35-23-44-177-44-154 0-190 9-177 44 5 13-1 16-36 16-46 0-67 13-67 41 0 12-9 19-27 21-22 2-29 9-31 30-2 19-10 28-25 30-20 3-23 10-28 83-3 44-6 72-7 63-3-29-29-20-41 13-14 40-14 196-1 204 6 3 10 15 10 26 0 21 25 26 33 7 3-7 6 11 6 40 1 45 4 52 21 52 12 0 17 5 14 14-3 7 5 22 18 32 13 11 23 28 23 39 0 15 10 22 45 30 33 7 45 14 42 26-1 8 7 21 20 27 31 15 382 14 415-1zM2305 7274c-16-9-41-23-55-30-14-8-54-14-92-14-62 0-66-1-61-21 8-28-11-39-67-39-43 0-46-2-45-27 0-25-4-28-37-31-28-2-36-7-31-18 8-21-15-44-44-44-15 0-23-5-20-12 7-20-12-48-33-48-13 0-20-8-22-27-2-19-10-29-28-33-21-5-26-14-35-60-8-44-15-56-31-58-18-3-23-14-33-87-7-46-19-89-27-96-11-9-14-7-15 12-1 15-4 9-10-16-9-46-12-2835-3-2859 5-13 9-14 20-5 11 9 14 8 14-4 0-8 7-17 15-21 9-3 15-18 15-35 0-23 4-28 18-24 22 5 47-21 39-41-4-11 3-16 29-18l35-3-1-1574c0-1381 2-1572 14-1561 13 10 18 5 31-25 31-76 75-70-504-67-444 3-527 1-579-12-33-9-79-17-103-17-24-1-36-3-26-6 21-5 23-23 2-23-13 0-15-23-15-150l0-150 3885 0 3885 0 0 149c0 134-2 150-17 154-17 4-17 5 0 6 37 2 14 21-26 21-24 0-64 7-89 16-40 13-117 15-577 12-504-3-531-2-531 15 0 24 29 67 46 67 12 0 14 233 14 1573l-1 1572 37 3c26 2 34 7 30 17-6 16 19 45 38 45 8 0 16 14 19 30 5 21 12 30 26 30 11 0 25 9 31 19 11 22 13 2795 2 2871-5 30-10 41-16 32-13-21-34 28-42 97-5 45-10 58-23 57-10-1-17 8-19 27-2 15-7 27-12 27-5 0-10 12-12 28-2 19-9 28-26 30-16 3-25 12-29 32-3 20-12 30-27 32-14 2-22 11-24 30-3 21-9 27-30 30-21 2-28 9-30 30-3 23-8 27-40 30-33 3-37 6-37 31 1 25-2 27-41 27-50 0-82 24-63 46 10 12 0 14-60 14-72 0-115 13-140 44-11 13-37 16-136 16-121 0-123 0-160-30-34-27-45-30-106-30-57 0-67-3-63-15 11-28-16-45-68-45-42 0-49-3-44-16 9-24-12-44-48-44-28 0-32-3-31-27 0-24-4-28-32-31-23-2-30-7-26-18 7-19-15-44-38-44-14 0-19-7-19-30 0-25-4-30-25-30-20 0-25-5-25-24 0-14-4-28-10-31-5-3-10-20-10-37 0-27-3-30-25-26-24 5-25 3-25-44 0-59-13-88-40-88-19 0-20-8-20-294 0-186-4-297-10-301-5-3-10-15-10-25 0-12-12-23-34-31-20-7-32-18-29-25 5-14-34-44-60-44-10 0-15-5-12-11 10-16-25-49-51-49-17 0-22-4-18-15 9-21-14-45-42-45-16 0-24-6-24-18 0-25-19-42-48-42-13 0-20-4-17-10 11-18-15-50-40-50-18 0-25-5-25-19 0-23-14-33-44-35-11-1-21-8-22-16-2-36-5-40-26-40-30 0-43-11-43-35 0-14-10-22-36-28-28-6-36-13-32-26 4-17-31-41-62-41-9 0-12-6-8-16 8-20-21-44-54-44-16 0-21-4-17-15 8-21-14-45-41-45-17 0-24-7-28-30-6-25-11-30-36-30-23 0-29-4-25-15 8-21-14-45-42-45-17 0-23-6-26-27-2-22-9-29-30-31-19-2-28-9-28-21 0-24-20-41-48-41-17 0-22-4-18-15 7-20-20-45-50-45-14 0-24-5-23-12 3-29-3-36-35-42-26-5-33-11-29-24 6-26-21-46-52-38-18 5-25 13-25 30 0 17-8 25-32 33-24 7-33 15-32 30 0 17-7 22-38 27-32 5-38 10-38 31 0 20-5 25-24 25-28 0-51 24-42 45 4 11-1 15-17 15-28 0-47 17-47 42 0 12-8 18-24 18-28 0-51 24-42 45 4 11-2 15-25 15-25 0-30 5-35 30-5 23-12 30-29 30-27 0-49 24-41 45 4 11-1 15-18 15-24 0-64 35-52 47 3 4-8 12-26 18-24 7-33 16-32 32 0 16-7 23-29 27-38 8-57 24-51 41 4 9-5 17-27 23-24 6-35 15-39 33-4 17-15 25-35 29-24 4-30 11-30 30-1 18-6 24-19 22-23-4-46 15-46 39 0 14-7 19-25 19-25 0-51 32-40 50 3 6-4 10-16 10-27 0-60 27-53 44 3 7-10 16-28 21-23 7-34 17-36 33-2 13-10 22-21 22-22 0-55 35-46 49 3 6-2 11-12 11-26 0-65 30-59 45 2 7-2 16-10 19-12 4-14 56-15 318-1 172-3 305-6 296-2-10-8-18-11-18-23 1-34 24-39 89-4 50-9 69-16 62-17-17-27-13-27 13 0 13-7 26-15 30-8 3-15 16-15 30 0 18-6 25-22 28-16 2-24 11-26 30-2 19-10 28-25 30-16 2-23 11-25 31-3 21-9 27-26 27-28 0-50 24-42 45 4 12-2 15-29 15-39 0-63 28-43 48 9 9 1 12-33 12-52 0-85 19-76 44 6 14-3 16-64 16-70 0-113 14-138 44-19 23-214 23-256 0zm270-418c11-8 16-19 12-30-5-13 1-16 42-16 51 0 78-18 67-45-4-11 1-15 18-15 28 0 51-24 43-44-3-8 3-22 14-32 11-10 17-24 15-31-3-8 2-13 14-13 18 0 20-7 20-65 0-54 3-66 20-75 25-14 26-40 1-40-35 0-51 12-51 36 0 20-5 24-28 24-16 0-37 6-47 14-16 11-17 17-7 29 20 24-159 35-331 22-72-6-87-10-82-23 9-23-14-42-52-42-28 0-34-3-29-16 8-21-11-44-35-44-12 0-19-9-21-27-2-19-10-29-28-33-20-5-26-15-36-64-6-31-17-63-23-69-13-13-15-209-2-235 14-28 31-87 31-109 0-13 6-20 17-19 10 0 19-8 21-19 3-11 16-29 29-41 14-12 22-27 19-33-4-6-1-11 8-11 29 0 66-23 66-41 0-12 11-21 32-27 23-6 34-16 38-33 4-17 14-25 33-27 26-3 29-7 31-42 1-8 14-17 31-20 21-4 31-12 35-30 4-18 14-26 33-28 26-3 29-7 31-42 1-8 14-17 31-20 24-4 31-11 33-32 3-22 9-27 35-30 27-2 33-8 35-30 3-22 9-28 26-28 29 0 49-22 40-44-4-12 0-16 16-16 35 0 62-19 55-39-4-14 1-20 23-24 25-5 30-12 35-44 4-21 2-42-3-47-7-7-10-1-10 16 0 15-4 30-10 33-7 4-10-191-10-577l0-583 22-10c13-6 24-18 26-27 3-17-22-18-422-18-289 0-427 3-431 11-4 5 1 19 10 29 15 17 16 116 15 1281-1 695-1 1279-1 1297 1 27 5 32 25 32 19 0 24 5 24 26 0 15 5 30 11 34 7 4 11 11 10 16-4 23 3 32 32 38 21 4 29 11 26 19-10 26 11 40 67 45 41 3 54 8 47 16-11 13-3 30 19 39 8 3 69 6 136 6 86 1 125-3 139-13zm4150 0c11-8 16-19 12-30-5-13 1-16 36-16 50 0 83-19 74-44-5-12-1-16 17-16 28 0 51-24 43-44-3-8-1-16 4-18 6-2 12-16 12-31 2-21 7-27 25-27 18 0 22-6 22-32 1-18 3-109 6-203 3-93 5-206 5-250-1-44-4-536-6-1094l-6-1014 22-23c17-18 19-25 8-29-8-3-203-4-433-3-322 2-420 6-423 15-3 7 7 18 21 24l26 12 0 582c0 438-3 584-12 593-14 14-3 28 27 34 11 2 19 10 17 17-4 21 18 41 45 41 19 0 23 4 18 19-7 22 10 38 45 43 19 2 25 9 25 28 0 21 5 26 32 28 26 3 32 8 35 30 2 22 9 28 36 30 28 3 32 7 32 33 0 23 4 29 23 29 29 0 42 11 42 35 0 14 8 21 30 25 21 4 31 12 35 29 4 18 15 27 38 33 18 5 30 13 26 19-9 15 14 37 46 44 18 4 27 11 24 20-6 15 32 45 58 45 10 0 18 9 20 22 2 12 12 27 24 33 11 6 19 16 16 23-2 6 5 15 15 19 24 9 33 23 33 56 0 15 5 27 10 27 6 0 10 11 10 24 0 13 7 29 15 36 12 10 15 36 15 117 0 96-2 105-20 110-14 4-20 14-20 34 0 15-4 31-10 34-5 3-10 19-10 36 0 24-4 29-24 29-19 0-25 6-28 27-2 20-10 29-28 33-18 4-26 13-28 33-3 23-8 27-36 27-37 0-60 19-51 43 10 24-173 36-333 22-68-6-82-10-77-23 9-23-14-42-51-42-28 0-33-4-36-27-2-22-9-29-30-31-20-2-28 1-28 13 0 8 7 18 15 21 11 5 15 23 15 75 0 67 1 69 25 69 18 0 23 4 18 15-3 9 1 23 10 33 8 9 17 28 19 42 2 19 10 26 31 28 21 3 27 9 27 27 0 27 17 35 70 35 33 0 37 3 33 20-8 30 27 39 163 39 86 1 125-3 139-13zm-4177-685c-2-11 7-19 32-27 26-7 35-15 34-32 0-15 7-23 27-27 31-7 54-29 45-44-4-6 8-14 26-19 25-7 33-14 32-31 0-15 7-23 25-27 48-10 52-14 49-35-2-18 2-22 25-23 30-2 50-22 42-43-3-8 4-13 18-13 28 0 47-17 47-42 0-12 8-18 24-18 26 0 50-23 44-42-3-8 8-17 26-23 21-7 32-18 34-32 2-14 10-23 21-23 22 0 55-35 47-49-4-6 11-15 35-21 34-9 40-15 36-31-4-16 1-21 24-26 32-6 51-24 47-44-2-8 8-15 22-17 32-5 51-21 48-41-2-10 7-17 27-21 23-4 31-11 33-32 3-22 9-27 35-30 27-2 32-7 32-28 0-20 7-26 30-30 24-4 31-11 33-33 3-21 9-27 26-27 29 0 49-22 40-44-5-13 0-16 24-16 34 0 55-20 46-44-5-12 0-16 19-16 29 0 52-23 43-45-4-11 1-15 20-15 40 0 66-18 59-41-5-16-1-19 23-19 34 0 55-20 46-44-5-12 0-16 19-16 29 0 52-23 44-44-4-11 3-16 26-18 27-2 33-8 35-30 3-23 8-28 32-28 29 0 49-28 35-49-3-5 9-11 27-13 28-2 34-8 36-30 3-23 8-28 32-28 16 0 30-6 33-12 8-22-13-48-37-48-19 0-22-4-19-24 3-15-1-25-12-30-23-8-35 1-35 27 0 16-9 26-31 34-25 10-30 17-26 33 4 16 0 20-17 20-29 0-60 23-54 41 3 9-7 18-31 25-28 8-36 15-35 32 0 18-5 22-27 22-29 0-50 24-42 47 3 7-9 13-29 15-28 2-34 7-36 31-3 21-9 27-26 27-28 0-50 24-42 45 4 11-2 15-24 15-30 0-51 24-43 48 3 7-5 12-20 12-29 0-52 23-43 45 4 11-1 15-17 15-33 0-62 24-54 44 4 11 1 16-11 16-26 0-62 28-56 44 3 8-7 16-28 22-23 7-33 16-33 29 0 14-10 23-35 30-25 7-36 17-38 33-2 15-10 22-26 22-26 0-46 18-46 41 0 12-9 19-27 21-22 2-29 9-31 31-3 20-9 27-26 27-27 0-46 18-46 42 0 12-8 18-24 18-28 0-51 24-42 45 4 11-1 15-17 15-27 0-47 17-47 40 0 9-13 20-32 25-25 8-33 15-32 33 0 12-5 22-12 22-30 0-65 24-61 41 4 13-4 20-32 26-26 6-36 14-36 28 0 24-13 35-42 35-22 0-25 4-27 40-1 8-14 17-31 20-22 4-31 12-35 30-3 17-13 26-30 28-25 3-42 20-36 37 1 6-11 15-28 20-20 7-32 19-36 35-4 18-13 26-33 28-21 3-27 9-27 27 0 13 4 26 10 30 5 3 6 13 3 22-4 9 1 21 11 29 24 17 78-1 74-25zm3981 30c8-5 15-17 16-28 1-10 6-27 12-39 14-25 6-39-30-48-15-4-25-11-22-15 11-18-8-41-39-47-25-4-32-11-32-27 1-15-8-23-32-31-19-5-31-14-28-21 7-20-10-37-37-37-20 0-27-6-29-27-2-20-10-27-33-31-21-4-31-12-35-29-4-18-15-27-39-33-22-6-31-14-27-23 6-17-10-31-46-40-16-4-25-12-22-20 6-15-33-45-59-45-10 0-15-5-12-11 9-14-24-49-47-49-11 0-18-7-18-18 0-24-19-42-46-42-17 0-23-7-26-27-2-23-8-29-35-31-23-2-30-7-26-18 8-20-15-44-43-44-17 0-23-6-26-27-2-22-9-29-30-31-19-2-28-9-28-21 0-24-20-41-47-41-17 0-21-4-16-16 8-21-22-44-57-44-21 0-26-5-26-22 1-17-7-24-34-32-25-8-35-17-35-31 0-14-10-23-31-30-20-6-29-15-26-24 6-18-25-41-55-41-16 0-21-4-17-15 8-21-14-45-42-45-17 0-23-6-26-27-2-23-8-29-35-31-26-3-32-8-35-30-2-22-9-28-35-30-23-2-30-7-26-18 8-21-16-44-47-44-21 0-26-5-26-22 1-18-7-25-31-33-18-5-32-14-32-20 3-27-4-35-35-41-26-4-33-10-29-21 8-20-23-43-58-43-23 0-26-3-22-21 7-24-10-39-44-39-16 0-21-4-17-15 8-21-14-45-42-45-17 0-23-6-26-27-2-23-8-29-36-31-18-2-30-8-27-13 14-21-6-49-35-49-24 0-29-5-32-27-2-24-8-29-36-31-26-3-32-7-28-19 11-27-14-43-65-43-44 0-49 2-55 26-4 14-3 29 2 33 5 3 9 15 9 26 0 15 10 22 43 30 32 8 40 13 31 22-17 17-3 31 36 39 25 4 32 10 28 21-8 19 22 43 53 43 18 0 21 4 17 21-7 24 11 39 47 39 21 0 26 5 25 28 0 23 4 27 33 30 18 2 30 8 27 13-4 5-3 18 0 29 5 15 15 20 39 20 28 0 32 3 31 28 0 23 4 27 32 30 26 3 32 8 35 30 2 21 9 28 33 32 24 4 30 10 30 30 0 21 5 25 36 28 32 3 36 6 31 27-3 21 1 25 32 31 30 5 35 10 31 25-7 20 20 39 55 39 16 0 20 4 16 16-9 24 12 44 45 44 23 0 28 5 31 28 2 23 8 28 36 30 24 2 32 7 28 18-10 25 5 44 34 44 24 0 29 5 32 28 2 23 8 28 36 30 24 2 32 7 28 18-10 25 5 44 35 44 25 0 29 4 29 29 0 26 4 30 33 33 20 2 32 9 33 18 1 8 2 21 2 28 1 6 15 12 32 12 25 0 30 4 30 25 0 19 7 26 33 33 22 6 32 14 30 27-1 12 11 22 37 32 26 10 37 20 33 30-4 9 8 19 35 30 25 9 39 20 36 28-6 15 32 45 57 45 10 0 15 8 15 23-1 17 7 24 32 32 19 5 32 16 32 25 0 21 20 40 42 40 11 0 18 7 18 18 0 25 19 42 47 42 16 0 23 6 23 19 0 23 17 36 45 36 15 0 19 6 17 23-3 22 1 25 51 37 19 4 27 11 24 20-7 17 9 31 44 40 19 5 25 12 22 24-4 18 32 41 64 41 12 0 13 3 4 14-10 11-7 17 11 30 12 9 33 16 45 16 17 0 21 4 16 16-4 11 1 22 12 30 22 16 25 17 44 5zm-3261-1338c5-10 7-24 5-30-3-8 3-13 14-13 11 0 28-6 38-14 16-11 17-17 7-29-10-12-6-15 29-21 37-6 41-9 37-30-4-21 0-25 35-30 35-6 39-9 34-31-4-22-1-25 23-25 32 0 53-21 44-43-4-12 2-16 28-19 28-2 34-7 36-30 3-23 8-28 32-28 29 0 49-28 35-49-3-5 9-11 27-13 27-2 34-8 36-30 3-22 9-27 35-30 28-3 32-7 32-30-1-24 3-28 26-28 31 0 54-23 45-45-4-11 1-15 19-15 31 0 59-28 45-45-8-9-1-14 29-19 40-6 57-26 39-44-7-7 3-12 31-17 34-6 41-11 41-30 0-19 6-24 33-27 27-2 33-8 35-31 2-19 11-31 28-37 14-6 24-18 24-30 0-15 7-20 29-20 32 0 56-22 48-44-4-10 8-15 50-19 63-7 89-22 72-43-10-12 9-14 112-13 68 0 118 3 112 6-43 17 17 53 89 53 28 0 38 4 35 13-8 23 13 47 43 47 25 0 30 4 30 24 0 24 16 36 50 36 14 0 17 5 13 21-7 25 11 39 48 39 20 0 25 5 25 23-1 18 7 24 43 33 29 7 40 13 32 18-18 12 16 46 45 46 17 0 22 4 18 15-8 21 14 45 42 45 17 0 23 6 26 28 2 22 8 28 36 30 18 2 30 8 27 13-14 21 6 49 35 49 24 0 29 5 32 28 2 23 8 28 36 30 24 2 32 7 28 18-10 26 5 44 38 44 28 0 32 3 31 28 0 23 4 27 33 30 27 3 32 7 27 22-7 21 19 40 54 40 15 0 19 5 14 16-8 20 21 44 54 44 17 0 21 4 16 16-8 21 22 44 55 44 18 0 23 4 18 16-8 21 11 44 35 44 12 0 19 9 21 27 2 15 10 29 18 31 13 2 15-65 12-567l-3-570 28-3c23-2 29-8 31-35 2-24 9-33 25-35 14-2 23-11 25-25 3-17 11-23 38-25l35-3-1-1574c0-1457 1-1575 16-1593 10-10 23-18 31-18 8 0 13-12 13-31 0-28-2-31-22-23-30 11-2936 11-2965 0-20-7-23-5-23 18 0 19 7 29 24 35 13 5 26 17 30 26 3 10 6 724 6 1589l-1 1571 40 3c32 3 38 6 34 21-3 14 4 21 27 29 17 6 30 17 29 24-5 40 1 50 26 45l26-4-3 573c-2 445 0 574 9 574 7 0 16-8 21-17zm-624-1325c0-10-1-702-2-1538l-2-1520-25 0c-18 0-23-4-19-15 4-8 1-22-6-30-10-12-42-15-161-15l-149 0-6 24c-3 14-3 30 1 37 5 8 1 9-12 5-12-4-25-1-32 7-8 11-11 398-11 1533 0 836 0 1522 0 1527 0 4 96 6 213 5 195-3 212-4 211-20zm4146-1511c0-841-2-1533-5-1538-4-5-15-9-25-9-13 0-20-8-22-27l-3-28-152-3c-144-2-153-1-163 18-6 11-8 24-5 29 3 5-5 11-17 13l-23 3-5 1530c-3 842-4 1533-2 1538 2 4 98 6 213 5l209-3 0-1528z" fill="#ffffff" class="color000 svgShape"></path><path d="M3778 413 c404 -2 1061 -2 1460 0 400 1 70 2 -733 2 -803 0 -1130 -1-727 -2z" fill="#ffffff" class="color000 svgShape"></path></g></svg></g></svg>