<svg id="SvgjsSvg1020" width="288" height="288" xmlns="http://www.w3.org/2000/svg" version="1.1" xmlns:xlink="http://www.w3.org/1999/xlink" xmlns:svgjs="http://svgjs.com/svgjs"><defs id="SvgjsDefs1021"></defs><g id="SvgjsG1022"><svg xmlns="http://www.w3.org/2000/svg" width="288" height="288" version="1.0" viewBox="0 0 900 900"><g transform="matrix(.1 0 0 -.1 0 900)" fill="#ffffff" class="color000 svgShape"><path d="M4230 8775c0-11-11-15-39-15-35 0-38-2-34-24 4-19-1-25-28-35-17-6-41-11-52-11-16 0-17-3-7-15 10-12 7-18-18-32-22-13-30-24-29-43 2-20-3-26-25-28-25-3-28-7-28-42 0-35-3-39-27-42l-28-3-7-105c-4-58-4-174-1-258l6-153 28-6c26-5 29-10 29-44 0-35 3-39 26-39 21 0 25-4 22-22-2-15 4-27 17-33 11-6 21-23 23-38 3-22 8-27 31-27 36 0 66-22 58-44-5-13 0-16 28-16 53 0 87-19 82-47l-4-23 265 0c234 0 263 2 252 15-20 24 4 42 63 49 49 6 53 9 52 34 0 24 4 27 37 30 33 3 37 6 40 35 3 28 7 32 36 35 28 3 32 7 32 32 0 16 5 32 10 35 6 4 8 11 5 16-13 19 6 49 31 49 22 0 24 4 24 45 0 25 4 64 10 87 5 24 12 56 15 71 7 35 28 30 36-9 4-18 7 1 8 49 1 73 0 78-18 72-25-8-41 36-48 138-6 72-7 77-29 77-25 0-26 2-41 90-7 38-13 46-33 48-34 5-52 22-47 44 4 14-1 18-22 18-32 0-66 32-58 55 5 10 0 15-13 15-11 0-20 7-20 15 0 13-41 15-305 15-264 0-305-2-305-15zM1733 7749c40-23 1-44-101-55-54-5-69-10-65-20 10-26-17-44-68-44-47 0-48-1-51-32-3-29-7-33-35-36-28-3-33-7-33-31 0-15-4-31-9-36-5-6-11-21-13-35-2-17-9-25-23-25-17 0-21-10-30-70-9-62-13-70-35-75l-25-6-3-156-2-156 29-7c28-6 30-10 36-70 7-60 9-64 34-67 24-3 27-8 34-65 8-61 10-63 37-63 34 0 66-36 50-56-8-8 2-13 36-17 56-6 84-28 64-51-11-14-5-16 53-16 36 0 78-5 92-12 27-12 33-33 13-41-7-3 61-6 151-6 140-1 162 1 146 12-17 13-17 15 6 30 16 11 44 17 85 17 59 0 61 1 57 23-6 29 18 49 53 45l27-3-2-102c-2-90 0-102 14-97 21 9 45-14 45-42 0-19 5-24 24-24 28 0 51-24 42-45-4-11 2-15 24-15 35 0 63-25 55-50-5-15 0-19 27-22 29-3 33-7 36-35 3-28 7-32 35-35 29-3 32-6 31-34-1-27 1-30 20-27 26 5 43-12 48-46 2-17 11-25 28-28 37-6 57-28 40-47-11-14-1-16 91-16 80 0 100 3 91 12-16 16-15 23 4 42 20 21 70 21 78 0 9-24-12-54-39-54-18 0-25-5-25-19 0-34-12-51-35-51-18 0-24-6-27-27-2-24-8-29-36-31-28-3-32-6-27-23 8-26-11-49-40-49-18 0-24-7-29-35-4-19-11-35-17-35-6 0-7-5-4-10 3-6 3-20 0-31-5-16-13-20-31-16-22 4-24 1-24-34 0-22-4-39-9-39-5 0-11-12-13-27-2-22-8-28-24-26-19 2-21-3-22-52-1-78-9-98-38-92-22 4-23 1-26-62-3-65-4-66-35-75l-32-10-3-90-3-91-31-14-31-14-5-316c-2-174-2-405 0-514l4-199 28-9c23-9 28-17 34-56 3-25 6-68 6-95 0-45 2-49 29-54 25-5 29-11 35-51 3-25 6-62 6-82 0-25 3-32 9-22 13 21 41 5 41-23 0-14 5-28 10-31 6-4 8-21 4-40-7-41 4-85 17-64 7 11 9 10 9-3 0-11 8-18 20-18 17 0 20-7 20-51 0-47 1-50 21-44 19 6 21 4 16-14-4-16-1-21 13-21 18 0 36-42 25-60-3-5 9-10 27-12 29-3 33-7 36-35 3-26 8-32 30-35 22-2 28-9 30-35 3-26 8-32 30-35 21-2 28-9 32-33 3-20 12-31 25-33 25-5 45-30 38-48-8-20-67-17-94 5-20 16-21 21-10 35 12 14 7 16-58 16-68 0-71-1-59-20 11-16 9-22-7-34-11-9-37-16-58-16-24 0-36-4-32-11 4-5 4-21 1-35-5-19-13-24-37-24-18 0-28-4-24-10 14-22-6-50-35-50-25 0-29-4-32-32-3-29-7-33-34-36-26-3-31-7-27-23 7-27-14-49-48-49-23 0-28-5-31-27-2-23-8-29-35-31-24-2-33-8-33-22 0-36-12-50-41-50l-29 0 0-100 0-100-36 0c-52 0-77 16-70 46 6 23 5 24-57 24-97 0-174 30-126 49 18 7-3 10-81 10-93 0-102-1-75-13l29-12-42-17c-27-11-71-17-121-17-74 0-79-1-74-20 8-31-15-50-62-50-39 0-42-2-38-24 5-22 0-26-38-38-27-8-44-19-44-28 0-8-5-14-12-13-14 3-27-32-18-47 14-22-6-50-35-50-27 0-28-2-35-64-6-60-9-65-36-75l-29-10 1-168c0-92 3-162 6-155 2 6 13 12 24 12 14 0 19-7 19-29 0-17 5-33 10-36 6-3 10-32 11-63 0-31 3-51 6-44 8 21 36 15 30-7-3-13 2-21 16-25 16-4 19-11 14-38-5-32-4-33 27-33 28 0 31-3 34-32 3-31 6-33 41-33 45 0 77-20 68-44-5-13 1-16 38-16 24 0 55-4 70-10 31-12 43-39 24-51-8-5 66-9 186-9 155 0 196 3 187 12-7 7-12 16-12 21 0 13 67 37 106 37 28 0 35 3 30 15-9 25 22 45 71 45 37 0 44 3 39 16-10 27 12 54 44 54 25 0 30 4 30 24 0 14 7 31 15 40 8 8 15 24 15 35 0 26 25 28 39 4 8-15 10-10 11 22 0 22 3 64 6 93 6 46 9 52 30 52l24 0 0 154 0 154-30 12c-25 10-30 18-30 45 0 18-3 47-6 64-5 26-11 31-35 31-23 0-30 6-40 35-9 23-19 35-32 35-12 0-23 11-30 30-7 18-19 30-29 30-22 0-44 38-30 52 11 11 112-81 112-101 0-7 40-11 124-11l123 0-4 23c-4 20 2 25 36 37 30 10 38 16 31 25-11 13 1 27 34 39 11 4 16 12 12 22-9 24 12 54 39 54 20 0 25 5 25 24 0 29 24 50 49 43 16-4 20 1 23 27 3 27 7 32 38 36 29 4 35 9 35 30 0 20 7 26 36 33 30 7 37 13 37 33 0 33 9 41 32 26 19-12 20-9 20 68 0 88-16 134-49 143-19 5-40 52-28 64 3 3 18 1 34-4 20-7 28-16 27-32 0-15 7-23 25-27 50-11 53-14 49-39-5-23-2-25 28-25 36 0 59-26 48-54-5-13 1-16 29-16 38 0 63-21 53-45-4-11 2-15 22-15 38-1 66-24 59-50-5-18-1-20 38-20 74 0 113-28 83-58-9-9 4-12 59-12 52 0 76-4 88-16 11-12 13-20 5-29-8-10 5-13 60-17 74-6 104-21 97-49-4-15 7-17 84-21 101-5 134-21 104-52-15-15-6-16 127-16 85 0 177-6 228-15 47-9 112-15 145-14 33 1 86 1 119 0 51-1 57-3 46-16-11-13-6-15 36-14 40 1 43 3 20 8-17 3-29 10-29 16 3 22 103 35 268 35 131 0 166 3 157 12-35 35 14 58 127 58 48 0 71 4 62 9-19 12-7 39 24 51 15 6 51 10 80 10 44 0 53 3 49 15-13 32 15 45 93 45 67 0 74 2 63 16-20 23 9 46 68 52 38 3 49 8 45 19-8 21 27 53 59 53 20 0 28 4 25 13-9 26 13 47 51 47 34 0 38 2 37 27 0 23 6 28 40 37 32 9 39 15 37 32-3 21 31 44 67 44 12 0 17 7 17 22-1 14 8 27 23 34 13 7 28 22 35 35 6 13 21 28 34 34 12 5 20 15 18 21-6 15 4 26 36 43 16 8 24 19 21 27-7 19 16 45 36 42 11-2 15 4 14 17-2 31 16 55 42 55 20 0 24 6 27 33 3 28 7 32 34 35 31 3 32 4 39 68 6 58 9 64 30 64 24 0 35 29 35 96 0 28 4 33 28 36 26 3 27 6 30 66 2 44 7 65 17 69 8 3 15 14 15 24 0 24 15 25 26 2 6-12 10 15 14 77 4 85 7 95 25 98 42 8 45 19 45 151 0 134 14 241 33 253 7 5 15-1 19-15 3-12 6 13 7 56 1 42-3 77-8 77-5 0-12 8-15 17-10 24 4 144 15 137 5-3 8 30 8 73-1 43-4 68-6 56-5-27-16-29-34-7-10 12-15 63-17 183-2 91-8 173-13 181-7 13-8 12-9-2 0-27-19-22-26 7-3 14-10 25-15 25-5 0-10 39-10 88-1 48-3 79-6 70-2-10-13-18-24-18-14 0-19 7-19 30 0 17-4 30-10 30-6 0-10 28-10 64 0 63 0 63-32 73-27 7-33 14-31 34 1 13 0 41-3 61-5 31-10 37-32 40-22 2-28 9-30 33-7 85-12 95-41 95-23 0-30 6-35 25-4 14-4 30-1 35 3 5-9 10-27 12-29 3-33 6-33 33 0 26-4 31-30 35-25 4-31 10-33 37-3 26-8 32-30 35-21 2-28 10-32 33-4 21-12 31-30 35-17 4-26 14-28 32-2 19-11 28-35 35-24 7-32 15-31 31 0 16-6 24-25 28-50 11-53 14-49 39 5 22 2 25-27 25-38 0-60 21-52 50 4 17 0 20-33 20-30 0-40 5-45 20-3 11-3 24 0 30 4 6-5 10-19 10-44 0-78 21-73 46 3 20-1 22-55 26-38 3-65 10-76 22-16 16-16 18 2 32 18 13 13 14-50 14-76 0-112 15-101 44 5 13-1 16-31 16-52 1-122 16-134 28-8 8-7 16 2 27 11 13 3 15-71 16-122 0-192 30-137 57 17 8-112 11-496 11-438 1-517-1-501-12 41-31-26-57-144-57-58 0-72-3-63-12 7-7 12-16 12-21 0-16-70-37-126-37-45 0-55-3-50-15 11-29-22-45-96-45-62 0-69-2-58-16 21-25-10-47-75-52-45-4-55-8-50-20 9-23-13-40-60-48-32-4-42-10-38-20 8-22-16-44-49-44-25 0-29-4-25-19 8-31-11-51-48-51-30 0-35-3-35-23 0-29-18-47-46-47-17 0-23-7-26-27-2-23-8-29-35-31-27-3-33 0-33 17 0 34 11 51 35 51 29 0 35 22 34 135-1 50-3 82-6 72-3-12-12-17-26-15-17 2-23 11-25 35-3 29-7 32-40 35-34 3-37 6-40 36-3 29-6 32-38 32-34 0-40 8-35 48 1 7-10 12-27 12-30 0-42 14-42 50 0 13-9 20-27 22-23 2-29 8-31 35-3 26-8 32-30 35-22 2-28 9-30 36-3 29-6 32-37 32-25 0-35 5-40 20-3 11-3 24 0 30 4 6-30 10-95 10l-101 0 3 33c2 26 8 33 29 35 28 3 39 30 39 91 0 31 16 51 42 51 17 0 18 11 16 157l-3 157-25 6c-23 5-25 10-28 76l-3 70-29-4c-27-4-30-2-30 25 0 16-7 39-16 51-9 13-13 29-10 37 4 11-2 15-23 15-33 0-64 30-55 54 5 14-2 16-49 16-56 0-84 16-74 43 4 11-13 17-70 25-86 12-108 26-79 48 18 12 2 14-135 14-109-1-149-4-136-11zm3011-1536c42-13 43-30 4-42-25-7 5-9 120-10 85-1 162-6 173-11 22-12 25-36 7-43-7-3 14-6 48-6 34-1 76-6 93-12 27-10 32-16 28-35-4-23-2-24 48-24 65 0 108-27 86-54-12-14-8-16 42-16 57 0 82-15 72-43-5-11 4-16 39-21 49-8 70-25 60-50-5-13 1-16 30-16 38 0 61-25 50-54-4-11 3-15 28-18 28-2 34-7 36-30 3-22 9-28 26-28 29 0 50-24 43-49-4-16 1-20 27-23 27-3 31-7 34-35 3-28 7-33 28-33 14 0 26-6 28-12 2-7 9-29 16-48 6-19 12-43 12-52-1-11 9-18 26-20 24-3 27-7 26-39-1-33 1-35 28-31 22 3 28 0 29-14 1-11 2-23 4-29 1-5 3-29 3-51 2-38 4-41 26-37 31 6 34-1 42-84 6-62 9-70 25-66 15 4 19 0 19-20 0-14 5-27 11-29 8-3 11-43 11-118 0-63 2-107 5-97 3 12 12 17 26 15 31-4 36-45 36-329 1-305-2-332-39-346-27-10-27-11-32-121-5-116-17-153-44-131-12 9-14 3-15-37-1-27-1-53 0-58 4-23-13-45-37-48-25-3-27-7-32-63-5-57-7-60-32-63-23-3-28-8-28-32 0-16-6-33-14-37-8-4-14-17-13-28 1-14-5-21-20-23-17-3-23-11-25-40-3-32-7-37-30-40-22-3-27-9-30-35-3-28-7-32-34-35-26-3-31-7-27-23 7-25-14-49-43-49-17 0-23-6-26-27-2-23-8-29-34-31-26-3-31-7-27-23 8-28-15-49-52-49-28 0-32-3-28-20 7-26-14-51-41-49-45 3-55-1-49-17 9-25-24-44-74-44-41 0-43-1-37-24 8-32-18-46-85-46-41 0-49-3-45-15 11-28-16-44-86-51-56-5-67-9-63-22 13-31-26-42-151-42-109-1-119-2-102-15 25-19 12-33-40-46-50-11-537-11-587 0-49 12-54 17-39 41 12 19 9 20-106 20-123 0-161 11-149 42 4 12-7 16-60 21-72 7-96 20-88 48 5 16 1 19-28 19-82 0-123 24-96 56 9 12 3 14-39 14-55 0-93 23-72 44 8 8-3 14-42 21-49 10-53 13-53 38 1 24-3 27-31 27-37 0-58 21-49 49 5 17 1 20-27 23-28 2-34 7-36 31-3 21-9 27-26 27-29 0-50 24-43 49 4 16-1 20-27 23-27 3-31 7-34 35-3 26-8 32-29 35-24 3-28 10-41 65-13 55-18 62-41 65-25 3-26 6-24 58 0 30-1 47-4 37-7-27-48-18-47 11 0 12-3 22-8 22-4 0-8 26-8 57 0 50-2 55-13 38-17-23-37-12-37 21 0 13-4 24-10 24-5 0-10 28-12 63-3 59-4 62-30 65l-28 3-1 152c-1 84-4 142-6 130-2-13-11-23-18-23-30 0-39 44-42 220-3 116 1 200 9 249 14 77 30 99 45 59 5-15 10 30 13 127l5 150 28 3c26 3 27 5 27 66 0 61 0 62 33 71 31 10 32 12 35 73 3 57 5 62 25 62 17 0 26 9 36 35 7 19 9 39 6 45-14 23 6 50 36 50 17 0 28 4 24 10-3 5-3 21 1 35 5 18 13 25 33 26 14 0 20 3 14 6-21 8-15 29 12 41 18 9 25 19 25 41 0 29 14 41 49 41 12 0 17 8 16 27 0 23 5 28 30 33 24 4 31 11 35 35 4 25 10 31 38 33 28 3 32 7 32 31 0 31 18 41 74 41 25 0 27 2 15 16-11 14-10 19 10 35 13 11 38 19 57 19 26 0 32 3 28 15-11 27 16 45 66 45 44 0 48 2 43 21-9 33 21 49 90 49 53 0 58 2 47 16-24 28 11 48 94 52 62 3 74 7 69 20-13 33 25 42 176 43 110 0 139 3 119 11-51 18-36 33 48 48 60 11 388 5 428-7z" fill="#ffffff" class="color000 svgShape"></path><path d="M4287 5874c9-25-24-44-77-44-43 0-46-2-45-27 0-29-21-40-82-42-24-1-31-5-27-15 10-25-15-56-44-57-15 0-21-3-14-6 19-7 14-30-8-36-16-4-20-14-20-46 0-39-2-41-30-41-30 0-30 0-30-59 0-40-5-63-15-71-8-7-15-23-15-36 0-28-8-30-26-6-11 14-13-12-14-166l0-182 29-6c25-5 29-11 35-51 3-25 7-67 7-92 1-25 3-38 6-28 7 26 33 21 33-7 0-13 7-26 15-30 9-3 15-18 15-35 0-25 4-30 28-33 22-2 28-8 30-34 3-26 7-31 23-27 13 4 32-7 59-31l40-36-70 0c-66 0-70-1-61-19 16-29-11-44-92-51-40-4-66-8-59-9 38-4-19-61-62-61-10 0-13-6-9-16 8-22-22-44-60-44-24 0-27-3-22-20 9-28-11-50-47-50-18 0-27-4-22-11 3-6-2-27-11-47-10-21-21-44-25-52-4-8-16-15-26-15-13 0-19-8-20-25-1-46-4-50-34-50-29 0-29-1-32-62-3-61-4-63-35-72l-33-9-1-91c0-50-6-109-13-131-14-49-43-59-49-18-2 15-5-33-5-107-1-74 2-140 6-146 4-6 16-14 28-18 17-5 23-18 30-74 9-65 10-67 39-70 38-5 58-21 52-43-4-14 7-19 66-27 81-12 102-26 73-48-18-12-9-14 79-14 88 0 97 2 79 14-26 20-9 36 52 47 50 9 118-2 130-23 4-6-1-17-11-25-16-11 65-13 516-13 441 1 530 3 511 14-31 17-13 32 56 47 78 16 151-11 122-46-11-13 1-15 86-15 86 1 96 2 76 14-20 11-21 14-9 25 9 6 45 17 82 24 36 7 63 15 60 19-16 16 7 47 38 50 28 3 32 7 35 36 2 19 9 32 17 32 8 0 19 8 24 18 8 13 11 14 11 2 1-10 4-9 10 5 12 29 12 405 0 405-5 0-10-9-10-20 0-13-5-18-15-14-9 4-15 19-15 35 0 16-4 29-10 29-6 0-10 30-10 70 0 67-1 70-24 70-25 0-43 30-31 50 3 5 1 10-4 10-6 0-11 15-11 34 0 30-3 35-27 38-24 3-28 8-31 38-2 19-8 41-14 47-6 7-8 20-4 28 4 11-2 15-23 15-29 0-41 15-41 50 0 14-9 20-32 22-29 3-33 7-36 36-3 28-7 32-31 32-32 0-56 22-47 45 4 11-1 15-17 15-32 1-60 26-54 48 4 18-2 20-63 24-77 4-105 20-89 49 9 18 6 19-46 19-30 0-55 4-55 8 0 13 32 39 62 51 19 7 28 18 30 38 2 22 8 28 28 28 20 0 25 6 26 25 1 46 4 50 34 50 30 0 30 0 30 59 0 40 5 63 15 71 8 7 15 19 15 26 0 17 12 18 28 2 9-9 12 40 11 223 0 128-3 229-5 223-3-7-14-10-24-7-18 5-24 17-23 51 1 6-3 12-8 12-5 0-9 19-9 43 0 39-3 43-22 43-17-1-24 5-26 24-2 14-8 29-13 35-5 5-9 19-9 31 0 18-6 23-32 26-29 3-33 7-36 34-3 30-6 32-52 38-51 7-70 27-49 52 9 12 2 14-43 14-60 0-95 18-85 44 6 15-14 16-223 16-209 0-229-1-223-16zM7020 7745c6-8 9-19 5-24-8-14-73-31-119-31-29 0-37-3-32-15 9-26-22-45-75-45-47 0-49-1-43-24 5-20 1-26-28-35-28-9-34-16-33-39 0-22-5-28-27-30-25-3-28-8-28-38 0-29-3-34-24-34-36 0-43-17-49-112-5-87-18-119-45-110-9 3-12-17-12-78 0-64 3-81 13-77 22 8 37-29 44-111 7-92 16-112 48-112 18 0 27-8 36-35 9-23 19-35 32-35 12 0 23-11 30-29 6-17 21-32 33-35 21-6 42-46 23-46-19 0-99 66-105 88-6 21-11 22-109 22-95 0-103-1-98-19 6-23-22-51-52-51-18 0-24-6-27-27-2-22-9-29-30-31-19-2-28-9-28-22 0-35-12-50-41-50-20 0-27-4-23-14 9-24-15-56-41-56-18 0-24-6-27-27-3-24-8-28-39-31-31-3-36-6-32-23 7-27-14-49-48-49-26 0-29-3-29-34 0-29-4-35-27-41-37-9-43-20-43-82 0-46 3-53 20-53 11 0 20-6 20-14 0-8 6-21 13-28 8-7 18-27 24-43 6-20 17-31 34-33 34-5 60-32 53-54-5-17 2-18 97-18 80 0 100 3 91 12-21 21-13 37 26 47 32 9 38 15 37 38 0 23 5 28 30 33 22 4 29 11 27 24-4 25 16 46 44 46 20 0 24 5 24 29 0 30 14 41 54 41 17 0 22 6 21 27 0 23 5 28 45 37 34 9 45 16 45 31 0 14 12 24 45 35l45 16 3 127 3 127 30 0c47 0 72-17 65-46-6-23-5-24 48-24 30 0 67-5 81-12 27-12 33-33 13-41-7-3 57-6 144-6 151-1 156 0 151 19-7 27 30 40 115 40 51 0 63 3 54 12-7 7-12 17-12 23 0 15 44 35 75 35 19 0 25 5 25 23 0 29 18 47 47 47 19 0 23 5 23 30 0 19 5 30 14 30 10 0 14 9 13 28-2 22 2 27 21 26 19 0 22 4 22 43 0 36 3 43 19 43 52 0 51-3 51 231l0 218-32 9c-32 8-33 10-38 68-5 56-6 59-35 64-27 5-30 9-29 40 1 33-1 35-30 35-28 0-31 4-34 33-3 31-5 32-46 32-49 0-82 20-73 44 5 13-1 16-31 16-53 1-122 16-135 29-9 10-7 16 7 27 18 12 2 14-133 14-133 0-152-2-141-15zM4460 7586c-14-8-48-17-75-21-28-3-56-10-63-14-9-6-12-100-10-397l3-389 33-3c27-3 34-8 39-33l6-29 117 0 118 0 6 30c5 25 10 30 34 30 27 0 30 3 36 46 8 60 8 633 0 702-6 48-9 52-34 52-15 0-53 9-86 20-69 23-90 24-124 6zM623 5093c-76-3-91-6-86-18 10-28-17-45-74-45-50 0-53-1-44-19 14-25-6-41-59-48-30-4-38-9-30-18 10-13-18-55-37-55-5 0-9-10-9-22 1-17-5-24-21-26-18-3-23-10-23-33 0-19-5-29-15-29-13 0-15-41-15-310 0-271 2-310 15-310 9 0 18-12 22-30 4-25 10-30 33-30 28 0 40-15 40-51 0-14 7-19 29-19 35 0 55-22 46-50-6-18-2-20 37-20 51 0 84-19 75-44-5-14 2-16 51-16 31 0 94-8 139-17 76-16 85-16 151 0 38 9 97 17 131 17 50 0 59 3 55 15-11 27 16 45 67 45 47 0 49 1 43 24-7 28 17 46 60 46 18 0 24 4 20 14-9 23 15 56 39 56 17 0 25 9 35 40 6 22 12 51 12 65 0 21 5 25 30 25l30 0-2 262-3 263-30 5c-26 4-31 10-35 45-4 32-9 40-25 40-13 0-20 7-20 20 0 17-13 31-54 62-2 1 2 9 9 18 11 13 9 15-13 15-14 0-38 5-52 10-22 8-26 15-23 35 5 24 3 25-47 25-55 0-82 17-71 45 4 12-5 15-53 15-32 0-98 2-147 4-49 2-130 1-181-1zM8097 5093c-73-3-87-6-78-17 20-24-14-46-69-46-43 0-48-2-43-20 8-29-14-50-51-50-28 0-32-3-31-27 0-23-5-29-27-31-25-3-28-8-28-38 0-31-2-34-30-34-28 0-30-3-30-35 0-19-4-35-10-35-5 0-10-13-10-29 0-34-25-48-39-23-7 12-10-60-11-225 0-156 4-243 10-243 6 0 10 7 10 16 0 8 5 12 10 9 6-4 8-11 4-16-3-6 3-13 15-16 17-4 21-13 21-42 0-33 3-37 23-37 16 1 23-5 25-24 2-14 13-35 24-47 11-12 18-28 15-36-4-11 5-16 32-21 43-7 64-26 55-50-5-13 1-16 38-16 51 0 87-27 66-48-9-9 0-12 43-12 29 0 94-7 143-16 72-13 99-15 135-6 25 7 85 14 133 18 71 5 85 9 81 22-9 22 25 42 70 42 34 0 38 2 32 20-9 28 11 50 46 50 24 0 28 4 31 33 2 26 8 33 29 35 21 2 28 10 33 33 4 21 11 29 26 29 20 0 20 5 20 335 0 330 0 335-20 335-15 0-22 9-26 30-5 25-11 30-34 30-28 0-40 15-40 51 0 14-7 19-28 19-38 0-70 33-52 55 11 13 6 15-42 15-60 0-95 18-85 44 6 14-2 16-57 16-35 0-103 2-152 4-49 2-129 1-177-1zM1469 4676c9-11 6-18-16-36-15-12-28-27-29-33 0-7-2-20-2-29-1-10-9-18-17-18-12 0-15-13-15-61 0-40 5-65 15-75 8-9 15-26 15-39 0-12 7-25 15-29 8-3 15-17 15-31 0-20 5-25 28-26 38-1 679-1 725 0 23 1 36 5 32 11-12 20 6 49 33 52l27 3 0 130 0 130-35 5c-29 4-36 10-38 33l-3 27-381 0c-325 0-379-2-369-14zM6794 4668c1-15-8-27-26-36-19-9-28-21-28-36 0-13-7-26-15-30-12-4-15-24-15-94 0-94 8-112 47-112 19 0 23-5 23-29 0-26 3-29 43-33 34-3 567-3 710 1 24 1 37 6 36 14-4 32 3 46 23 49 18 2 24 12 30 43 10 60 9 155-2 155-5 0-10 13-10 29 0 23-7 33-27 43-19 9-28 21-27 36l1 22-382 0-382 0 1-22zM6171 3014c11-14 10-18-6-30-11-8-36-17-57-21-21-3-38-9-38-14 0-4-11-25-25-45-14-20-25-48-25-61 0-22-3-24-25-19l-26 7 3-63c3-59 5-63 28-67 29-4 40-17 40-48 0-17 6-23 24-23 29 0 50-24 43-49-4-17 1-20 32-23 31-3 36-7 39-30 3-23 8-28 32-28 28 0 40-15 40-50 0-13 9-20 28-22 22-2 28-8 30-35 3-26 8-32 30-35 22-2 28-9 30-35 3-28 7-32 35-35 28-3 32-7 32-30l-1-28 118 0c117 0 117 0 130 27 7 14 22 31 33 37 49 28 54 45 55 166l0 116-27-1c-24 0-28 4-26 28 2 23-2 27-26 27-32 0-56 22-47 45 4 12-2 15-29 15-37 0-60 25-49 54 4 11-3 15-28 18-29 3-33 7-36 35-3 28-7 32-35 35-29 3-32 6-31 34 1 26-1 31-17 27-25-7-49 14-49 42 0 19-7 23-41 28-53 7-68 21-51 47 12 19 9 20-54 20-60 0-65-2-53-16z" fill="#ffffff" class="color000 svgShape"></path><path d="M7079 2479c49-19-30-49-129-49-66 0-67 0-62-25 3-20-1-27-23-35-14-5-39-10-55-10-23 0-27-3-23-20 6-24-13-50-36-50-9 0-22-13-28-30-6-16-18-30-26-30-9 0-25-16-37-35-12-19-26-35-32-35-6 0-7-7-4-16 9-23-13-46-35-39-17 6-19 0-19-69 0-42-4-76-9-76-5 0-12-19-16-42l-7-43-9 33c-5 17-12 32-14 32-3 0-5-38-5-85 0-63 3-83 13-80 27 10 37-13 44-110l8-100 30-5c26-4 30-10 33-43 2-25 10-40 23-48 16-8 18-13 8-25-9-11-7-14 13-14 30 0 48-17 48-47 0-21 5-23 49-23 51 0 78-18 67-45-4-11 2-15 22-15 36 0 100-18 107-31 4-5 1-16-5-24-11-13 13-15 186-14 110 0 193 3 187 6-46 18 24 63 98 63 28 0 39 4 36 13-10 29 13 47 61 47 46 0 48 1 47 28 0 22 5 28 28 30 22 3 27 7 22 23-11 34 4 59 35 59 27 0 28 2 35 64 6 61 8 65 33 68l27 3 3 215c2 183 0 212-11 196-17-24-37-13-37 20 0 13-4 24-10 24-5 0-10 15-10 34 0 30-3 35-27 38-26 3-29 7-36 66-8 59-10 62-36 62-33 0-64 30-55 54 5 13-1 16-29 16-20 0-48 5-62 10-22 9-26 15-21 35 6 25 6 25-66 25-113 0-190 28-136 49 16 7-6 10-77 10-74 0-94-3-76-10zM4422 2270c-13-22-38-35-85-45l-27-5 2-393 3-392 35-6c19-3 59-18 89-33 65-34 109-31 167 8 21 14 50 26 65 26 24 0 27 4 33 53 8 71 7 652-2 702-6 35-11 40-37 43-33 4-65 28-65 49 0 10-20 13-83 13-72 0-84-3-95-20zM4287 1336c4-19-1-25-28-35-17-6-45-11-61-11-20 0-28-4-25-12 9-26-13-48-48-48-31 0-34-3-32-27 2-23-3-28-28-33-21-4-29-11-27-23 5-32-17-59-44-53-22 6-23 4-18-23 5-23 2-32-15-40-12-7-21-19-22-29 0-10-3-12-6-4-13 33-21 0-27-123-3-75-3-189 0-255l7-120 29 0c25 0 28-3 28-34 0-51 26-104 52-108 17-2 24-11 26-30 3-23 8-28 31-28 37 0 69-34 51-55-11-13-9-15 14-15 19 0 26-5 26-20 0-20 7-20 335-20 328 0 335 0 335 20 0 15 7 20 26 20 20 0 25 4 20 16-9 22 21 54 50 54 17 0 23 6 26 28 2 22 8 28 36 30 27 3 32 7 32 31 0 15 4 31 9 36 5 6 11 21 13 35 2 19 9 25 26 24 18 0 22 5 22 29 0 28 14 129 26 185 6 29 26 24 35-9 4-14 7 5 8 49 1 67-1 73-17 68-28-9-41 26-50 129-7 89-7 90-34 93-25 3-28 8-28 38 0 27-5 37-25 46-28 13-30 19-13 36 9 9 7 12-8 12-27 0-56 33-48 54 5 12 0 16-19 16-46 0-80 18-74 40 4 17 0 20-33 20-58 0-93 19-87 47l4 23-227 0-227 0 4-24z" fill="#ffffff" class="color000 svgShape"></path></g></svg></g></svg>