<svg id="SvgjsSvg1013" width="288" height="288" xmlns="http://www.w3.org/2000/svg" version="1.1" xmlns:xlink="http://www.w3.org/1999/xlink" xmlns:svgjs="http://svgjs.com/svgjs"><defs id="SvgjsDefs1014"></defs><g id="SvgjsG1015"><svg xmlns="http://www.w3.org/2000/svg" width="288" height="288" version="1.0" viewBox="0 0 900 900"><g transform="matrix(.1 0 0 -.1 0 900)" fill="#ffffff" class="color000 svgShape"><path d="M4160 8795 c0 -12 -13 -15 -55 -15 -46 0 -53 -2 -48 -16 10 -27 -25-44 -90 -44 -47 0 -58 -3 -54 -14 9 -24 -15 -35 -83 -38 -48 -2 -64 -6 -62
-17 6 -29 -20 -41 -90 -41 -64 0 -69 -2 -57 -16 21 -26 -14 -44 -86 -44 -57 0
-62 -2 -61 -22 1 -25 -26 -35 -101 -37 -35 -1 -41 -4 -36 -17 9 -24 -15 -34
-89 -34 -56 0 -66 -3 -62 -15 12 -31 -15 -45 -88 -45 -59 0 -69 -2 -59 -14 22
-26 -13 -46 -83 -46 -58 0 -63 -1 -62 -22 1 -21 -4 -23 -69 -28 -52 -4 -69 -9
-67 -19 6 -30 -20 -41 -97 -42 -42 0 -70 -3 -63 -6 18 -7 15 -31 -7 -43 -11
-5 -44 -10 -74 -10 -50 0 -55 -2 -50 -20 7 -26 -30 -40 -102 -40 -46 0 -53 -3
-48 -16 9 -24 -15 -34 -91 -34 -57 0 -67 -2 -57 -14 22 -27 -13 -46 -86 -46
-55 0 -64 -2 -54 -14 20 -24 -24 -46 -91 -46 -44 0 -56 -3 -52 -13 8 -23 -19
-36 -81 -39 -51 -3 -60 -6 -64 -23 -5 -29 -19 -35 -89 -35 -58 0 -63 -2 -57
-19 9 -28 -22 -41 -94 -41 -52 0 -59 -2 -54 -16 10 -27 -25 -44 -89 -44 -50 0
-58 -3 -58 -19 0 -25 -19 -31 -92 -31 -53 0 -59 -2 -48 -15 10 -12 10 -18 0
-30 -9 -11 -33 -15 -87 -15 -63 0 -74 -2 -64 -14 18 -22 -13 -39 -82 -45 -53
-5 -62 -9 -62 -26 0 -18 -8 -21 -70 -25 -52 -4 -69 -9 -67 -19 6 -29 -20 -41
-89 -41 -57 0 -67 -3 -63 -15 12 -31 -15 -45 -88 -45 -59 0 -69 -2 -59 -14 18
-22 -13 -39 -79 -44 -51 -4 -59 -7 -62 -26 -3 -19 -10 -21 -80 -24 l-78 -3 0
-2324 c0 -2318 0 -2325 20 -2325 27 0 25 -18 -2 -30 -17 -6 -5 -9 48 -9 71 -1
104 -16 89 -41 -4 -6 5 -10 22 -11 68 -2 97 -14 90 -39 -5 -18 0 -20 48 -20
55 0 82 -17 71 -45 -4 -12 4 -15 48 -15 56 0 81 -15 70 -43 -5 -13 4 -16 53
-19 53 -3 58 -5 57 -25 -1 -21 4 -23 51 -23 55 0 82 -17 71 -45 -4 -12 4 -15
42 -15 57 0 77 -11 69 -39 -4 -18 0 -20 57 -23 56 -3 61 -5 60 -25 -1 -21 4
-23 46 -23 53 0 86 -19 77 -44 -5 -13 1 -16 42 -16 51 0 78 -18 67 -45 -4 -12
4 -15 48 -15 54 0 80 -14 74 -41 -2 -10 13 -15 52 -19 48 -4 55 -8 58 -28 3
-19 9 -22 46 -22 49 0 82 -20 73 -44 -5 -13 1 -16 41 -16 58 0 77 -11 69 -39
-5 -19 -1 -21 46 -21 59 0 83 -11 74 -34 -5 -13 1 -16 36 -16 52 0 94 -25 76
-46 -10 -12 -3 -14 38 -14 56 0 90 -18 80 -44 -5 -14 2 -16 47 -16 54 0 80
-14 74 -41 -2 -10 13 -15 52 -19 49 -4 55 -7 54 -27 0 -20 4 -23 37 -23 57 0
92 -16 86 -40 -5 -18 0 -20 40 -20 57 0 86 -15 78 -41 -6 -17 -1 -19 39 -19
57 0 76 -8 76 -31 0 -15 8 -19 33 -20 54 -2 82 -13 82 -34 0 -17 9 -21 54 -26
55 -7 78 -24 59 -46 -8 -10 1 -13 43 -13 61 0 75 -6 80 -35 3 -16 14 -21 59
-25 48 -4 55 -8 54 -26 0 -19 7 -22 54 -27 57 -6 79 -22 60 -44 -8 -10 1 -13
43 -13 64 0 84 -10 76 -39 -4 -18 0 -20 57 -23 55 -3 61 -5 60 -24 0 -18 7
-22 48 -27 59 -7 68 -12 68 -38 0 -16 7 -19 49 -19 51 0 78 -18 67 -45 -4 -12
4 -15 48 -15 54 0 80 -14 74 -41 -2 -10 13 -15 52 -19 48 -4 55 -8 58 -27 3
-20 9 -23 51 -23 51 0 78 -18 67 -45 -4 -12 4 -15 48 -15 56 0 81 -15 70 -43
-5 -13 4 -16 53 -19 51 -3 58 -6 61 -25 3 -20 9 -23 51 -23 51 0 78 -18 67
-45 -4 -12 4 -15 42 -15 57 0 77 -11 69 -39 -4 -18 0 -20 57 -23 58 -3 61 -4
64 -30 3 -25 7 -27 60 -30 52 -3 57 -5 56 -26 -1 -20 4 -22 46 -22 50 0 77
-18 66 -45 -4 -12 4 -15 44 -15 38 0 50 -4 50 -15 0 -13 22 -15 140 -15 118 0
140 2 140 15 0 9 9 15 25 15 18 0 23 4 19 15 -10 25 16 45 56 45 32 0 36 3 36
23 -1 18 5 23 39 27 26 4 39 10 37 19 -5 25 20 41 65 41 39 0 44 2 33 15 -17
21 -4 34 41 41 23 4 38 11 36 18 -10 26 14 46 53 46 32 0 38 3 33 16 -8 21 13
34 56 34 26 0 32 3 27 16 -10 26 13 44 54 44 32 0 36 3 36 22 -1 19 6 25 41
32 31 7 43 15 45 30 2 16 11 22 41 24 31 3 37 7 37 27 0 26 17 35 64 35 28 0
32 3 31 27 0 25 4 29 40 33 32 4 40 9 40 25 0 15 10 22 42 29 32 6 43 14 45
30 2 17 11 22 45 24 32 2 41 7 36 18 -9 24 17 44 58 44 30 0 37 3 33 15 -9 23
15 45 51 45 26 0 31 4 31 23 -1 19 5 22 41 25 37 3 42 6 45 30 3 24 8 27 45
30 34 2 41 6 36 19 -8 22 23 43 64 43 25 0 31 4 27 15 -10 24 15 45 53 45 19
0 32 4 29 9 -15 23 7 41 50 41 35 0 42 3 38 15 -10 24 15 45 52 45 27 0 32 3
27 16 -8 23 23 44 64 44 22 0 31 4 28 12 -8 22 9 36 45 40 23 2 34 8 32 17 -5
24 20 41 60 41 33 0 39 3 34 16 -9 24 12 44 49 44 26 0 31 4 31 22 -1 18 7 23
47 32 27 6 46 14 42 18 -15 14 18 38 52 38 28 0 34 3 29 16 -10 27 13 44 61
44 38 0 43 2 34 14 -16 19 12 46 48 46 22 0 27 4 27 23 -1 19 5 23 44 27 37 4
45 9 50 30 5 20 13 26 42 28 32 3 37 7 40 30 3 24 8 27 46 30 32 2 42 7 39 17
-8 19 25 45 56 45 22 0 27 5 27 25 0 23 3 25 49 25 45 0 49 2 44 21 -7 25 11
39 50 39 19 0 27 4 24 13 -10 28 13 47 57 47 38 0 42 3 42 23 -1 19 5 22 37
25 30 3 37 7 33 19 -10 26 14 43 59 43 39 0 43 2 38 21 -7 25 11 39 50 39 22
0 27 5 27 24 0 26 16 36 62 36 21 0 29 4 25 14 -9 23 15 36 70 36 29 0 53 5
53 10 0 6 -7 10 -15 10 -8 0 -15 5 -15 10 0 6 7 10 15 10 13 0 15 265 15 2325
l0 2325 -79 0 c-92 0 -111 5 -111 31 0 16 -8 19 -54 19 -73 0 -110 14 -103 40
5 18 0 20 -62 20 -78 0 -114 17 -92 44 12 14 6 16 -67 16 -81 0 -106 11 -100
41 2 11 -16 15 -72 19 -70 5 -75 7 -74 28 1 21 -3 22 -66 22 -72 0 -108 16
-97 44 6 14 -3 16 -66 16 -82 0 -102 9 -94 39 5 19 0 20 -72 23 -70 3 -76 5
-79 26 -3 20 -9 22 -57 22 -72 0 -109 14 -102 40 5 19 0 20 -67 20 -83 0 -120
17 -97 44 12 14 6 16 -60 16 -81 0 -95 5 -100 35 -4 17 -14 21 -79 25 -70 5
-75 7 -74 28 1 20 -4 22 -57 22 -76 0 -113 14 -106 40 5 18 0 20 -62 20 -78 0
-114 17 -92 44 12 14 6 16 -67 16 -79 0 -113 14 -97 40 4 6 -11 10 -42 11 -78
2 -108 12 -108 34 0 18 -9 21 -72 25 -80 7 -104 19 -83 45 11 13 4 15 -62 15
-77 0 -112 13 -106 40 2 12 -10 16 -57 18 -90 3 -108 9 -102 32 5 18 0 20 -57
20 -68 0 -103 17 -93 44 6 14 -3 16 -67 16 -77 0 -104 13 -92 45 4 12 -6 15
-63 15 -82 0 -101 6 -101 31 0 16 -8 19 -54 19 -73 0 -110 14 -103 40 5 18 0
20 -60 20 -35 0 -73 5 -84 10 -22 12 -25 36 -6 43 6 3 -22 6 -64 6 -77 1 -103
12 -97 42 2 10 -13 15 -57 17 -90 3 -108 9 -102 32 5 18 0 20 -62 20 -73 0
-109 16 -98 44 6 14 -2 16 -58 16 -51 0 -65 3 -65 15 0 13 -23 15 -150 15
-127 0 -150 -2 -150 -15z m211 -777 c4 -7 3 -18 -3 -25 -8 -10 3 -13 56 -13
79 0 110 -12 101 -41 -6 -18 -1 -19 68 -19 74 0 108 -14 92 -40 -4 -6 14 -10
52 -11 82 -1 108 -11 107 -37 -1 -21 4 -22 66 -22 77 0 113 -17 91 -44 -12
-14 -6 -16 67 -16 57 0 83 -4 92 -15 6 -8 9 -18 6 -23 -8 -13 29 -22 90 -22
56 0 92 -23 63 -41 -9 -6 7 -9 48 -9 80 0 117 -14 110 -40 -5 -19 0 -20 66
-20 82 0 102 -9 94 -39 -5 -20 -1 -21 68 -21 72 0 106 -15 90 -40 -4 -6 17
-10 62 -10 75 0 111 -16 100 -44 -6 -14 3 -16 67 -16 77 0 104 -13 92 -45 -4
-12 6 -15 58 -15 76 0 96 -6 96 -30 0 -19 36 -30 104 -30 49 0 71 -12 63 -34
-5 -14 3 -16 61 -16 74 0 110 -16 99 -44 -6 -14 3 -16 61 -16 77 0 97 -9 89
-39 -5 -19 0 -20 77 -23 77 -3 81 -4 80 -25 -1 -21 4 -23 55 -24 80 -1 106
-11 105 -37 -1 -21 4 -22 66 -22 77 0 113 -17 91 -44 -12 -14 -5 -16 72 -16
62 0 88 -4 97 -15 6 -8 9 -18 6 -23 -8 -13 28 -22 85 -22 46 0 77 -19 65 -38
-3 -6 26 -11 69 -14 81 -4 107 -17 85 -43 -11 -13 -4 -15 62 -15 80 0 116 -15
105 -44 -6 -14 3 -16 61 -16 l67 0 -40 -25 c-27 -17 -55 -24 -87 -25 -43 0
-47 -2 -50 -27 -3 -26 -6 -28 -56 -31 -44 -3 -53 -6 -48 -19 11 -27 -14 -43
-65 -43 -39 0 -47 -3 -43 -15 10 -26 -16 -45 -62 -45 -37 0 -43 -3 -46 -22 -3
-20 -10 -23 -60 -26 -45 -2 -56 -6 -51 -18 10 -26 -17 -44 -67 -44 -42 0 -48
-2 -43 -19 8 -31 -29 -43 -119 -39 -82 3 -109 18 -86 45 8 10 -3 13 -54 13
-70 0 -105 16 -95 43 5 14 -5 17 -71 19 -71 3 -77 5 -80 26 -3 19 -10 22 -50
23 -71 2 -97 12 -96 37 1 20 -4 22 -62 22 -70 0 -105 20 -83 46 10 12 1 14
-54 14 -81 0 -97 6 -97 36 0 22 -4 23 -72 26 -67 3 -73 5 -76 26 -3 20 -9 22
-55 22 -60 0 -105 23 -87 45 8 10 -4 14 -65 17 -79 4 -105 18 -83 45 8 10 -3
13 -58 13 -76 0 -100 10 -91 34 5 13 -2 16 -46 17 -76 1 -102 11 -101 37 1 20
-4 22 -61 22 -67 0 -102 17 -92 44 6 14 -2 16 -57 16 -64 0 -90 13 -84 41 2
11 -16 15 -72 19 -70 5 -75 7 -74 28 1 20 -4 22 -61 22 -67 0 -102 17 -92 44
5 14 -2 16 -51 16 -64 0 -99 17 -89 44 6 14 -3 16 -66 16 -72 0 -100 11 -91
35 4 8 -13 14 -56 18 -69 6 -97 22 -79 43 10 12 -1 14 -59 14 -51 0 -75 4 -87
16 -12 12 -13 19 -4 30 9 11 -3 14 -67 16 -74 3 -78 4 -84 28 -5 22 -12 25
-55 28 -80 4 -98 10 -92 32 5 18 0 20 -57 20 -68 0 -103 17 -93 44 6 14 -2 16
-56 16 -74 0 -110 18 -88 44 12 14 6 16 -62 16 -74 0 -108 14 -92 40 4 6 -17
10 -62 10 -46 0 -76 5 -89 15 -19 15 -19 15 0 30 14 10 44 15 99 15 69 0 78 2
73 16 -12 31 13 44 88 45 39 0 65 3 59 6 -22 8 -14 33 13 43 14 6 49 10 78 10
48 0 53 2 52 23 -1 21 3 22 75 25 72 3 77 4 72 23 -8 29 12 39 84 39 52 0 61
3 57 15 -11 27 17 48 55 41 19 -3 38 -11 42 -18z m-1787 -755 c-1 -21 4 -23
61 -23 67 0 102 -17 92 -44 -5 -14 2 -16 56 -16 72 0 92 -10 84 -39 -5 -19 0
-20 72 -23 72 -3 76 -4 75 -25 -1 -21 4 -23 52 -23 29 0 64 -4 78 -10 27 -10
35 -35 14 -43 -7 -3 19 -6 58 -6 81 -1 117 -18 95 -45 -12 -14 -7 -16 52 -16
78 0 97 -6 97 -31 0 -19 24 -26 105 -31 32 -3 40 -7 40 -23 0 -17 9 -21 68
-26 71 -6 96 -21 75 -46 -8 -10 3 -13 56 -13 79 0 110 -12 101 -41 -6 -17 -1
-19 58 -19 65 0 97 -16 82 -40 -4 -6 14 -10 52 -10 68 0 112 -22 92 -46 -10
-12 -1 -14 58 -14 80 0 116 -17 94 -44 -12 -14 -7 -16 57 -16 69 0 103 -15 88
-39 -6 -9 35 -18 114 -23 27 -2 35 -7 35 -23 0 -17 9 -21 68 -26 75 -6 98 -19
77 -44 -11 -13 -5 -15 54 -15 79 0 110 -12 101 -40 -6 -17 0 -19 67 -22 68 -3
73 -4 72 -25 -1 -21 4 -23 52 -23 71 0 108 -14 101 -40 -5 -18 0 -20 56 -20
72 0 92 -10 84 -39 -5 -20 -1 -21 58 -21 76 0 95 -6 95 -31 0 -16 8 -19 49
-19 69 0 105 -15 98 -40 -5 -18 0 -20 46 -20 79 0 100 -8 94 -36 -4 -23 -2
-24 62 -24 76 0 96 -9 88 -39 -5 -19 0 -20 72 -23 72 -3 76 -4 75 -25 -1 -21
4 -23 55 -24 58 0 142 -27 149 -48 2 -7 -18 -11 -63 -11 -54 0 -65 -3 -57 -13
18 -22 -4 -40 -55 -44 -43 -5 -49 -8 -49 -27 1 -18 -7 -22 -51 -30 -41 -8 -53
-14 -55 -30 -3 -18 -11 -21 -59 -24 -52 -3 -56 -5 -52 -23 8 -28 -12 -39 -69
-39 -38 0 -46 -3 -42 -15 11 -26 -16 -45 -63 -45 -28 0 -42 -4 -38 -10 14 -22
-17 -40 -67 -40 -42 0 -49 -3 -44 -16 11 -28 -13 -44 -66 -44 -42 0 -49 -3
-44 -16 12 -31 -13 -44 -83 -44 -73 0 -109 16 -98 44 6 14 -3 16 -62 16 -72 0
-97 13 -85 43 5 14 -5 17 -68 19 -68 3 -73 4 -72 26 1 20 -4 22 -58 22 -33 0
-68 5 -79 10 -22 12 -25 36 -6 43 6 3 -15 6 -48 6 -88 2 -108 9 -102 37 4 23
3 24 -68 24 -72 0 -106 15 -90 40 4 6 -8 10 -32 11 -71 2 -98 12 -97 37 1 20
-4 22 -61 22 -67 0 -102 17 -92 44 6 14 -2 16 -57 16 -80 0 -96 6 -96 36 0 22
-4 23 -67 26 -63 3 -68 5 -67 26 1 20 -4 22 -61 22 -67 0 -102 17 -92 44 6 14
-2 16 -56 16 -69 0 -104 16 -94 44 6 14 -3 16 -62 16 -69 0 -101 15 -86 40 4
6 -10 10 -37 11 -76 2 -103 12 -102 37 1 20 -4 22 -61 22 -67 0 -102 17 -92
44 5 14 -2 16 -52 16 -75 0 -91 6 -91 36 0 22 -4 23 -72 26 -68 3 -73 4 -72
26 1 20 -4 22 -58 22 -33 0 -68 5 -79 10 -22 12 -25 36 -6 43 6 3 -18 6 -54 6
-70 1 -106 17 -96 44 5 14 -5 17 -71 19 -73 3 -77 4 -76 26 1 20 -4 22 -45 23
-79 2 -106 12 -105 37 1 20 -4 22 -61 22 -66 0 -93 15 -81 45 4 12 -6 15 -63
15 -72 0 -97 13 -85 44 5 14 -3 16 -64 16 -69 0 -103 15 -87 40 4 6 -12 10
-44 10 -69 0 -105 15 -98 40 5 18 0 20 -57 20 -73 0 -108 18 -87 44 12 14 6
16 -60 16 -61 1 -81 5 -114 25 l-40 25 36 0 c53 0 100 11 93 22 -15 23 20 38
88 38 61 0 69 2 64 16 -12 31 13 44 84 44 62 0 67 1 66 22 -1 25 25 35 95 37
41 1 46 3 45 24 -1 21 3 22 77 25 71 3 78 4 72 22 -8 26 22 40 89 40 47 0 54
2 49 16 -10 28 25 44 95 44 41 0 61 4 57 10 -4 6 -4 18 -1 26 5 12 23 14 93
12 84 -3 88 -4 87 -25z m-1706 -627 c-5 -23 -2 -24 59 -28 70 -4 94 -18 73
-43 -11 -13 -5 -15 54 -15 72 0 108 -12 100 -34 -6 -16 24 -26 82 -26 42 0 71
-20 59 -40 -4 -6 16 -10 57 -10 75 0 111 -18 89 -44 -12 -14 -7 -16 48 -16 74
0 105 -13 96 -41 -6 -18 -1 -19 63 -19 69 0 102 -15 87 -40 -4 -6 14 -10 52
-10 65 0 100 -17 90 -44 -6 -14 2 -16 56 -16 74 0 110 -18 88 -44 -12 -14 -6
-16 62 -16 74 0 108 -14 92 -40 -4 -6 11 -10 42 -11 72 -1 98 -11 97 -37 -1
-20 4 -22 61 -22 72 0 107 -18 86 -44 -12 -14 -7 -16 55 -16 79 0 99 -9 91
-39 -5 -19 0 -20 72 -23 70 -3 76 -5 79 -25 3 -20 10 -23 45 -24 66 -2 92 -12
91 -37 -1 -20 4 -22 61 -22 67 0 102 -17 92 -43 -5 -14 5 -17 66 -19 66 -3 72
-5 75 -25 3 -20 9 -23 52 -23 68 0 104 -15 97 -40 -5 -19 0 -20 63 -20 71 0
98 -14 86 -45 -4 -12 5 -15 50 -15 67 0 97 -14 89 -40 -6 -18 1 -19 72 -22 74
-3 78 -4 77 -25 -1 -21 4 -23 50 -24 75 -1 101 -11 100 -37 -1 -20 4 -22 61
-22 66 0 93 -15 81 -45 -4 -12 6 -15 63 -15 67 0 101 -15 87 -38 -3 -6 22 -11
58 -14 71 -4 104 -22 85 -44 -9 -12 -1 -14 50 -14 34 0 71 -5 82 -10 22 -12
25 -36 7 -43 -7 -3 18 -6 55 -6 80 -1 111 -13 102 -42 -6 -17 -1 -19 57 -19
69 0 94 -10 85 -33 -4 -12 8 -15 65 -19 77 -6 99 -18 78 -43 -11 -13 -5 -15
51 -15 91 0 112 -7 106 -36 -3 -17 0 -24 12 -24 15 0 16 -165 16 -1970 l0
-1970 -32 0 c-47 0 -63 9 -63 36 0 22 -4 24 -49 24 -48 0 -80 18 -67 38 3 5
-19 12 -50 14 -56 5 -77 19 -67 45 4 9 -5 13 -33 13 -66 0 -86 10 -81 36 4 23
1 24 -48 24 -52 0 -84 17 -71 38 7 11 -27 22 -70 22 -32 0 -60 22 -50 38 3 5
-19 12 -50 14 -58 5 -81 22 -62 45 8 10 1 13 -36 13 -60 0 -89 15 -81 41 6 17
1 19 -47 19 -56 0 -80 12 -71 36 4 10 -4 14 -28 15 -59 2 -84 13 -83 37 0 19
-5 22 -43 22 -57 0 -86 15 -78 41 6 17 1 19 -48 19 -54 0 -86 17 -73 38 7 11
-27 22 -70 22 -31 0 -51 21 -38 41 3 5 -16 9 -41 9 -59 0 -88 15 -80 40 5 17
0 19 -52 22 -55 3 -58 4 -61 31 -3 25 -6 27 -51 27 -49 0 -79 18 -66 40 4 6
-12 10 -44 10 -53 0 -85 19 -75 45 5 12 -4 15 -44 15 -52 0 -79 17 -68 45 4
12 -4 15 -48 15 -53 0 -85 17 -72 38 7 12 -27 22 -76 22 -36 0 -43 6 -39 37 1
9 -14 13 -47 13 -52 0 -79 17 -68 45 4 12 -4 15 -48 15 -56 0 -81 15 -70 43 5
13 -4 16 -53 19 -51 3 -58 6 -61 25 -3 20 -9 23 -46 23 -49 0 -82 20 -73 44 5
13 -1 16 -41 16 -58 0 -77 11 -69 39 5 19 1 21 -46 21 -59 0 -83 11 -74 33 6
17 -19 27 -69 27 -33 0 -60 22 -49 40 4 6 -10 10 -37 10 -51 0 -84 19 -75 44
5 14 -2 16 -47 16 -57 0 -81 15 -70 44 5 14 -2 16 -48 16 -56 0 -80 12 -71 36
4 10 -4 14 -30 14 -56 0 -90 17 -84 40 5 18 0 20 -42 20 -59 0 -92 20 -72 44
12 14 8 16 -40 16 -61 0 -85 11 -76 34 5 13 -1 16 -31 17 -61 2 -87 13 -86 37
0 19 -5 22 -37 22 -57 0 -92 16 -86 40 5 18 0 20 -41 20 -58 0 -77 11 -69 39
5 20 1 21 -54 21 -39 0 -61 4 -64 13 -3 6 -6 814 -7 1795 -3 1734 -2 1782 16
1782 14 0 17 -6 14 -24z" fill="#ffffff" class="color000 svgShape"></path><path d="M2253 5293c-21-3-30-9-27-17 3-8-1-20-8-27-7-8-13-23-13-34 0-13-8-21-21-23-18-2-22-9-20-35 1-28-3-32-26-35-22-3-28-9-28-28 0-19-5-24-24-24-19 0-25-6-28-27-2-22-9-29-30-31-17-2-27-9-27-20 0-9-4-35-8-57-6-31-13-41-31-43-16-3-22-10-22-28 0-19-5-24-24-24-18 0-25-7-29-30-5-24-12-30-32-30-18 0-25-5-25-18 0-11-9-29-20-42-11-13-20-28-21-34 0-6-4-2-9 9-14 36-23-9-14-72 11-69 14-71 165-72 80-1 110-5 119-16 6-8 9-19 5-25-4-6 6-10 24-10l31 0 0-460 0-460 29 0c45 0 61-10 61-36 0-23 3-24 63-24 69 0 93-10 84-34-5-14 3-16 56-16 79 0 105-7 113-32 5-18 6-18 25 3 18 21 19 43 19 455l0 433-22 3c-15 2-24 11-26 26-3 18 1 22 21 22 29 0 50-21 41-43-5-14 6-17 78-19 77-3 83-4 86-25 3-21 9-23 64-23l61 0-6 76c-8 89-10 94-43 94-23 0-24 3-24 55 0 54 0 55-30 55-30 0-30 1-30 55 0 54-1 56-31 62-29 5-30 8-24 40 9 48-2 73-30 73-22 0-24 5-27 53-3 48-5 52-30 55-27 3-28 6-29 60-1 31-3 49-6 39-6-22-29-16-25 7 2 9-4 16-13 16-10 0-15 10-15 34 0 25-4 33-16 32-20-1-42 61-36 105 4 32 3 33-10 15-22-28-36-12-43 49l-7 55-52-2c-28 0-65-3-83-5zM3598 4813c-2-22-9-29-30-31-21-3-27-9-30-30-2-21-9-28-29-30-21-2-26-8-22-22 3-12-3-22-16-29-12-7-18-17-14-27 4-10-2-17-16-21-16-4-21-13-21-39 0-29-3-34-24-34-19 0-25-6-28-27-2-22-9-29-30-31-22-3-28-9-28-28 0-17-5-24-20-24-22 0-44-40-42-76 2-26-22-48-42-41-11 4-14-1-13-21 2-22-3-27-28-32l-30-5-3-83-3-82 75 0c92 0 130-12 123-40-5-18 0-20 47-20 29 0 61-6 71-14 18-13 18-14-3-25l-22-12 2-486 3-487 39-8c51-11 70-26 55-44-9-11 5-14 73-16 76-3 83-5 86-24 3-19 12-22 103-30l100-9-2 490-1 490 46 3c55 4 90-12 83-38-4-17 2-19 62-22 57-3 67-6 76-25 7-16 18-23 36-23 31 0 39 19 39 97 0 49-1 52-30 58-25 5-30 11-30 36 0 24-4 29-24 29-23 0-39 22-35 46 1 5 1 21 0 37-1 22-6 27-26 27-24 0-25 2-25 63 0 62 0 63-27 62-27 0-28 2-31 56-3 50-5 56-21 52-28-7-36 12-40 90-1 22-6 27-26 27-20 0-25 5-25 24 0 53-12 85-34 88-18 3-22 11-26 58-4 48-8 55-30 60-23 5-25 11-28 68-3 54-5 62-23 62-13 0-19 6-17 18 3 14-6 17-59 20-61 3-62 3-65-25zM1767 3513c-9-8-9-466-1-487 5-12 20-16 64-16 60 0 88-16 76-45-4-12 4-15 48-15 54 0 85-17 71-40-4-6 9-10 34-10 59 0 94-16 88-40-5-18 0-20 42-20 54 0 87-19 78-44-5-13 1-16 42-16 65 0 81-7 81-36 0-22 4-24 53-24 55 0 79-13 70-36-4-11 6-14 45-14 52 0 79-17 68-45-4-12 5-15 53-15 62 0 86-14 75-44-5-14 2-16 49-16 55 0 86-17 72-40-4-6 10-10 37-10 53 0 95-25 77-46-10-12-3-14 43-14 65 0 100-19 79-44-12-14-8-16 42-16 71 0 87-7 87-36 0-22 4-24 49-24 49 0 79-18 66-40-4-6 9-10 34-10 59 0 94-16 88-40-5-18 0-20 48-20 55 0 80-15 69-43-5-13 5-16 58-19 57-3 63-5 66-25 3-20 9-23 52-23 51 0 86-21 76-46-4-11 6-14 42-14 57 0 77-11 69-39-4-18 0-20 52-23 53-3 56-5 59-30 3-27 6-28 55-28 29 0 62 3 75 6l22 6-2 252-3 251-50 3c-53 4-79 17-71 38 5 13-19 20-89 26-24 2-30 8-29 26 1 20-4 22-51 22-55 0-82 17-71 45 4 12-4 15-47 15-62 0-82 10-74 39 4 18 0 20-57 23-53 3-61 6-64 24-3 18-12 22-52 26-58 6-86 24-69 44 9 12 2 14-40 14-65 0-94 14-86 41 6 17 1 19-48 19-55 0-86 17-72 40 6 9-36 15-72 11-26-3-55 20-50 40 5 17-1 19-47 19-63 0-97 19-77 43 11 14 5 16-51 19-60 3-63 4-66 31-3 26-6 27-56 27-54 0-85 17-71 40 4 6-9 10-34 10-59 0-94 16-88 40 5 18 0 20-42 20-53 0-87 19-78 43 5 13-4 17-56 19-54 3-62 6-65 24-2 17-13 23-60 30-50 8-57 12-56 32 1 20-4 22-56 22-61 0-85 15-74 44 5 13-2 16-47 16-64 0-84 10-76 39 5 19 1 21-48 21-39 0-54 4-59 16-3 9-4 20 0 25 6 10-139 13-149 2z" fill="#ffffff" class="color000 svgShape"></path></g></svg></g></svg>