<svg id="SvgjsSvg1028" width="288" height="288" xmlns="http://www.w3.org/2000/svg" version="1.1" xmlns:xlink="http://www.w3.org/1999/xlink" xmlns:svgjs="http://svgjs.com/svgjs"><defs id="SvgjsDefs1029"></defs><g id="SvgjsG1030"><svg xmlns="http://www.w3.org/2000/svg" width="288" height="288" version="1.0" viewBox="0 0 900 900"><path d="M4430 8235 c0 -8 -7 -15 -15 -15 -8 0 -15 -9 -15 -19 0 -11 -8 -22-18 -25 -15 -5 -28 -27 -46 -80 -4 -11 -12 -16 -21 -12 -11 4 -15 -2 -15 -20
0 -17 -7 -28 -20 -31 -11 -3 -20 -12 -20 -19 0 -8 -11 -19 -25 -24 -15 -6 -25
-17 -25 -30 0 -11 -7 -20 -15 -20 -8 0 -12 -6 -9 -14 3 -8 -3 -19 -15 -26 -12
-6 -21 -20 -21 -31 0 -12 -8 -23 -20 -26 -11 -3 -20 -14 -20 -24 0 -12 -7 -19
-19 -19 -13 0 -21 -8 -23 -22 -2 -15 -11 -24 -25 -26 -13 -2 -20 -8 -17 -16 3
-7 -2 -18 -10 -25 -8 -7 -12 -19 -9 -27 4 -10 -2 -17 -16 -21 -12 -3 -21 -13
-21 -25 0 -11 -8 -22 -19 -25 -11 -3 -21 -15 -23 -27 -2 -13 -11 -22 -25 -24
-15 -2 -23 -10 -23 -23 0 -11 -7 -22 -15 -25 -8 -4 -15 -13 -15 -20 0 -8 -7
-17 -15 -20 -8 -4 -15 -17 -15 -30 0 -17 -6 -24 -20 -24 -15 0 -20 -7 -20 -25
0 -20 -5 -25 -26 -25 -14 0 -23 -4 -20 -9 10 -16 -6 -41 -26 -41 -10 0 -17 -4
-14 -9 3 -4 -1 -17 -9 -27 -8 -10 -15 -27 -15 -36 0 -11 -8 -18 -20 -18 -15 0
-20 -7 -20 -25 0 -18 -5 -25 -20 -25 -15 0 -20 -7 -20 -25 0 -18 -5 -25 -19
-25 -12 0 -21 -9 -25 -25 -4 -14 -11 -25 -16 -25 -6 0 -10 -6 -10 -14 0 -8 -6
-16 -14 -19 -8 -3 -16 -16 -18 -28 -2 -13 -12 -26 -23 -29 -12 -3 -20 -13 -20
-25 0 -13 -8 -21 -22 -23 -15 -2 -23 -10 -23 -24 0 -11 -8 -22 -20 -25 -11 -3
-20 -12 -20 -19 0 -8 -6 -17 -14 -20 -8 -3 -12 -13 -9 -25 4 -14 0 -19 -16
-19 -16 0 -21 -6 -21 -26 0 -17 -6 -28 -20 -31 -11 -3 -20 -14 -20 -24 0 -11
-9 -21 -24 -25 -16 -4 -23 -11 -19 -21 4 -9 -2 -16 -16 -20 -13 -3 -20 -11
-17 -19 3 -8 -4 -19 -15 -25 -11 -6 -18 -17 -15 -24 6 -17 -19 -39 -34 -30 -7
4 -9 -2 -5 -18 6 -21 3 -26 -17 -29 -15 -2 -24 -11 -26 -25 -2 -14 -10 -23
-22 -23 -13 0 -22 -13 -31 -45 -9 -32 -19 -45 -31 -45 -13 0 -18 -8 -18 -25 0
-20 -5 -25 -23 -25 -18 0 -23 -5 -23 -22 1 -17 -5 -24 -21 -26 -17 -3 -23 -10
-23 -28 0 -17 -6 -24 -20 -24 -12 0 -17 -5 -14 -13 3 -8 -2 -20 -11 -27 -8 -7
-15 -21 -15 -31 0 -12 -7 -19 -20 -19 -15 0 -20 -7 -20 -25 0 -18 -5 -25 -19
-25 -13 0 -21 -8 -23 -22 -2 -15 -11 -24 -26 -26 -12 -2 -20 -8 -16 -13 8 -14
-15 -39 -38 -39 -17 0 -19 -7 -16 -67 l3 -68 530 0 c389 0 555 4 622 14 94 13
142 9 113 -9 -8 -6 -54 -10 -102 -10 -70 0 -96 -4 -129 -22 -33 -17 -65 -23
-150 -26 -85 -4 -106 -7 -102 -18 3 -9 -7 -15 -36 -20 l-41 -7 0 -853 0 -854
-23 0 c-28 0 -47 17 -40 36 3 8 -6 14 -29 16 -24 2 -33 8 -32 21 1 12 -6 17
-26 17 -30 0 -56 23 -45 40 4 6 -5 10 -22 10 -37 0 -57 14 -50 33 5 12 -2 17
-31 19 -30 2 -38 7 -40 26 -3 18 -10 22 -39 22 -26 0 -36 5 -40 20 -4 13 -14
20 -30 20 -34 0 -66 19 -59 36 4 11 -4 14 -33 14 -39 0 -68 20 -56 40 4 6 -7
10 -29 10 -47 0 -66 9 -66 31 0 14 -9 18 -47 21 -39 2 -48 6 -47 21 1 13 -6
17 -31 17 -49 0 -88 17 -81 35 4 12 -4 15 -40 15 -58 0 -90 16 -73 36 10 12 2
14 -53 14 -65 0 -91 11 -81 36 4 11 -9 14 -60 14 -102 0 -147 27 -97 58 16 10
20 23 20 72 0 53 2 60 20 60 18 0 20 7 21 68 1 84 10 117 32 116 15 -2 17 9
17 71 0 69 2 74 23 77 20 3 22 8 22 68 l0 65 -72 3 c-61 2 -72 0 -67 -12 8
-21 -27 -36 -84 -36 -41 0 -50 -3 -48 -17 1 -15 -11 -20 -61 -27 -47 -7 -63
-14 -66 -28 -4 -15 -16 -18 -71 -18 -56 0 -64 -2 -59 -16 9 -24 -15 -34 -79
-34 -46 0 -56 -3 -52 -14 8 -21 -27 -36 -84 -36 -41 0 -50 -3 -48 -17 1 -13
-7 -19 -29 -21 -66 -5 -95 -14 -95 -26 0 -19 -23 -26 -86 -26 -45 0 -52 -3
-47 -16 9 -24 -15 -34 -79 -34 -47 0 -56 -3 -52 -15 8 -19 -33 -35 -91 -35
-35 0 -43 -3 -41 -17 1 -15 -9 -19 -57 -21 -51 -3 -59 -6 -67 -28 -9 -22 -15
-24 -74 -24 -56 0 -64 -2 -59 -16 9 -24 -15 -34 -79 -34 -47 0 -56 -3 -52 -15
8 -19 -33 -35 -87 -35 -27 0 -38 -4 -33 -11 11 -18 -17 -29 -78 -29 -50 0 -58
-3 -58 -19 0 -25 -19 -31 -91 -31 l-59 0 0 -94 c0 -93 0 -94 26 -100 20 -5 25
-12 21 -26 -3 -13 0 -20 9 -20 8 0 19 -11 23 -24 5 -13 19 -26 30 -29 12 -3
21 -12 21 -20 0 -8 9 -17 20 -20 11 -3 20 -14 20 -25 0 -11 9 -22 20 -25 12
-3 20 -14 20 -27 0 -14 8 -24 21 -27 12 -4 18 -11 15 -20 -3 -7 1 -16 9 -19 8
-4 15 -15 15 -25 0 -12 7 -19 19 -19 20 0 35 -25 25 -41 -3 -5 6 -9 20 -9 21
0 26 -5 26 -25 0 -18 5 -25 20 -25 15 0 20 -7 20 -25 0 -16 6 -25 15 -25 9 0
18 -8 22 -17 3 -10 13 -26 20 -35 8 -9 12 -22 8 -27 -3 -6 2 -11 13 -11 20 0
36 -25 26 -41 -3 -5 6 -9 20 -9 19 0 26 -5 26 -19 0 -10 9 -21 20 -24 14 -3
20 -14 20 -31 0 -19 5 -26 20 -26 13 0 20 -7 20 -19 0 -10 7 -24 15 -31 8 -7
15 -18 15 -25 0 -7 9 -15 20 -18 11 -3 20 -12 20 -20 0 -8 9 -17 20 -20 12 -3
20 -14 20 -26 0 -14 6 -21 20 -21 19 0 24 -10 21 -37 -1 -7 7 -13 17 -13 20 0
36 -25 27 -40 -3 -5 4 -12 16 -15 12 -4 18 -12 15 -21 -3 -8 1 -14 8 -14 16 0
29 -27 20 -41 -3 -5 6 -9 20 -9 21 0 26 -5 26 -25 0 -18 5 -25 20 -25 19 0 24
-10 21 -37 -1 -6 9 -13 21 -15 13 -2 24 -11 27 -23 2 -11 9 -24 17 -28 8 -4
14 -14 14 -21 0 -8 7 -16 15 -20 8 -3 15 -15 15 -26 0 -13 7 -20 20 -20 15 0
20 -7 20 -24 0 -18 6 -26 22 -28 16 -2 22 -9 21 -24 -2 -15 3 -20 20 -20 17 1
23 -5 25 -25 2 -17 11 -29 24 -32 13 -4 19 -11 15 -21 -3 -8 1 -17 9 -20 8 -3
14 -12 14 -21 0 -8 12 -20 26 -25 17 -7 24 -15 20 -25 -4 -12 6 -15 59 -15
l65 0 2 43 c1 23 2 51 3 62 1 11 3 35 4 53 1 25 5 32 21 32 18 0 20 7 20 58 0
92 10 132 31 132 17 0 19 8 19 64 0 75 14 121 34 113 10 -4 15 16 19 91 5 88
12 125 38 187 5 11 6 -34 2 -101 -3 -67 -3 -142 1 -168 l7 -46 47 0 c70 0 95
-9 89 -31 -5 -17 1 -19 45 -19 62 0 95 -15 77 -36 -10 -12 -3 -14 41 -14 43 0
53 -3 57 -20 3 -13 14 -20 29 -20 39 0 77 -19 70 -35 -4 -11 2 -15 27 -15 41
0 62 -13 54 -34 -5 -13 1 -16 33 -16 38 0 45 -6 41 -37 -1 -7 14 -13 36 -15
29 -2 38 -7 37 -20 -1 -12 5 -18 18 -18 30 0 60 -20 54 -36 -4 -10 2 -14 18
-14 26 0 51 -24 42 -39 -4 -5 6 -11 21 -13 20 -2 29 -9 31 -25 3 -17 10 -23
29 -23 16 0 27 -7 30 -19 3 -11 19 -24 35 -30 21 -7 28 -15 24 -26 -3 -10 1
-15 13 -15 22 0 45 -25 36 -40 -4 -6 4 -10 19 -10 21 0 26 -5 26 -25 0 -18 5
-25 20 -25 12 0 24 -10 29 -24 5 -13 17 -26 26 -30 10 -3 15 -12 12 -19 -3 -8
4 -19 15 -26 11 -7 17 -19 14 -27 -4 -9 1 -14 15 -14 12 0 23 -10 29 -25 5
-14 16 -25 25 -25 8 0 15 -8 15 -19 0 -10 9 -21 19 -24 13 -3 21 -17 26 -46 5
-32 13 -44 32 -52 18 -7 23 -14 18 -29 -5 -14 -3 -18 8 -14 14 5 39 -17 36
-32 -6 -37 3 -63 24 -66 18 -2 23 -10 25 -45 3 -35 7 -43 23 -43 15 0 19 -7
19 -34 0 -47 9 -66 31 -66 17 0 19 -8 19 -62 0 -44 3 -58 10 -48 7 12 12 12
22 2 10 -10 14 -133 16 -582 l2 -570 380 0 380 0 0 349 c0 192 -3 356 -6 365
-3 9 -12 16 -20 16 -17 0 -16 -14 -23 175 l-6 160 -70 3 c-76 3 -103 16 -84
38 9 11 7 14 -12 14 -31 0 -53 15 -45 29 4 6 0 11 -8 11 -12 0 -16 11 -16 50
0 42 -3 50 -19 50 -19 0 -31 39 -31 108 0 25 -4 32 -20 32 -17 0 -19 8 -22 68
-3 61 -5 67 -25 70 -21 3 -23 9 -23 65 0 43 -3 57 -10 47 -18 -29 -33 8 -38
95 l-5 85 27 0 c24 0 26 3 26 44 0 60 15 97 36 89 11 -4 15 -1 14 13 -1 10 -2
36 -1 57 1 30 5 37 21 37 17 0 20 7 20 44 0 38 3 45 25 50 20 5 25 12 25 40 0
62 11 96 31 96 16 0 19 8 19 50 0 43 3 50 20 50 20 0 26 17 21 68 -1 18 3 22
24 22 15 0 25 5 24 13 -4 32 2 37 51 37 39 0 48 3 44 14 -8 22 28 36 89 36 45
0 55 3 53 16 -1 21 46 38 79 30 16 -4 25 -13 25 -26 0 -15 7 -20 28 -20 16 0
37 -7 48 -15 16 -13 17 -16 4 -25 -10 -7 32 -10 138 -10 104 0 151 3 147 10
-12 20 17 40 56 40 28 0 37 4 33 13 -3 8 2 20 11 27 23 19 91 1 89 -23 -2 -14
7 -17 50 -17 73 0 99 -9 93 -31 -4 -15 2 -18 42 -21 39 -3 46 -6 49 -25 2 -12
12 -25 23 -28 12 -4 18 -13 15 -21 -3 -8 1 -14 9 -14 10 0 15 -15 17 -48 3
-40 6 -47 26 -50 19 -3 22 -9 22 -52 0 -39 3 -48 17 -46 19 1 31 -30 32 -90 1
-32 5 -43 20 -47 15 -4 20 -15 23 -48 2 -37 7 -45 26 -47 20 -3 22 -9 22 -57
0 -44 3 -53 15 -49 19 8 35 -33 35 -88 0 -31 4 -41 20 -45 11 -3 20 -14 20
-25 0 -21 -24 -51 -34 -41 -3 4 -6 -22 -6 -56 0 -56 -2 -62 -25 -71 -23 -9
-25 -14 -25 -74 0 -59 -2 -65 -22 -68 -21 -3 -23 -9 -26 -69 -2 -57 -6 -68
-22 -72 -16 -4 -20 -14 -20 -45 0 -56 -16 -96 -35 -88 -12 4 -15 -1 -13 -22 3
-23 -1 -27 -24 -30 -19 -2 -28 -10 -30 -25 -3 -20 -10 -22 -78 -27 l-75 -5 0
-92 c0 -67 -3 -93 -12 -93 -8 0 -13 26 -16 83 -1 45 -4 -81 -5 -280 l-2 -363
-25 -16 c-25 -16 -25 -18 -25 -160 l0 -144 380 0 379 0 3 572 c2 319 7 579 12
587 8 12 11 11 23 -4 11 -17 13 -11 13 43 0 55 2 62 20 62 16 0 21 9 26 50 5
39 11 50 25 50 14 0 19 9 21 43 2 35 7 43 26 45 20 3 29 29 23 66 -3 14 22 37
34 32 8 -3 11 2 8 15 -4 13 2 21 21 29 14 5 26 13 25 17 -5 25 16 76 33 80 10
3 18 14 18 24 0 11 7 19 15 19 9 0 20 11 25 25 6 15 17 25 29 25 14 0 18 5 14
19 -3 13 2 21 16 26 12 4 18 12 14 20 -3 9 2 18 12 21 9 4 21 17 26 30 5 14
17 24 29 24 15 0 20 7 20 25 0 20 5 25 26 25 15 0 23 4 19 10 -9 15 14 40 36
40 12 0 16 5 13 15 -4 11 3 19 24 26 16 6 32 19 35 30 3 13 14 19 32 19 19 0
26 4 22 14 -7 19 12 36 41 36 13 0 21 4 17 10 -10 16 15 40 41 40 16 0 22 4
18 14 -6 16 24 36 54 36 13 0 19 6 18 18 -1 13 8 18 37 20 22 2 37 8 36 15 -4
31 3 37 41 37 32 0 38 3 33 16 -8 21 13 34 54 34 25 0 31 4 27 15 -7 16 31 35
71 35 16 0 22 5 21 18 -1 14 9 18 57 20 48 3 57 5 47 17 -16 20 17 35 78 35
44 0 50 2 45 19 -6 22 19 31 89 31 38 0 46 3 42 15 -7 18 34 36 64 28 23 -6
42 -82 42 -168 0 -46 3 -53 25 -63 23 -11 25 -17 25 -81 0 -58 3 -69 15 -65 9
4 15 0 16 -10 2 -29 4 -34 10 -41 4 -3 5 -24 2 -45 -3 -21 -3 -50 1 -64 6 -25
10 -26 71 -26 53 0 63 3 59 15 -4 10 3 18 20 25 14 5 26 17 26 25 0 9 6 18 14
21 8 3 12 12 9 20 -4 10 2 17 15 21 13 3 22 15 24 32 2 20 8 26 25 25 17 0 22
5 20 20 -1 15 5 22 21 24 16 2 22 10 22 28 0 17 5 24 20 24 14 0 20 7 20 21 0
12 8 23 20 26 11 3 17 10 13 16 -3 5 1 15 9 21 9 6 17 20 19 31 3 12 14 21 27
23 12 2 22 9 21 15 -3 27 2 37 21 37 15 0 20 7 20 25 0 20 5 25 25 25 16 0 23
4 19 14 -3 7 2 20 10 29 9 9 16 20 16 26 0 5 9 13 20 16 11 4 20 12 19 18 -3
28 2 37 21 37 12 0 20 6 19 13 -3 27 2 37 21 37 14 0 20 7 20 21 0 12 8 23 19
26 11 3 21 13 24 24 3 11 14 19 26 19 13 0 19 5 15 13 -3 8 2 20 11 27 8 7 15
21 15 31 0 12 7 19 20 19 15 0 20 7 20 26 0 17 6 28 20 31 11 3 20 14 20 24 0
12 7 19 19 19 13 0 21 8 23 23 2 14 11 23 26 25 12 2 20 8 16 13 -3 6 1 18 9
27 7 9 17 25 20 35 4 9 13 17 22 17 9 0 15 9 15 25 0 18 5 25 20 25 15 0 20 7
20 25 0 20 5 25 26 25 14 0 23 4 20 9 -10 16 5 41 25 41 12 0 19 7 19 19 0 10
7 21 15 25 8 3 12 12 9 19 -3 9 3 16 15 20 13 3 21 13 21 27 0 13 8 24 20 27
11 3 20 14 20 25 0 11 9 22 20 25 11 3 20 12 20 19 0 8 11 19 24 23 13 5 26
19 29 30 3 12 12 21 20 21 10 0 13 7 10 20 -4 14 1 21 21 26 26 6 26 7 26 100
l0 93 -72 3 c-67 3 -73 5 -76 26 -3 20 -9 22 -64 22 -51 0 -61 3 -65 20 -4 16
-14 20 -44 20 -52 0 -92 16 -85 35 4 12 -5 15 -52 15 -64 0 -88 10 -79 34 5
14 -3 16 -59 16 -59 0 -65 2 -74 24 -8 22 -16 25 -67 28 -48 2 -58 6 -57 21 2
14 -6 17 -41 17 -58 0 -99 16 -91 35 4 12 -5 15 -52 15 -64 0 -88 10 -79 34 5
13 -2 16 -47 16 -63 0 -86 7 -86 26 0 12 -29 21 -95 26 -22 2 -30 8 -29 21 2
14 -7 17 -48 17 -57 0 -92 15 -84 36 4 11 -6 14 -52 14 -64 0 -88 10 -79 34 5
14 -3 16 -59 16 -55 0 -67 3 -71 18 -3 14 -19 21 -66 28 -50 7 -62 12 -61 27
2 14 -7 17 -48 17 -57 0 -92 15 -84 36 5 12 -6 14 -67 12 l-72 -3 0 -65 c0
-60 2 -65 23 -68 20 -3 22 -8 22 -77 0 -62 2 -73 17 -71 22 1 31 -32 32 -116
1 -61 3 -68 21 -68 18 0 20 -7 20 -79 0 -72 2 -79 19 -74 22 6 31 -28 31 -114
0 -47 3 -56 20 -60 11 -3 22 -15 24 -27 3 -11 7 -33 11 -48 3 -16 1 -28 -5
-28 -5 0 -10 9 -10 21 0 12 -8 23 -20 26 -12 3 -20 14 -20 27 0 41 -12 66 -31
66 -14 0 -19 7 -19 29 0 20 -6 30 -20 34 -11 3 -19 11 -18 19 2 9 -12 14 -51
16 -43 3 -53 0 -48 -11 10 -26 -15 -37 -81 -37 -55 0 -63 -2 -53 -14 17 -20
-15 -36 -73 -36 -36 0 -44 -3 -40 -15 7 -18 -32 -35 -81 -35 -25 0 -32 -4 -31
-17 1 -15 -8 -19 -46 -21 -39 -3 -48 -7 -48 -21 0 -23 -19 -31 -73 -31 -29 0
-38 -3 -28 -9 25 -16 -6 -41 -50 -41 -29 0 -37 -3 -33 -14 7 -17 -25 -36 -59
-36 -16 0 -26 -7 -30 -20 -4 -15 -14 -20 -40 -20 -29 0 -36 -4 -39 -22 -2 -19
-10 -24 -40 -26 -29 -2 -36 -7 -31 -19 7 -19 -13 -33 -50 -33 -17 0 -26 -4
-22 -10 11 -18 -16 -40 -47 -40 -19 0 -27 -4 -22 -11 8 -14 -14 -29 -43 -29
-15 0 -23 -7 -25 -22 -2 -17 -11 -24 -30 -26 l-28 -3 -1 883 c-1 486 -3 875
-6 866 -5 -21 -23 -24 -23 -5 0 6 -3 22 -6 35 l-6 22 345 0 c332 0 347 1 357
19 11 22 13 80 4 105 -3 9 -15 16 -25 16 -14 0 -19 7 -19 25 0 20 -5 25 -25
25 -20 0 -25 5 -25 25 0 18 -5 25 -20 25 -15 0 -20 7 -20 25 0 14 -7 28 -16
32 -8 3 -13 11 -10 18 2 7 -4 15 -15 18 -11 3 -19 14 -19 25 0 14 -8 22 -22
24 -15 2 -24 11 -26 26 -2 14 -10 22 -23 22 -13 0 -19 7 -19 24 0 14 -7 26
-18 28 -10 3 -24 23 -32 47 -9 28 -19 41 -32 41 -12 0 -18 7 -18 24 0 18 -6
26 -22 28 -17 2 -22 9 -21 25 2 16 -4 23 -20 25 -14 2 -22 10 -22 22 0 11 -10
23 -24 27 -15 6 -21 14 -17 24 3 8 1 15 -4 15 -6 0 -10 11 -10 25 0 20 -5 25
-25 25 -18 0 -25 5 -25 19 0 11 -9 23 -20 26 -13 4 -20 15 -20 31 0 17 -5 24
-20 24 -13 0 -20 7 -20 19 0 11 -4 23 -10 26 -5 3 -10 15 -10 26 0 12 -7 19
-20 19 -13 0 -20 7 -20 19 0 12 -9 21 -26 25 -21 6 -25 11 -20 30 4 18 2 22
-17 22 -17 -1 -23 5 -25 27 -2 15 -9 27 -18 27 -8 0 -14 9 -14 19 0 10 -7 21
-15 25 -8 3 -15 12 -15 21 0 8 -9 15 -20 15 -15 0 -20 7 -20 25 0 18 -5 25
-20 25 -19 0 -24 10 -21 37 1 6 -9 13 -21 15 -18 2 -24 12 -31 46 -6 31 -13
42 -27 42 -19 0 -34 25 -24 41 3 5 -6 9 -20 9 -21 0 -26 5 -26 24 0 15 -7 26
-20 29 -12 3 -20 14 -20 27 0 14 -8 24 -21 27 -11 3 -18 11 -15 18 3 8 -2 16
-10 19 -8 3 -14 15 -14 26 0 13 -7 20 -20 20 -19 0 -22 4 -24 33 -1 6 -10 14
-21 17 -11 3 -21 15 -23 27 -2 11 -12 23 -24 26 -13 4 -19 11 -15 21 3 8 -1
20 -9 27 -8 7 -13 18 -10 25 3 8 -4 14 -17 16 -14 2 -23 11 -25 26 -2 14 -10
22 -23 22 -14 0 -19 7 -19 25 0 18 -5 25 -20 25 -14 0 -20 7 -20 24 0 16 -7
26 -21 29 -14 4 -20 11 -16 21 3 8 -1 17 -9 20 -8 3 -14 14 -14 25 0 13 -8 21
-22 23 -15 2 -24 11 -26 26 -2 14 -10 22 -23 22 -14 0 -19 7 -19 25 0 18 -5
25 -20 25 -13 0 -20 7 -20 19 0 10 -6 24 -14 31 -8 6 -12 18 -9 26 3 9 -2 14
-16 14 -14 0 -21 6 -21 20 0 12 -9 24 -23 29 -20 8 -23 15 -19 40 l4 31 -76 0
c-61 0 -76 -3 -76 -15z m155 -3954 c17 -3 30 -13 30 -21 0 -11 15 -16 55 -20
49 -4 55 -7 54 -27 0 -18 5 -23 23 -23 21 0 23 -4 23 -49 0 -40 3 -49 18 -47
13 1 19 -10 26 -46 8 -42 13 -48 34 -48 15 0 26 -7 29 -19 3 -11 11 -22 19
-25 17 -6 19 -46 3 -46 -6 0 -9 -7 -5 -15 3 -8 -1 -18 -8 -22 -8 -5 -16 -19
-18 -33 -2 -21 -9 -25 -43 -28 -45 -4 -55 -14 -55 -59 0 -26 -4 -33 -19 -33
-15 0 -20 -10 -26 -46 -5 -33 -12 -48 -25 -51 -10 -3 -20 -15 -22 -27 -2 -14
-11 -22 -29 -24 -17 -2 -29 -11 -32 -23 -5 -17 -14 -19 -92 -19 -78 0 -87 2
-92 20 -3 11 -13 20 -23 20 -22 0 -44 25 -35 40 3 5 -2 10 -13 10 -20 0 -36
25 -26 41 3 5 -4 9 -15 9 -22 0 -27 20 -22 85 1 23 -1 27 -10 18 -15 -15 -39
0 -39 23 0 9 -11 14 -27 14 -37 0 -57 14 -50 34 4 10 1 16 -9 16 -12 0 -15 12
-13 60 1 32 5 63 8 69 4 5 24 11 46 13 l40 3 3 66 c2 57 6 68 23 72 11 3 19 9
18 14 -4 22 3 33 22 33 11 0 17 4 14 10 -14 23 17 40 72 40 48 0 54 2 43 15
-10 12 -10 16 1 19 45 15 95 18 144 7z" transform="matrix(.1 0 0 -.1 0 900)" fill="#ffffff" class="color000 svgShape"></path></svg></g></svg>