<svg id="SvgjsSvg1033" width="288" height="288" xmlns="http://www.w3.org/2000/svg" version="1.1" xmlns:xlink="http://www.w3.org/1999/xlink" xmlns:svgjs="http://svgjs.com/svgjs"><defs id="SvgjsDefs1034"></defs><g id="SvgjsG1035"><svg xmlns="http://www.w3.org/2000/svg" width="288" height="288" version="1.0" viewBox="0 0 900 900"><g transform="matrix(.1 0 0 -.1 0 900)" fill="#ffffff" class="color000 svgShape"><path d="M4180 8910c0-19-7-20-146-20-131 0-145-2-134-15 27-32-4-40-183-45-95-3-166-9-159-13 21-14 13-35-19-46-18-6-100-11-183-12-83 0-145-3-138-6 18-7 15-40-5-49-10-4-92-10-183-14-91-4-159-7-152-8 22-3 13-32-14-42-14-6-98-10-187-10-125 0-158-3-149-12 41-41-18-58-213-59-82 0-144-3-137-6 18-7 15-31-7-43-11-6-89-10-180-10l-160 0 2-27c3-36-18-41-176-42l-128-1 3-97 3-98 110-5c119-5 139-12 132-41-5-18 2-19 94-19 64 0 112-5 134-14 37-16 42-25 23-44-9-9 13-12 100-12 139 0 189-19 150-58-9-9 14-12 106-12 64 0 126-5 137-10 22-12 25-36 7-43-7-3 34-6 92-7 58-1 118-5 135-9 32-7 46-38 23-52-7-5 46-9 128-9 134 0 144-1 205-29 38-17 92-32 134-36 42-5 92-19 130-36l60-29-48 0c-33 0-66 9-107 30-42 21-74 30-109 30-33 0-62 7-87 22-43 25-122 30-147 9-15-12-17-40-17-213 0-169 2-199 14-195 33 13 41-22 46-217l5-191 33-3c29-3 32-6 32-38 0-31 3-34 29-34 22 0 31-6 41-30 9-21 19-30 36-30 14 0 31-12 44-31 13-17 33-34 46-39 13-5 24-14 24-21 0-6-3-9-7-7-31 14-81 48-109 71-46 39-96 35-101-8-2-16-8-34-14-39-5-6-9-23-9-38 0-32-23-38-39-10-7 12-10-86-11-320l0-338 35-14 35-15 0-90 0-89 29-7c29-6 30-9 37-75 4-44 10-67 18-64 23 8 36-14 42-72 6-58 8-61 31-56 33 6 43-11 43-75 0-51 0-52 33-55 28-3 32-7 35-35 3-28 7-32 35-35 27-2 33-8 37-33 4-23 11-31 30-34 29-4 42-19 34-43-4-13 2-17 28-20 29-3 33-7 36-35 3-30 6-33 37-33 25 0 35-5 40-20 3-11 3-24 0-30-4-6 6-10 22-10 41 0 67-22 60-49-5-19-1-21 48-21 58 0 81-16 70-50-6-19-2-20 58-20 68 0 95-15 83-45-4-13 7-15 68-15 87 0 136-14 136-40 0-10-6-21-12-23-7-3 158-6 366-6 296-1 377 2 368 11-36 36 14 58 129 58 66 0 77 2 73 15-12 30 15 45 83 45 59 0 64 2 58 19-10 32 20 51 80 51 49 0 53 1 48 21-7 27 19 49 60 49 16 0 26 4 22 10-3 6-3 19 0 30 5 15 15 20 45 20 33 0 37 3 33 20-7 27 14 50 46 50 23 0 27 4 26 28 0 23 4 27 33 30 26 3 32 7 27 21-9 30 5 51 35 51 25 0 29 4 32 33 3 28 7 32 34 35 30 3 32 5 40 65 9 59 10 62 37 62 21-1 27 4 25 20-3 39 2 55 16 55 9 0 12 7 9 20-6 22 22 29 29 8 3-7 8 25 11 71 4 46 9 86 11 88 3 3 16 6 30 7l26 1 0 97 0 97 33 9 32 8 0 320 0 319-32 3c-32 3-33 4-33 53 0 42 3 49 20 49 17 0 20 7 20 40 0 43-23 57-33 20-4-15-14-20-42-20-29 0-47-8-76-35-36-32-59-44-59-30 0 18 47 65 65 65 13 0 27 10 35 26 8 14 26 28 41 31 22 4 29 12 31 37 2 26 8 32 33 36l30 5 7 127c4 90 11 134 22 149 16 23 19 21 29-26 3-11 5 107 6 262 1 187-3 284-9 288-6 4-68 1-138-5-103-10-139-18-188-41-47-23-74-29-120-28-36 1-51 4-39 8 11 4 40 16 65 28 25 11 78 23 120 27 55 5 90 15 132 36 55 29 62 30 194 30 122 0 135 2 124 16-11 12-10 18 4 32 13 14 40 18 136 21 102 3 118 5 113 18-12 30 26 43 119 43 48 0 88-3 88-7-1-16-26-41-45-44-20-4-20-14-20-437l0-432-33-6-33-6 3-127 3-126 28-3c26-3 27-5 27-63 0-33-4-67-9-77-5-9-12-26-16-37-6-20-7-20-21-1-12 18-14 6-14-100l0-120-32-9-33-10-3-187-2-188 271 0 272 0-7 92c-3 50-6 128-7 172 0 45-3 76-5 70-3-7-14-10-24-7-21 6-35 36-25 53 3 5 1 10-4 10-7 0-11 37-11 103 0 101-1 104-22 103-18-1-24 6-30 39-4 22-7 66-7 98-1 57-1 57 29 57l31 0-3 133-3 132-27 3-28 3 0 470 0 470-37 22-38 22 100 6c55 3 94 6 88 7-7 1-13 11-13 22 0 27 54 40 167 40 82 0 92 2 86 16-12 32 24 44 133 44 116 0 114-2 114 100 0 105 7 100-146 100-155 0-189 8-180 45l6 25-158 0c-119 0-163 3-177 14-16 11-17 17-7 29 12 14-6 16-152 19-144 3-168 5-183 21-17 17-17 19 1 33 18 12 1 14-141 14-89 0-173 4-187 10-27 10-35 35-13 43 6 3-46 6-118 7-200 2-278 21-231 56 18 12 2 14-136 14-156 0-218 10-218 35 0 8 8 19 18 24 12 7-30 10-145 11-89 0-173 4-187 10-27 10-35 35-13 43 6 3-57 6-140 6-146 1-153 2-153 21 0 20-7 20-325 20-318 0-325 0-325-20zm220-1360c95-25 133-25 222 0 40 11 102 20 138 20l65 0-35-19c-91-51-91-51-283-51l-183 0-70 35-69 35 70 0c39 0 104-9 145-20zm-120-1065c115-27 335-26 466 3 69 16 124 22 178 20l78-3-83-30-84-29-295-4c-314-4-358 0-470 43l-65 25 100-4c55-1 134-11 175-21zM4275 4880c-22-18-50-30-66-30-25 0-29-4-29-29 0-26-4-30-32-33l-33-3 0-130 0-130 33-3c28-3 32-7 32-33 0-25 4-29 28-29 40 0 66-22 59-49-4-17-1-21 18-21 24 0 55-23 55-41 0-5-7-9-15-9-12 0-15-24-17-137l-3-138-30-5c-28-5-30-8-32-55-1-28-2-55-2-62-1-6-13-13-28-15-26-3-29-7-38-68-10-60-12-65-38-68l-27-3 0-161c0-175 10-225 44-230 16-2 21-11 22-34 1-47 23-94 45-94 15 0 19-7 19-34 0-47 25-102 50-109 14-4 20-13 20-35 0-48 20-92 41-92 15 0 19-7 19-30 0-36 20-78 55-116 14-15 25-33 25-40 0-9 19-14 63-16 62-3 62-3 62-33 0-26-4-30-32-33-40-4-93 23-93 47 0 10-9 26-20 36-11 10-22 26-25 36-4 11-12 19-20 19-16 0-29 35-20 50 3 5 2 10-4 10-5 0-15 16-22 35-7 19-19 35-26 35-8 0-13 12-13 29 0 16-7 34-15 41-8 7-15 18-15 25 0 6-9 22-20 35-11 13-20 33-20 45 0 13-7 28-15 35-8 7-15 21-15 31 0 11-7 19-15 19-10 0-15 10-15 33 0 21-7 36-20 45-11 7-20 23-20 37 0 16-6 25-15 25-9 0-15 9-15 25 0 14-9 34-21 46-13 13-18 27-14 40 4 13 2 19-9 19-13 0-16 12-16 57 0 52-1 55-15 37-12-16-16-17-24-4-7 9-6 19 1 27 8 10 5 13-11 13-19 0-21 6-21 51 0 44-2 50-15 39-12-10-16-9-21 3-3 9-3 21 1 27 3 5-1 10-9 10-16 0-20 13-16 65 2 26 0 27-14 16-26-22-44 3-52 69-5 48-9 57-23 53-29-7-43 23-44 91-1 51-3 61-12 49-16-22-57 0-55 30 1 12 2 39 1 60-1 34-3 37-30 37-28 0-45 20-40 46 1 5 1 26 0 47-1 34-3 37-31 37-28 0-30 3-30 35 0 29-5 37-25 45-26 10-34 35-12 43 6 3-13 6-44 6-69 1-112 28-90 55 12 15 1 16-125 16-122 0-136-2-118-14 18-14 18-16 2-32-13-14-39-19-107-22-71-4-88-7-84-18 10-28-17-44-74-44-49 0-54-2-48-19 10-31-20-51-77-51-44 0-49-2-38-15 19-23-14-55-56-55-26 0-32-3-28-15 10-26-16-45-62-45-42 0-44-1-32-20 16-25 2-37-53-46-29-5-36-10-32-24 5-20-30-50-59-50-11 0-15-5-12-15 9-23-15-45-48-45-23 0-29-4-24-16 10-25-12-54-40-54-20 0-24-4-19-19 3-10-1-24-10-31-8-7-15-23-15-35 0-27-24-49-45-41-12 4-15 0-14-17 4-48 0-57-30-57-25 0-30-4-33-27-2-22-9-29-33-33-29-5-30-7-33-67-3-61-3-61-37-67-34-7-34-7-37-69-3-60-4-62-33-67-29-5-30-7-30-65l0-60-32-3c-32-3-33-5-33-50 0-26-3-70-6-99-6-47-9-52-33-55l-26-3-3-125c-1-68-7-129-12-134-6-6-10-20-10-32 0-30-20-41-27-15-11 44-23 6-23-77 0-109 6-131 37-138 16-4 26-16 30-35 5-25 10-29 38-29 17 0 45-5 61-10 16-6 88-21 159-35l130-24-285 3c-184 2-298 8-323 15-41 13-41 31-1 31 14 0 22 4 19 10-8 12-212 13-219 1-3-5 4-11 15-14 64-17-50-47-178-47-76 0-84-2-73-16 20-23-7-43-67-51-38-4-50-9-46-19 8-22-16-44-48-44-24 0-28-4-31-32-3-29-7-33-35-36-28-3-33-8-37-35-3-18-4-45-3-62 2-26-2-30-28-35-29-5-30-7-33-68-3-54-6-62-22-62-20 0-20-11-20-495 0-488 0-495 20-495 18 0 20-7 20-64 0-63 0-63 33-72 25-8 33-16 35-37 3-22 10-29 33-34 25-5 29-10 29-40 0-20 4-32 10-28 22 14 50-6 50-36 0-26 3-29 35-29 34 0 57-22 48-46-2-7 17-14 51-18 62-8 86-27 66-51-11-13 42-15 466-15 417 0 475 2 458 14-27 20-8 37 53 47 26 4 379 9 783 10 404 1 727 3 718 6-28 7-21 30 13 42 18 6 68 11 112 11 63 0 78 3 69 12-22 22-12 38 31 50 38 10 43 14 39 34-3 15 3 27 17 36 12 7 21 22 21 34 0 12 9 28 20 35 27 18 49 137 32 174-12 25-12 25-160 25-131 0-157-3-221-25-105-36-197-45-440-45-209 0-221-1-297-26-75-26-92-27-359-34-269-6-284-7-380-35l-100-29-367-4c-247-2-373 0-387 7-11 6-21 21-23 33-2 18-11 24-43 28-35 4-41 9-45 35-4 24-11 31-35 35-24 4-30 10-30 32-1 15-4 30-8 34-4 4-7 17-7 29 0 17-8 24-30 28l-30 6 0 83c0 86-4 101-31 110-23 9-32 103-18 188 12 72 20 83 38 53 8-13 10 16 11 105 0 67 4 122 8 122 4 0 8 12 7 28 0 22 4 27 24 27 22 0 25 5 25 35 1 29 5 36 26 40 19 4 25 11 25 30 0 15 8 28 21 35 11 5 19 16 16 24-8 23 28 41 79 41 43 0 47 2 42 21-4 15 0 27 12 35 22 16 102 18 140 4 22-8 26-15 21-35-6-23-4-24 46-27 50-3 53-4 53-30-1-24 3-28 27-28 30 0 32-3 28-71-1-26 3-50 9-53 7-4 11 1 11 13 0 12 5 21 11 21 6 0 9-9 6-20-3-12 1-21 12-25 14-4 16-23 16-135l0-130-27 0c-24 0-28-4-28-30 0-22-6-33-22-39-14-5-17-10-10-15 9-5 9-13 1-27-9-18-19-19-97-17l-87 3 1 31c1 28-1 30-23 26-15-3-29 1-33 8-5 7-9 67-9 133-2 122-5 142-22 131-14-8-39 15-39 38 0 17-7 19-97 16l-98-3-6-145c-6-152-12-180-35-180-23 0-34-44-34-130 0-90 10-125 38-132 17-5 21-17 27-74 9-93 21-124 51-124 19 0 24-7 30-35 5-31 10-35 36-35 22 0 33-7 46-30 14-25 23-30 57-30 22 0 72-9 110-20 85-24 124-25 235-4 54 10 178 19 340 24 221 7 265 11 330 30 66 20 106 24 345 30 179 4 280 11 300 19 89 37 207 51 443 51 178 0 239 3 260 14 39 19 153 43 249 51 79 7 82 8 85 33 2 18 10 28 28 32 15 3 27 15 31 30 5 17 7 4 8-37 1-35-3-63-8-63-5 0-11-12-13-27-3-30-28-44-28-16 0 15-2 16-11 3-5-9-9-58-7-115 3-95 2-100-18-103-27-4-44-41-44-97 0-30-4-45-13-45-17 0-50-63-45-86 2-11 13-20 26-22 18-3 22-10 22-43 0-37 2-39 31-39 44 0 71-17 67-43-3-20 2-22 49-25 50-3 52-4 55-35 2-25 8-33 28-36 29-4 42-19 34-43-2-9 0-19 6-23 5-3 10-17 10-31 0-20 5-24 30-24l30 0 0-120 0-120 94 0 95 0 3 47c3 43 6 48 28 51 35 5 40 12 41 62 2 61 15 83 43 76 20-5 22-2 18 29-4 31-1 35 18 35 16 0 20 4 15 19-6 20 17 51 39 51 25 0 49-27 43-49-5-19-1-21 47-21 58 0 93-18 83-44-5-13 1-16 41-16 49 0 92-21 92-45 0-7-6-16-12-18-7-3 15-6 49-6 66-1 85-15 76-52-5-17 2-19 73-19 44 0 85 4 92 8 9 6 12 33 10 98-3 88-3 89-29 92-23 3-27 9-33 49-3 25-6 68-6 94 0 46-2 49-32 57-30 8-33 12-31 43 2 32 0 34-30 34-27 0-32 4-35 28l-3 27-522 0c-303 0-528 4-537 10-11 7-8 11 15 21 30 13 549 19 870 11 107-3 139 0 181 15l52 18 8 60c7 45 13 61 27 63 15 3 16 0 7-23-5-14-10-43-10-64 0-30 4-40 20-44 15-4 20-14 20-36 0-30 2-31 43-31 164-2 596-20 612-26 19-8 18-9-5-15-14-4-63-8-110-10-47-2 183-6 510-9 457-4 603-9 628-19 39-16 41-26 5-39-20-7 125-11 472-11 388-1 496 2 487 11-35 35-6 49 113 57l90 6 3 76c2 61 0 79-14 90-12 10-63 16-188 20-144 5-189 10-286 35l-115 29 200 3c140 2 223-2 275-12 49-9 83-11 100-4 15 5 56 12 91 16l64 7 3 63c3 54 6 62 22 62 20 0 20 11 20 495 0 484 0 495-20 495-17 0-19 8-22 67-3 67-4 68-33 73-26 5-30 9-28 35 1 17 0 45-3 62-4 28-9 33-33 33-29 0-41 15-41 50 0 14-9 20-32 22-28 2-34 8-36 31-3 21-9 27-27 27-55 0-101 48-62 63 6 3-33 6-88 7-65 1-119 7-155 19l-55 18 33 7c17 4 32 12 32 17 0 12-177 12-185-1-4-6 6-10 24-10 37 0 50-17 19-25-85-19-185-25-413-24l-260 1 112 23c62 12 126 28 144 34 18 6 52 11 75 11 40 0 44 2 44 25 0 16 6 25 15 25 8 0 15-5 15-11 0-5 5-7 10-4 11 7 14 224 4 262-3 12-15 23-27 25-27 4-36 46-36 178l-1 96-27-1c-24 0-28 5-35 40-4 22-7 66-7 98-1 57-1 57-31 57-29 0-30 1-30 49 0 64-7 81-35 81-28 0-35 17-35 80 0 49-9 60-50 60-16 0-19 9-22 62-3 61-4 63-33 68-24 4-31 11-33 32-3 21-9 27-30 30-23 3-27 8-30 40-2 29-8 37-25 40-17 2-22 9-20 31 1 18-3 27-13 27-8 0-17 13-20 30-5 23-12 30-30 30-26 0-47 30-38 54 5 12-1 16-25 16-30 0-53 23-45 45 3 6-10 15-28 20-26 8-34 16-36 38-2 19-9 27-22 27-11 0-31 5-45 12-20 9-25 17-21 34 6 21 2 23-41 26-44 3-48 5-51 31-3 23-8 27-36 27-39 0-61 21-53 50 5 18 0 20-41 20-60 0-76 11-70 44 5 25 4 26-48 26-60 0-94 21-73 46 10 12 1 14-54 14-36 0-78 5-92 12-26 12-34 43-12 51 6 3-59 6-146 6-156 1-157 1-145-20 11-17 10-22-6-35-11-8-36-14-56-14-32 0-36-3-35-27 0-23-5-29-30-33-26-4-30-9-30-35 0-26-4-30-32-33-32-3-32-3-35-65-3-60-4-62-33-67-29-5-30-7-33-67-3-59-4-62-32-68-26-6-29-11-37-68-7-58-10-62-35-65-28-3-34-20-30-82 1-30-19-52-44-47-22 4-24 1-25-32-2-69-13-96-37-95-19 0-22-5-22-38 0-21-5-38-11-38-6 0-9-6-6-14 3-8 0-22-8-32-11-15-15-16-29-5-14 12-16 9-16-33 0-25-4-46-10-46-5 0-10-14-10-31 0-22-5-32-20-36-14-4-20-14-20-34 0-16-4-29-9-29-5 0-11-14-15-31-4-19-13-33-26-36-15-4-20-14-20-39 0-19-4-34-10-34-5 0-10-9-10-20 0-11-9-25-20-32-11-7-20-23-20-35 0-12-7-28-15-37-8-8-15-22-15-30 0-9-9-24-20-33-11-10-20-30-20-45 0-18-5-28-15-28-8 0-15-7-15-15 0-8-9-32-20-52-11-21-20-43-20-50 0-7-6-13-12-13-7 0-22-14-33-30-23-34-35-38-35-12 0 24 12 39 34 43 18 4 38 44 50 102 4 15 13 27 21 27 21 0 41 54 44 118 1 6 9 12 20 12 18 0 36 46 43 110 2 17 10 26 24 28 22 3 44 55 44 106 0 19 5 26 19 26 32 0 41 51 41 226l0 164-29 0c-27 0-28 2-35 61-7 73-10 79-41 79-22 0-24 4-27 63-3 58-5 62-28 65-14 2-28 7-32 10-3 4-8 77-9 162l-3 155 26 3c20 2 25 7 21 23-8 28 15 49 53 49 31 0 34 3 34 29 0 26 4 30 33 33l32 3 0 130 0 130-32 3c-29 3-33 7-33 33 0 25-4 29-29 29-16 0-44 12-66 30l-38 30-192 0-192 0-38-30zm-1440-2425c72-8 177-23 235-33 96-16 218-17 1440-17 1325 0 1336 0 1475 22 229 36 356 44 620 41l250-3-135-22c-219-37-300-43-595-43-256 0-292-3-420-26-101-18-189-27-315-30-234-7-220-2-220-70 0-47 3-57 20-61 14-4 20-14 20-33 0-15 7-33 15-40 17-14 20-56 6-65-6-3-13 10-16 29-4 21-14 36-25 39-13 3-19 19-24 66-6 51-10 61-26 61-23 0-39 26-33 52 5 18-12 18-563 16l-569-3-3-45c-2-25 1-69 8-97 10-46 15-53 36-53 22 0 24-3 23-52-1-29-3-46-6-37-2 10-13 19-24 22-14 4-19 14-19 36 0 17-4 31-10 31-5 0-10 13-10 29 0 17-4 33-10 36-5 3-10 19-10 36 0 21-5 29-18 29-24 0-42 19-42 46 0 22-2 22-217 27-179 4-243 9-358 31-130 24-160 26-415 26-280 0-369 7-615 49l-110 19 265 1c178 0 308-4 395-14zm2510-1317c26-12 34-43 13-51-7-3 94-6 224-6 191-1 257-5 337-20 55-11 110-25 123-32 16-9 104-15 293-20 240-6 278-9 345-29 65-20 108-24 325-30 226-7 260-10 355-35 58-15 107-29 110-32 3-3-98-3-225 0-214 3-237 6-335 32-98 27-122 29-370 35-240 6-274 9-365 32-95 25-116 26-430 31-181 2-365 2-407-1-73-4-78-6-78-28 0-22-16-41-27-31-3 3-2 33 2 66 5 48 11 61 24 61 24 0 41 20 41 47 0 26 8 28 45 11z" fill="#ffffff" class="color000 svgShape"></path></g></svg></g></svg>