<svg id="SvgjsSvg1027" width="288" height="288" xmlns="http://www.w3.org/2000/svg" version="1.1" xmlns:xlink="http://www.w3.org/1999/xlink" xmlns:svgjs="http://svgjs.com/svgjs"><defs id="SvgjsDefs1028"></defs><g id="SvgjsG1029"><svg xmlns="http://www.w3.org/2000/svg" enable-background="new 0 0 511.999 511.999" viewBox="0 0 511.999 511.999" width="288" height="288"><path d="M418.071,297.743h-40.208H93.929c-31.846,0-57.754,25.909-57.754,57.755s25.909,57.754,57.754,57.754h33.852
				l-4.369,3.549c-5.031,4.088-7.295,10.561-5.909,16.892c1.386,6.332,6.147,11.268,12.426,12.879l2.269,0.583l-11.198,43.629
				c-1.373,5.35,1.851,10.799,7.2,12.172l34.009,8.729c0.819,0.211,1.654,0.314,2.486,0.314c1.776,0,3.537-0.474,5.091-1.393
				c2.283-1.351,3.936-3.553,4.595-6.121l11.199-43.631l2.269,0.583c6.279,1.611,12.828-0.421,17.092-5.304
				c4.264-4.882,5.396-11.645,2.956-17.649l-10.257-25.233h180.223h40.208v0.001c31.846,0,57.754-25.908,57.754-57.754
				S449.915,297.743,418.071,297.743z M134.364,438.712l-0.004,0.015c0.002-0.006,0.003-0.013,0.005-0.019
				C134.364,438.71,134.364,438.711,134.364,438.712z M182.116,439.318c-2.921-0.752-5.959-0.32-8.556,1.216
				c-2.596,1.535-4.438,3.989-5.186,6.907l-10.879,42.387l-14.638-3.758l10.878-42.382c0.751-2.922,0.319-5.961-1.218-8.558
				c-1.537-2.596-3.992-4.438-6.906-5.182l-5.064-1.301l18.953-15.396l12.441-10.106l4.108,10.106l11.123,27.364L182.116,439.318z
				 M367.862,393.252H189.51l-4.126-10.15c-1.194-2.936-3.708-5.133-6.778-5.92c-3.072-0.79-6.332-0.075-8.792,1.924L152.4,393.252
				H93.929c-20.818,0-37.754-16.937-37.754-37.754c0-20.818,16.937-37.755,37.754-37.755h273.934V393.252z M418.071,393.252h-30.208
				v-75.509h30.208c20.818,0,37.754,16.937,37.754,37.755C455.824,376.315,438.887,393.252,418.071,393.252z" fill="#338840" class="color000 svgShape"></path><path d="M423.868 332.589c-3.425-4.332-9.714-5.069-14.046-1.642-4.333 3.425-5.067 9.714-1.642 14.046l6.735 8.519-6.735 8.519c-3.425 4.332-2.69 10.621 1.642 14.046 1.836 1.452 4.023 2.156 6.195 2.156 2.953-.001 5.877-1.302 7.851-3.798l11.64-14.721c2.875-3.635 2.875-8.77 0-12.404L423.868 332.589zM96.979 359.319c.25.61.56 1.19.92 1.73.37.55.79 1.06 1.25 1.52.46.461.97.881 1.52 1.24.54.36 1.12.67 1.72.92.61.25 1.23.44 1.87.57.65.13 1.3.2 1.96.2.65 0 1.3-.07 1.95-.2.64-.13 1.27-.32 1.87-.57.6-.25 1.19-.56 1.73-.92.54-.359 1.06-.779 1.52-1.24.46-.46.88-.97 1.24-1.52.36-.54.67-1.12.92-1.73.25-.6.44-1.229.57-1.869.13-.641.2-1.301.2-1.95 0-.65-.07-1.311-.2-1.96-.13-.63-.32-1.26-.57-1.87-.25-.601-.56-1.18-.92-1.72-.36-.551-.78-1.061-1.24-1.521-.46-.46-.98-.88-1.52-1.25-.54-.36-1.13-.67-1.73-.92-.6-.25-1.23-.44-1.87-.57-3.25-.649-6.7.41-9.02 2.74-.46.46-.88.97-1.25 1.521-.36.54-.67 1.119-.92 1.72-.25.61-.44 1.24-.57 1.87-.13.649-.19 1.31-.19 1.96 0 .649.06 1.31.19 1.95S96.729 358.72 96.979 359.319zM150.16 359.319c.25.61.56 1.19.92 1.73.37.55.79 1.06 1.25 1.52.46.461.97.881 1.52 1.24.54.36 1.12.67 1.72.92.61.25 1.24.44 1.87.57.65.13 1.31.2 1.96.2s1.31-.07 1.95-.2c.64-.13 1.27-.32 1.87-.57.61-.25 1.19-.56 1.73-.92.55-.359 1.06-.779 1.52-1.24.46-.46.88-.97 1.24-1.52.36-.54.67-1.12.92-1.73.25-.6.44-1.229.57-1.869.13-.641.2-1.301.2-1.95 0-.65-.07-1.311-.2-1.96-.13-.63-.32-1.26-.57-1.87-.25-.601-.56-1.18-.92-1.72-.36-.551-.78-1.061-1.24-1.521-2.32-2.33-5.77-3.39-9.03-2.74-.63.13-1.26.32-1.87.57-.6.25-1.18.56-1.72.92-.55.37-1.06.79-1.52 1.25-.46.46-.88.97-1.25 1.521-.36.54-.67 1.119-.92 1.72-.25.61-.44 1.24-.57 1.87-.13.649-.19 1.31-.19 1.96 0 .649.06 1.31.19 1.95S149.91 358.72 150.16 359.319zM203.349 359.319c.25.61.56 1.19.92 1.73.36.55.78 1.06 1.24 1.52.46.461.97.881 1.52 1.24.54.36 1.12.67 1.73.92.6.25 1.23.44 1.87.57.64.13 1.3.2 1.95.2.65 0 1.31-.07 1.95-.2s1.27-.32 1.87-.57c.61-.25 1.19-.56 1.73-.92.55-.359 1.06-.779 1.52-1.24.46-.46.88-.97 1.24-1.52.36-.54.67-1.12.92-1.73.25-.6.44-1.229.57-1.869.13-.641.2-1.301.2-1.95 0-.65-.07-1.311-.2-1.96-.12-.63-.32-1.26-.57-1.87-.25-.601-.56-1.18-.92-1.72-.36-.551-.78-1.061-1.24-1.521-2.32-2.33-5.78-3.39-9.02-2.74-.64.13-1.27.32-1.88.57-.6.25-1.18.56-1.72.92-.55.37-1.06.79-1.52 1.25-.46.46-.88.97-1.24 1.521-.36.54-.67 1.119-.92 1.72-.25.61-.45 1.24-.57 1.87-.13.649-.2 1.31-.2 1.96 0 .649.07 1.31.2 1.95C202.899 358.09 203.099 358.72 203.349 359.319zM256.53 359.319c.25.61.56 1.19.92 1.73.36.55.78 1.06 1.24 1.52.46.461.97.881 1.52 1.24.54.36 1.12.67 1.73.92.6.25 1.23.44 1.87.57.64.13 1.3.2 1.95.2s1.31-.07 1.95-.2 1.27-.32 1.87-.57c.61-.25 1.19-.56 1.73-.92.55-.359 1.06-.779 1.52-1.24.46-.46.88-.97 1.24-1.52.36-.54.67-1.12.92-1.73.25-.6.45-1.229.57-1.869.13-.641.2-1.301.2-1.95 0-.65-.07-1.311-.2-1.96-.12-.63-.32-1.26-.57-1.87-.25-.601-.56-1.18-.92-1.72-.36-.551-.78-1.061-1.24-1.521-2.32-2.33-5.78-3.39-9.02-2.74-.64.13-1.27.32-1.87.57-.61.25-1.19.56-1.73.92-.55.37-1.06.79-1.52 1.25-.46.46-.88.97-1.24 1.521-.36.54-.67 1.119-.92 1.72-.25.61-.44 1.24-.57 1.87-.13.649-.2 1.31-.2 1.96 0 .649.07 1.31.2 1.95C256.09 358.09 256.28 358.72 256.53 359.319zM309.71 359.319c.25.61.56 1.19.92 1.73.36.55.78 1.06 1.24 1.52.46.461.97.881 1.52 1.24.54.36 1.12.67 1.73.92.6.25 1.23.44 1.87.57.64.13 1.3.2 1.95.2s1.31-.07 1.96-.2c.63-.13 1.26-.32 1.87-.57.6-.25 1.18-.56 1.72-.92.55-.359 1.06-.779 1.52-1.24.46-.46.88-.97 1.25-1.52.36-.54.67-1.12.92-1.73.25-.6.44-1.229.57-1.869.13-.641.19-1.301.19-1.95 0-.65-.06-1.311-.19-1.96-.13-.63-.32-1.26-.57-1.87-.25-.601-.56-1.18-.92-1.72-.37-.551-.79-1.061-1.25-1.521-.46-.46-.97-.88-1.52-1.25-.54-.36-1.12-.67-1.72-.92-.61-.25-1.24-.44-1.87-.57-1.29-.26-2.62-.26-3.91 0-.64.13-1.27.32-1.87.57-.61.25-1.19.56-1.73.92-.55.37-1.06.79-1.52 1.25-.46.46-.88.97-1.24 1.521-.36.54-.67 1.119-.92 1.72-.25.61-.44 1.24-.57 1.87-.13.649-.2 1.31-.2 1.96 0 .649.07 1.31.2 1.95S309.46 358.72 309.71 359.319zM168.259 252.763c.245.233.498.459.768.668 22.963 17.766 50.111 27.821 78.925 29.321.205.011.411.021.616.031.914.044 1.831.078 2.748.105.27.008.54.018.81.025 1.131.026 2.263.043 3.399.043 1.142 0 2.281-.017 3.419-.043.26-.006.518-.016.777-.024.94-.027 1.877-.062 2.813-.107.18-.009.359-.018.538-.028 29.286-1.515 56.797-11.843 79.972-30.112.318-.251.617-.522.899-.806C376.267 225.885 397 186.061 397 141.479 397.001 63.467 333.535 0 255.525 0S114.046 63.467 114.046 141.478C114.046 186.591 135.27 226.839 168.259 252.763zM268.515 262.259c-.62.065-1.241.125-1.863.181-.688.063-1.375.126-2.066.177-1.199.087-2.401.157-3.607.209-.413.019-.826.033-1.24.047-1.401.047-2.805.081-4.215.081-1.392 0-2.778-.033-4.162-.079-.408-.014-.815-.029-1.221-.046-1.151-.05-2.298-.116-3.443-.197-.666-.048-1.33-.106-1.993-.165-.718-.063-1.435-.131-2.151-.206-.799-.085-1.597-.173-2.392-.274-.141-.018-.281-.039-.422-.057-20.159-2.627-38.78-10.213-54.596-21.493v-18.105c0-23.827 11.834-44.928 29.92-57.779 11.304 8.834 25.509 14.119 40.934 14.119s29.631-5.284 40.934-14.119c18.086 12.851 29.92 33.952 29.92 57.779v17.412h.001C310.113 251.929 290.157 259.948 268.515 262.259zM255.525 20c66.983 0 121.478 54.494 121.478 121.478 0 30.622-11.394 58.63-30.159 80.018-.265-29.199-14.371-55.15-36.064-71.597 7.453-10.756 11.835-23.793 11.835-37.841 0-3.305-.245-6.629-.729-9.88-.813-5.462-5.897-9.231-11.363-8.419-5.463.813-9.232 5.899-8.419 11.362.339 2.279.511 4.613.511 6.937 0 10.303-3.366 19.832-9.048 27.557-4.61 6.268-10.747 11.341-17.859 14.673-5.99 2.807-12.667 4.385-19.707 4.385-7.04 0-13.717-1.578-19.707-4.385-7.112-3.332-13.249-8.405-17.859-14.673-5.682-7.725-9.048-17.253-9.048-27.557 0-25.703 20.911-46.614 46.614-46.614 3.538 0 7.061.396 10.473 1.179 5.389 1.239 10.749-2.129 11.982-7.513 1.234-5.383-2.129-10.747-7.512-11.981-4.875-1.118-9.903-1.685-14.942-1.685-36.731 0-66.614 29.883-66.614 66.614 0 14.048 4.382 27.085 11.835 37.841-21.901 16.604-36.075 42.893-36.075 72.433v.222c-19.326-21.518-31.101-49.946-31.101-81.076C134.046 74.494 188.541 20 255.525 20z" fill="#338840" class="color000 svgShape"></path><path d="M288.259,77.37c0.25,0.6,0.56,1.18,0.92,1.72c0.36,0.55,0.78,1.06,1.24,1.52c0.46,0.471,0.97,0.881,1.52,1.25
				c0.54,0.36,1.12,0.671,1.73,0.921c0.6,0.25,1.23,0.439,1.87,0.569s1.3,0.19,1.95,0.19s1.31-0.061,1.95-0.19
				c0.64-0.13,1.27-0.319,1.88-0.569c0.6-0.25,1.18-0.561,1.72-0.921c0.55-0.369,1.06-0.779,1.52-1.25
				c0.46-0.46,0.88-0.97,1.24-1.52c0.36-0.54,0.67-1.12,0.92-1.72c0.25-0.61,0.45-1.23,0.57-1.87c0.13-0.65,0.2-1.3,0.2-1.96
				c0-0.65-0.07-1.311-0.2-1.95c-0.12-0.64-0.32-1.271-0.57-1.87s-0.56-1.189-0.92-1.729c-0.36-0.551-0.78-1.061-1.24-1.521
				c-0.46-0.46-0.97-0.88-1.52-1.24c-0.54-0.359-1.12-0.67-1.72-0.92c-0.61-0.25-1.24-0.439-1.88-0.569
				c-1.29-0.261-2.61-0.261-3.9,0c-0.64,0.13-1.27,0.319-1.87,0.569c-0.61,0.25-1.19,0.561-1.73,0.92
				c-0.55,0.36-1.06,0.78-1.52,1.24c-0.46,0.46-0.88,0.97-1.24,1.521c-0.36,0.54-0.67,1.13-0.92,1.729s-0.44,1.23-0.57,1.87
				c-0.13,0.64-0.2,1.3-0.2,1.95c0,0.66,0.07,1.31,0.2,1.96C287.819,76.14,288.009,76.76,288.259,77.37z" fill="#338840" class="color000 svgShape"></path></svg></g></svg>