<svg id="SvgjsSvg1001" width="288" height="288" xmlns="http://www.w3.org/2000/svg" version="1.1" xmlns:xlink="http://www.w3.org/1999/xlink" xmlns:svgjs="http://svgjs.com/svgjs"><defs id="SvgjsDefs1002"></defs><g id="SvgjsG1008" transform="matrix(0.9167,0,0,0.9167,11.995207117918,11.995200000000011)"><svg xmlns="http://www.w3.org/2000/svg" enable-background="new 0 0 480 480" viewBox="0 0 480 480" width="288" height="288"><path d="M477.657,146.344l-24-24c-3.124-3.123-8.188-3.123-11.312,0l-112,112l-26.344,26.344V8c0-4.418-3.582-8-8-8h-288
			c-4.418,0-8,3.582-8,8v464c0,4.418,3.582,8,8,8h288c4.418,0,8-3.582,8-8V331.312l61.656-61.656l112-112
			C480.78,154.532,480.78,149.468,477.657,146.344z M288.001,464h-272V16h272v260.688l-16,16V40c0-4.418-3.582-8-8-8h-224
			c-4.418,0-8,3.582-8,8v384c0,4.418,3.582,8,8,8h224c4.418,0,8-3.582,8-8v-60.688l16-16V464z M234.345,330.344
			c-0.765,0.767-1.367,1.682-1.768,2.688l-16,40c-1.642,4.102,0.352,8.758,4.454,10.4c1.908,0.764,4.037,0.764,5.946,0
			l29.024-11.616V416h-208V48h208v260.688L234.345,330.344z M249.769,357.08l-11.408,4.56l4.56-11.408L249.769,357.08z
			 M290.345,322.344l-26.344,26.344L251.313,336l18.344-18.344l32-32l34.344-34.344L348.689,264L290.345,322.344z M360.001,252.688
			L347.313,240l12.688-12.688L372.689,240L360.001,252.688z M384.001,228.688L371.313,216l76.688-76.688L460.689,152
			L384.001,228.688z" fill="#338840" class="color000 svgShape"></path><polygon points="360.001 448 360.001 440 344.001 440 344.001 448 336.001 448 336.001 464 344.001 464 344.001 472 360.001 472 360.001 464 368.001 464 368.001 448" fill="#338840" class="color000 svgShape"></polygon><rect width="16" height="16" x="339.75" y="13.625" transform="rotate(-45.001 347.75 21.63)" fill="#338840" class="color000 svgShape"></rect><rect width="16" height="16" x="362.326" y="13.672" transform="rotate(-45.001 370.327 21.677)" fill="#338840" class="color000 svgShape"></rect><rect width="16" height="16" x="362.332" y="36.254" transform="rotate(-45.001 370.335 44.258)" fill="#338840" class="color000 svgShape"></rect><rect width="16" height="16" x="339.748" y="36.206" transform="rotate(-45.001 347.749 44.21)" fill="#338840" class="color000 svgShape"></rect><path d="M464.001,320h-12.688l8.968-8.968l-11.312-11.312l-8.968,8.968V296h-16v12.688l-8.968-8.968l-11.312,11.312l8.968,8.968
			h-12.688v16h12.688l-8.968,8.968l11.312,11.312l8.968-8.968V360h16v-12.688l8.968,8.968l11.312-11.312L451.313,336h12.688V320z
			 M448.001,334.624L438.625,344h-13.248l-9.376-9.376v-13.248l9.376-9.376h13.248l9.376,9.376V334.624z" fill="#338840" class="color000 svgShape"></path><rect width="16" height="16" x="386.331" y="101.671" transform="rotate(-45.001 394.33 109.677)" fill="#338840" class="color000 svgShape"></rect><path d="M124.145,140c17.771-8.916,24.949-30.55,16.033-48.321c-8.916-17.771-30.55-24.949-48.321-16.033
			c-17.771,8.916-24.949,30.55-16.033,48.321c3.478,6.932,9.101,12.555,16.033,16.033c-12.131,6.061-19.811,18.44-19.856,32v12
			c0,4.418,3.582,8,8,8h56c4.418,0,8-3.582,8-8v-12C143.956,158.44,136.275,146.061,124.145,140z M88.001,108
			c0-11.046,8.954-20,20-20s20,8.954,20,20s-8.954,20-20,20S88.001,119.046,88.001,108z M128.001,176h-40v-4
			c0-11.046,8.954-20,20-20s20,8.954,20,20V176z" fill="#338840" class="color000 svgShape"></path><rect width="64" height="16" x="168.001" y="80" fill="#338840" class="color000 svgShape"></rect><rect width="64" height="16" x="168.001" y="112" fill="#338840" class="color000 svgShape"></rect><rect width="64" height="16" x="168.001" y="144" fill="#338840" class="color000 svgShape"></rect><rect width="64" height="16" x="168.001" y="176" fill="#338840" class="color000 svgShape"></rect><rect width="160" height="16" x="72.001" y="208" fill="#338840" class="color000 svgShape"></rect><rect width="160" height="16" x="72.001" y="240" fill="#338840" class="color000 svgShape"></rect><rect width="160" height="16" x="72.001" y="272" fill="#338840" class="color000 svgShape"></rect><path d="M184.001,376c-8.156,0.007-16.25-1.42-23.912-4.216c12.915-8.885,16.182-26.558,7.296-39.472
			c-8.885-12.915-26.557-16.182-39.472-7.296c-12.915,8.885-16.182,26.558-7.296,39.472c1.966,2.857,4.439,5.331,7.296,7.296
			c-7.662,2.796-15.756,4.223-23.912,4.216c-4.418,0-8,3.582-8,8s3.582,8,8,8c13.941,0.018,27.675-3.38,40-9.896
			c12.325,6.516,26.059,9.914,40,9.896h24v-16H184.001z M154.305,355.273c-0.921,1.38-2.11,2.56-3.496,3.471l0,0l-6.808,4.64
			l-6.872-4.688c-5.688-3.798-7.221-11.487-3.423-17.176c3.798-5.688,11.487-7.221,17.176-3.423
			C156.57,341.895,158.102,349.584,154.305,355.273z" fill="#338840" class="color000 svgShape"></path></svg></g></svg>